<svg width="332" height="331" viewBox="0 0 332 331" fill="none" xmlns="http://www.w3.org/2000/svg">
<g opacity="0.9">
<g filter="url(#filter0_d_46_4191)">
<circle cx="166" cy="166" r="150" fill="#1E1E1E"/>
<circle cx="166" cy="166" r="149.5" stroke="#1B1A1A"/>
</g>
<g clip-path="url(#clip0_46_4191)">
<path d="M94.515 212.656C94.4907 212.572 94.4665 212.483 94.4423 212.388C94.3574 212.083 94.2846 211.742 94.2119 211.377C94.2846 211.742 94.3694 212.082 94.456 212.388C94.4811 212.476 94.5013 212.566 94.5167 212.656" fill="white"/>
<path d="M95.5979 215.812C95.2949 215.106 95.0386 214.412 94.8066 213.693C95.0386 214.412 95.307 215.106 95.5979 215.812Z" fill="white"/>
<path d="M112.679 213.013V214.462C112.681 214.681 112.769 214.891 112.924 215.046C113.079 215.201 113.289 215.289 113.508 215.291H119.074C119.292 215.288 119.5 215.199 119.652 215.044C119.805 214.889 119.89 214.68 119.89 214.462V181.538C119.89 181.32 119.805 181.111 119.652 180.956C119.499 180.801 119.292 180.713 119.074 180.71H113.508C113.289 180.712 113.08 180.8 112.925 180.955C112.77 181.109 112.681 181.319 112.679 181.538V182.706C112.679 183.108 112.435 183.073 112.314 183.035L112.265 183.011C111.917 182.77 111.555 182.55 111.18 182.353C108.43 180.862 105.343 180.103 102.216 180.148C99.0833 180.1 95.9914 180.86 93.2376 182.353C90.5727 183.799 88.3758 185.974 86.9048 188.625C86.0125 190.177 85.3784 191.864 85.028 193.62C84.8983 194.228 84.8007 194.842 84.7355 195.46C84.6324 196.309 84.5791 197.162 84.5762 198.017C84.5751 198.864 84.6244 199.711 84.7235 200.552C84.7477 200.869 84.7961 201.173 84.8463 201.5C84.9432 202.098 85.0662 202.695 85.2117 203.266C85.2844 203.571 85.3692 203.851 85.4541 204.144C85.6376 204.703 85.8435 205.264 86.0633 205.789C86.2919 206.321 86.5479 206.841 86.8302 207.347C88.2697 209.98 90.4226 212.154 93.0419 213.619C95.7471 215.127 98.8003 215.899 101.897 215.859C105.059 215.89 108.177 215.119 110.96 213.619C111.374 213.387 111.788 213.143 112.172 212.876C112.172 212.876 112.672 212.502 112.672 213.01M111.613 203.801C110.67 205.448 109.28 206.795 107.605 207.686C105.89 208.618 103.965 209.095 102.013 209.071C100.104 209.101 98.2216 208.623 96.558 207.686C94.9405 206.786 93.61 205.448 92.7198 203.825C91.7644 202.045 91.2822 200.048 91.3193 198.028C91.2773 196.013 91.7734 194.025 92.7564 192.266C93.6711 190.627 95.0302 189.28 96.6774 188.379C98.375 187.464 100.279 186.999 102.207 187.027C104.135 187.003 106.037 187.468 107.737 188.379C109.382 189.283 110.741 190.629 111.659 192.266C112.632 194.028 113.123 196.015 113.083 198.028C113.123 200.05 112.613 202.045 111.609 203.801" fill="white"/>
<path d="M135.066 181.633C136.715 180.731 138.554 180.232 140.432 180.177C140.538 180.174 140.643 180.192 140.741 180.23C140.839 180.268 140.929 180.326 141.004 180.399C141.08 180.473 141.139 180.561 141.18 180.658C141.221 180.755 141.242 180.86 141.241 180.965V186.773C141.241 186.982 141.158 187.181 141.011 187.329C140.863 187.476 140.664 187.559 140.455 187.559H139.416C138.266 187.476 137.111 187.621 136.018 187.988C134.924 188.354 133.915 188.934 133.047 189.694C131.604 191.116 130.883 193.583 130.881 197.096V214.504C130.882 214.607 130.861 214.709 130.822 214.805C130.783 214.9 130.725 214.987 130.652 215.06C130.579 215.133 130.492 215.191 130.397 215.23C130.301 215.27 130.199 215.29 130.095 215.29H124.517C124.309 215.29 124.109 215.207 123.962 215.059C123.814 214.912 123.731 214.712 123.731 214.504V181.507C123.732 181.298 123.815 181.099 123.962 180.951C124.11 180.804 124.309 180.721 124.517 180.721H130.095C130.304 180.721 130.504 180.804 130.651 180.951C130.799 181.098 130.881 181.298 130.881 181.507V185.257C130.881 185.287 130.891 185.317 130.909 185.341C130.928 185.365 130.954 185.383 130.983 185.391C131.013 185.399 131.044 185.397 131.072 185.386C131.1 185.374 131.124 185.354 131.139 185.328C132.124 183.795 133.468 182.526 135.055 181.631" fill="white"/>
<path d="M173.166 200.673H148.562C148.48 200.673 148.398 200.691 148.323 200.724C148.248 200.758 148.181 200.807 148.126 200.869C148.071 200.93 148.029 201.002 148.004 201.081C147.979 201.159 147.97 201.242 147.979 201.324C148.21 203.626 149.281 205.762 150.988 207.324C152.839 209.001 155.266 209.9 157.764 209.833C159.25 209.929 160.734 209.628 162.065 208.961C163.396 208.293 164.525 207.283 165.336 206.034C165.542 205.717 165.825 205.457 166.157 205.277C166.49 205.097 166.862 205.003 167.24 205.004H172.074C172.253 205.005 172.43 205.051 172.587 205.137C172.744 205.223 172.878 205.347 172.975 205.498C173.073 205.649 173.131 205.821 173.144 206C173.158 206.179 173.127 206.359 173.054 206.523C171.939 209.031 170.181 211.202 167.959 212.814C164.985 214.915 161.405 215.984 157.765 215.857C154.662 215.909 151.599 215.14 148.888 213.629C146.287 212.16 144.156 209.985 142.74 207.355C141.209 204.471 140.442 201.242 140.512 197.977C140.443 194.72 141.187 191.496 142.676 188.598C144.054 185.969 146.169 183.799 148.761 182.355C151.521 180.855 154.623 180.099 157.764 180.16C160.806 180.106 163.809 180.841 166.482 182.294C169 183.682 171.068 185.761 172.443 188.286C173.902 191.014 174.637 194.071 174.576 197.164C174.576 197.991 174.542 198.768 174.473 199.494C174.443 199.819 174.292 200.121 174.05 200.34C173.808 200.559 173.493 200.679 173.166 200.678M166.56 194.906C166.631 194.906 166.702 194.891 166.768 194.863C166.834 194.835 166.893 194.794 166.942 194.742C166.992 194.69 167.03 194.629 167.055 194.562C167.08 194.495 167.091 194.424 167.088 194.352C167.045 193.247 166.773 192.164 166.291 191.168C165.809 190.173 165.127 189.289 164.287 188.57C162.381 186.956 159.945 186.107 157.449 186.186C155.115 186.135 152.85 186.976 151.114 188.537C149.487 190.016 148.418 192.009 148.084 194.182C148.07 194.272 148.076 194.363 148.1 194.449C148.125 194.536 148.168 194.617 148.227 194.685C148.285 194.754 148.358 194.809 148.44 194.847C148.522 194.885 148.611 194.904 148.701 194.904L166.56 194.906Z" fill="white"/>
<path d="M217.357 213.628C214.739 212.161 212.587 209.987 211.147 207.354C209.599 204.475 208.823 201.244 208.896 197.976C208.834 194.71 209.634 191.485 211.216 188.627C212.693 185.979 214.89 183.804 217.552 182.353C220.308 180.87 223.396 180.114 226.525 180.158C229.654 180.115 232.741 180.871 235.496 182.353C238.158 183.805 240.354 185.98 241.831 188.627C243.414 191.485 244.215 194.71 244.153 197.976C244.214 201.25 243.391 204.48 241.769 207.324C240.235 209.99 237.986 212.174 235.277 213.629C232.491 215.126 229.372 215.893 226.21 215.857C223.117 215.9 220.067 215.132 217.364 213.629M231.387 208.33C233.04 207.408 234.4 206.037 235.31 204.376C236.366 202.41 236.886 200.201 236.818 197.97C236.887 195.759 236.389 193.566 235.372 191.601C234.498 189.954 233.17 188.593 231.544 187.68C229.971 186.807 228.2 186.354 226.401 186.364C224.611 186.351 222.849 186.805 221.289 187.68C219.688 188.594 218.39 189.957 217.556 191.601C216.579 193.579 216.104 195.766 216.171 197.97C215.969 201.107 216.993 204.199 219.026 206.595C219.937 207.585 221.05 208.369 222.289 208.894C223.528 209.418 224.865 209.672 226.21 209.637C228.019 209.646 229.8 209.193 231.385 208.321" fill="white"/>
<path d="M216.554 175.558C216.584 175.722 216.582 175.89 216.547 176.053C216.512 176.216 216.445 176.371 216.35 176.508C216.255 176.645 216.134 176.762 215.994 176.851C215.853 176.941 215.696 177.003 215.532 177.032L202.058 179.419C201.943 179.44 201.838 179.5 201.763 179.59C201.688 179.68 201.646 179.793 201.646 179.911V206.244C201.596 206.747 201.652 207.255 201.809 207.736C201.966 208.216 202.222 208.659 202.56 209.035C203.453 209.695 204.561 210 205.666 209.888H207.139C207.288 209.888 207.434 209.917 207.571 209.974C207.708 210.031 207.833 210.115 207.937 210.22C208.041 210.325 208.124 210.45 208.179 210.588C208.235 210.725 208.263 210.872 208.261 211.02V214.724C208.261 215.021 208.142 215.306 207.932 215.516C207.722 215.726 207.437 215.844 207.139 215.844H204.411C201.75 216.028 199.114 215.227 197.006 213.593C196.074 212.626 195.361 211.469 194.917 210.202C194.474 208.934 194.309 207.585 194.436 206.247V181.318C194.436 181.251 194.421 181.184 194.393 181.124C194.364 181.063 194.323 181.009 194.271 180.966C194.22 180.923 194.159 180.891 194.095 180.874C194.03 180.857 193.962 180.854 193.895 180.866L185.252 182.409C185.146 182.428 185.05 182.483 184.981 182.566C184.912 182.649 184.874 182.753 184.874 182.86V206.244C184.823 206.746 184.876 207.253 185.031 207.734C185.186 208.214 185.44 208.657 185.774 209.035C186.672 209.695 187.782 209.999 188.891 209.888H190.364C190.513 209.888 190.66 209.917 190.798 209.973C190.936 210.03 191.061 210.114 191.166 210.219C191.272 210.324 191.355 210.449 191.412 210.587C191.469 210.724 191.498 210.872 191.498 211.02V214.724C191.498 215.021 191.38 215.306 191.17 215.516C190.96 215.726 190.675 215.844 190.378 215.844H187.637C184.976 216.027 182.34 215.226 180.231 213.593C179.301 212.625 178.59 211.467 178.147 210.2C177.703 208.933 177.538 207.585 177.662 206.247V162.101C177.662 161.78 177.79 161.472 178.017 161.245C178.244 161.017 178.552 160.89 178.874 160.89H183.662C183.983 160.892 184.29 161.02 184.517 161.247C184.743 161.474 184.872 161.781 184.874 162.101V174.989C184.874 175.056 184.888 175.122 184.917 175.183C184.945 175.244 184.986 175.298 185.037 175.341C185.089 175.385 185.149 175.416 185.214 175.433C185.279 175.451 185.347 175.454 185.413 175.442L194.057 173.912C194.163 173.893 194.259 173.838 194.328 173.755C194.398 173.672 194.436 173.568 194.436 173.46V162.101C194.436 161.78 194.563 161.472 194.791 161.245C195.018 161.017 195.326 160.89 195.648 160.89H200.424C200.745 160.892 201.052 161.02 201.278 161.247C201.505 161.474 201.634 161.781 201.636 162.101V171.969C201.636 172.043 201.652 172.115 201.683 172.181C201.713 172.247 201.758 172.306 201.814 172.353C201.87 172.4 201.936 172.434 202.006 172.453C202.077 172.472 202.151 172.475 202.223 172.463L214.327 170.313C214.491 170.282 214.66 170.285 214.823 170.32C214.986 170.355 215.14 170.422 215.277 170.517C215.414 170.612 215.531 170.733 215.621 170.874C215.711 171.015 215.772 171.172 215.801 171.336L216.554 175.558Z" fill="white"/>
<path d="M197.542 151.941C176.572 153.907 156.392 160.933 138.736 172.416C138.512 172.559 138.243 172.617 137.98 172.58C137.716 172.542 137.475 172.412 137.3 172.212C137.124 172.012 137.026 171.755 137.024 171.489C137.021 171.223 137.114 170.965 137.285 170.761L149.717 156.158C149.73 156.143 149.738 156.123 149.739 156.103C149.74 156.082 149.735 156.062 149.724 156.045C149.712 156.028 149.696 156.015 149.676 156.008C149.657 156.001 149.636 156 149.617 156.006C136.691 159.567 124.392 165.102 113.155 172.416C112.931 172.56 112.663 172.619 112.399 172.581C112.136 172.543 111.895 172.412 111.72 172.211C111.545 172.01 111.449 171.753 111.448 171.487C111.448 171.22 111.543 170.963 111.717 170.761L159.152 115.047C159.308 114.864 159.509 114.725 159.736 114.645C159.962 114.564 160.206 114.545 160.443 114.59C160.679 114.634 160.899 114.741 161.081 114.898C161.263 115.055 161.4 115.258 161.479 115.485L168.03 134.298C168.038 134.323 168.053 134.346 168.074 134.364C168.094 134.381 168.118 134.393 168.145 134.398C168.171 134.403 168.198 134.401 168.223 134.392C168.248 134.383 168.27 134.367 168.288 134.347L184.719 115.047C184.876 114.864 185.078 114.725 185.305 114.645C185.533 114.564 185.777 114.546 186.015 114.59C186.252 114.634 186.473 114.74 186.656 114.898C186.839 115.055 186.978 115.257 187.058 115.485L198.97 149.748C199.052 149.986 199.079 150.24 199.048 150.49C199.017 150.74 198.93 150.98 198.792 151.192C198.655 151.403 198.471 151.58 198.255 151.71C198.039 151.84 197.796 151.919 197.545 151.941" fill="white"/>
</g>
</g>
<defs>
<filter id="filter0_d_46_4191" x="0.875" y="0.1875" width="330.25" height="330.25" filterUnits="userSpaceOnUse" color-interpolation-filters="sRGB">
<feFlood flood-opacity="0" result="BackgroundImageFix"/>
<feColorMatrix in="SourceAlpha" type="matrix" values="0 0 0 0 0 0 0 0 0 0 0 0 0 0 0 0 0 0 127 0" result="hardAlpha"/>
<feOffset dy="-0.6875"/>
<feGaussianBlur stdDeviation="7.5625"/>
<feComposite in2="hardAlpha" operator="out"/>
<feColorMatrix type="matrix" values="0 0 0 0 0.154167 0 0 0 0 0.154167 0 0 0 0 0.154167 0 0 0 0.4 0"/>
<feBlend mode="normal" in2="BackgroundImageFix" result="effect1_dropShadow_46_4191"/>
<feBlend mode="normal" in="SourceGraphic" in2="effect1_dropShadow_46_4191" result="shape"/>
</filter>
<clipPath id="clip0_46_4191">
<rect width="159.568" height="101.299" fill="white" transform="translate(85.1143 117.912)"/>
</clipPath>
</defs>
</svg>
