<svg width="16" height="16" viewBox="0 0 16 16" fill="none" xmlns="http://www.w3.org/2000/svg">
<path d="M14.9333 1.06667H1.06667V0H14.9333V1.06667Z" fill="white"/>
<path d="M1.07703 2.56207C1.12689 2.31278 1.34577 2.13333 1.6 2.13333H14.4C14.6542 2.13333 14.8731 2.31278 14.923 2.56207L15.9896 7.89541C16.021 8.05209 15.9804 8.21456 15.8791 8.33813C15.7778 8.46169 15.6265 8.53333 15.4667 8.53333H0.533338C0.373555 8.53333 0.222189 8.46169 0.120889 8.33813C0.0195881 8.21456 -0.0209745 8.05209 0.0103616 7.89541L1.07703 2.56207Z" fill="white"/>
<path d="M1.06667 9.6V14.9333H3.13983e-10V16H16V14.9333H14.9333V9.6H12.8V11.7333H3.2V9.6H1.06667Z" fill="white"/>
<path d="M4.26667 9.6H11.7333V10.6667H4.26667V9.6Z" fill="white"/>
</svg>
