<svg width="17" height="18" viewBox="0 0 17 18" fill="none" xmlns="http://www.w3.org/2000/svg">
<g clip-path="url(#clip0_2042_27402)">
<path d="M8.50021 3.11749C9.23658 3.11749 9.87263 2.64797 10.1011 1.95728C9.66519 2.07727 9.10956 2.14969 8.50021 2.14969C7.89091 2.14969 7.33528 2.07727 6.89941 1.95728C7.12779 2.64792 7.76378 3.11749 8.50021 3.11749Z" fill="#8B8B8B"/>
<path d="M16.9789 3.96662C16.9439 3.86849 16.8711 3.78778 16.7763 3.74383L13.5352 2.24762C12.8458 2.01407 12.1434 1.82959 11.4342 1.69475C11.4092 1.68986 11.3844 1.6875 11.3599 1.6875C11.1843 1.6875 11.0271 1.8087 10.988 1.98646C10.729 3.12659 9.71972 3.9802 8.49997 3.9802C7.28027 3.9802 6.27095 3.12665 6.01203 1.98646C5.97245 1.8087 5.81553 1.6875 5.64008 1.6875C5.61557 1.6875 5.59072 1.68986 5.56576 1.69475C4.85659 1.82959 4.15422 2.01407 3.46369 2.24762L0.223739 3.74377C0.128363 3.78772 0.0550767 3.86843 0.02177 3.96657C-0.0126872 4.06585 -0.00647456 4.17302 0.0420762 4.26667L1.44913 7.0435C1.51499 7.17528 1.64897 7.25438 1.79071 7.25438C1.82729 7.25438 1.8644 7.24909 1.90098 7.2381L3.46375 6.77491V16.0922C3.46375 16.3037 3.63638 16.4763 3.84853 16.4763H13.1516C13.3631 16.4763 13.5353 16.3037 13.5353 16.0922V6.77503L15.0991 7.23822C15.1357 7.2492 15.1728 7.2545 15.2093 7.2545C15.3507 7.2545 15.4842 7.1754 15.551 7.04361L16.9585 4.26679C17.0059 4.17308 17.0127 4.06591 16.9789 3.96662Z" fill="#8B8B8B"/>
</g>
<defs>
<clipPath id="clip0_2042_27402">
<rect width="17" height="17" fill="white" transform="translate(0 0.582031)"/>
</clipPath>
</defs>
</svg>
