<svg width="56" height="56" viewBox="0 0 56 56" fill="none" xmlns="http://www.w3.org/2000/svg">
<path d="M19 36.8549V19.4504C19 18.6494 19.6396 18 20.4286 18H34.7143C35.5033 18 36.1429 18.6494 36.1429 19.4504V36.8549C36.1429 37.6559 35.5033 38.3052 34.7143 38.3052H20.4286C19.6396 38.3052 19 37.6559 19 36.8549Z" fill="url(#paint0_linear_657_5535)" fill-opacity="0.1"/>
<path d="M31.8571 20.1756L31.8571 23.8015C31.8571 26.2046 29.9384 28.1526 27.5714 28.1526C25.2045 28.1526 23.2857 26.2046 23.2857 23.8015L23.2857 20.1756M19 19.4504V36.8549C19 37.6559 19.6396 38.3052 20.4286 38.3052H34.7143C35.5033 38.3052 36.1429 37.6559 36.1429 36.8549V19.4504C36.1429 18.6494 35.5033 18 34.7143 18H20.4286C19.6396 18 19 18.6494 19 19.4504Z" stroke="white" stroke-width="2.2"/>
<defs>
<linearGradient id="paint0_linear_657_5535" x1="27.5714" y1="18" x2="27.5714" y2="38.3052" gradientUnits="userSpaceOnUse">
<stop stop-color="#333476"/>
<stop offset="0.255208" stop-color="#253066"/>
<stop offset="0.723958" stop-color="#141A38"/>
<stop offset="1" stop-color="#0F0F21" stop-opacity="0.33"/>
</linearGradient>
</defs>
</svg>
