<svg width="15" height="15" viewBox="0 0 15 15" fill="none" xmlns="http://www.w3.org/2000/svg">
<path fill-rule="evenodd" clip-rule="evenodd" d="M11.9615 10.6388L14.1897 12.8516L12.8423 14.1897L10.5998 11.9627C7.77781 14.0119 3.84109 13.5477 1.58073 10.8993C-0.679631 8.25085 -0.495515 4.31816 2.00254 1.88943C4.5006 -0.539298 8.46371 -0.638729 11.0821 1.66163C13.7004 3.96199 14.0843 7.88043 11.9615 10.6388ZM6.65313 1.89679C4.02366 1.89679 1.89206 4.01364 1.89206 6.62492C1.89206 9.23619 4.02366 11.353 6.65313 11.353C9.2826 11.353 11.4142 9.23619 11.4142 6.62492C11.4142 4.01364 9.2826 1.89679 6.65313 1.89679Z" fill="#A5AAB7"/>
</svg>
