<svg width="13" height="17" viewBox="0 0 13 17" fill="none" xmlns="http://www.w3.org/2000/svg">
<path d="M11.375 3.4H9.75C9.75 1.5215 8.29563 0 6.5 0C4.70437 0 3.25 1.5215 3.25 3.4H1.625C0.73125 3.4 0 4.165 0 5.1V15.3C0 16.235 0.73125 17 1.625 17H11.375C12.2688 17 13 16.235 13 15.3V5.1C13 4.165 12.2688 3.4 11.375 3.4ZM6.5 1.7C7.39375 1.7 8.125 2.465 8.125 3.4H4.875C4.875 2.465 5.60625 1.7 6.5 1.7ZM11.375 15.3H1.625V5.1H3.25V6.8C3.25 7.2675 3.61563 7.65 4.0625 7.65C4.50938 7.65 4.875 7.2675 4.875 6.8V5.1H8.125V6.8C8.125 7.2675 8.49063 7.65 8.9375 7.65C9.38438 7.65 9.75 7.2675 9.75 6.8V5.1H11.375V15.3Z" fill="white"/>
</svg>
