<svg width="391" height="459" viewBox="0 0 391 459" fill="none" xmlns="http://www.w3.org/2000/svg">
<path d="M383.49 453.011H368.848V248.847C368.848 238.456 361.883 230 353.324 230H176.684C168.125 230 161.159 238.456 161.159 248.847V453.011H146.518C144.57 453.011 143 454.926 143 457.291V458H182.174V457.291C182.174 454.926 180.597 453.011 178.656 453.011H164.015V248.847C164.015 240.362 169.703 233.467 176.684 233.467H353.324C360.313 233.467 365.993 240.371 365.993 248.847V453.011H351.352C349.403 453.011 347.826 454.926 347.826 457.291V458H387V457.291C387 454.926 385.422 453.011 383.482 453.011H383.49Z" fill="#212421"/>
<path opacity="0.4" d="M383.49 450.098H368.848V249.516C368.848 239.308 361.883 231 353.324 231H176.684C168.125 231 161.159 239.308 161.159 249.516V450.098H146.518C144.57 450.098 143 451.98 143 454.304V455H182.174V454.304C182.174 451.98 180.597 450.098 178.656 450.098H164.015V249.516C164.015 241.18 169.703 234.406 176.684 234.406H353.324C360.313 234.406 365.993 241.19 365.993 249.516V450.098H351.352C349.403 450.098 347.826 451.98 347.826 454.304V455H387V454.304C387 451.98 385.422 450.098 383.482 450.098H383.49Z" fill="white"/>
<path d="M217.998 235.055C218.022 234.755 218.093 234.464 218.18 234.188H216.72C216.648 234.472 216.601 234.755 216.57 235.055C216.491 235.968 217.919 235.96 217.998 235.055Z" fill="#212421"/>
<path d="M241.765 257.214C235.363 253.371 228.954 249.536 222.552 245.693V240.205C226.531 239.354 228.812 234.614 225.552 231.362C223.263 229.078 220.256 229.519 218.361 231.346H221.242C222.324 231.125 223.5 231.409 224.463 232.44C226.752 234.881 225.228 238.59 221.834 238.89C221.447 238.921 221.124 239.189 221.124 239.598V245.685C214.722 249.528 208.313 253.363 201.912 257.206C201.122 257.678 201.841 258.907 202.63 258.434C205.756 256.56 208.881 254.686 212.007 252.812C214.28 251.45 216.554 250.087 218.827 248.725C219.6 248.26 220.437 247.843 221.171 247.315C221.321 247.205 221.724 247.032 221.921 246.898C222.402 247.292 224.076 248.26 224.534 248.528C226.775 249.875 229.017 251.213 231.259 252.56C234.519 254.513 237.779 256.474 241.038 258.427C241.828 258.899 242.546 257.671 241.757 257.198L241.765 257.214Z" fill="#707070"/>
<path d="M245.309 284.287L247.085 318.967L197.42 318.573L198.486 285.696L191.84 332.432L179.25 330.912C179.25 330.912 179.25 307.312 184.515 283.334C189.78 259.356 202.275 255.261 202.275 255.261C202.275 255.261 220.121 265.167 241.401 255.261C241.401 255.261 255.167 258.97 258.601 279.909C262.034 300.847 263.945 331.298 263.945 331.298L251.355 332.44L245.309 284.287Z" fill="white"/>
<g opacity="0.2">
<path d="M188.754 332.07L191.832 332.44L198.107 288.358C196.892 290.012 195.416 292.98 194.382 298.233C192.787 306.312 189.962 324.321 188.762 332.07H188.754Z" fill="black"/>
</g>
<g opacity="0.2">
<path d="M255.648 332.054C254.449 324.298 251.623 306.304 250.028 298.233C248.821 292.114 247.021 289.106 245.727 287.649L251.347 332.44L255.64 332.054H255.648Z" fill="black"/>
</g>
<g opacity="0.8">
<path d="M246.161 300.926H197.989L197.729 308.997H246.572L246.161 300.926Z" fill="#628DAD"/>
</g>
<path opacity="0.1" d="M204.13 264.451L199.607 279.877C199.607 279.877 197.712 270.617 204.13 264.451Z" fill="black"/>
<path opacity="0.1" d="M240.454 264.451L244.977 279.877C244.977 279.877 246.871 270.617 240.454 264.451Z" fill="black"/>
<path d="M251.165 235.055C251.189 234.755 251.26 234.464 251.347 234.188H249.887C249.815 234.472 249.768 234.755 249.737 235.055C249.658 235.968 251.086 235.96 251.165 235.055Z" fill="#212421"/>
<path d="M274.924 257.214C268.522 253.371 262.113 249.536 255.712 245.693V240.205C259.69 239.354 261.971 234.614 258.711 231.362C256.422 229.078 253.415 229.519 251.52 231.346H254.401C255.483 231.125 256.659 231.409 257.622 232.44C259.911 234.881 258.387 238.59 254.993 238.89C254.607 238.921 254.283 239.189 254.283 239.598V245.685C247.882 249.528 241.472 253.363 235.071 257.206C234.281 257.678 235 258.907 235.789 258.434C238.915 256.56 242.041 254.686 245.166 252.812C247.44 251.45 249.713 250.087 251.986 248.725C252.76 248.26 253.596 247.843 254.33 247.315C254.48 247.205 254.883 247.032 255.08 246.898C255.562 247.292 257.235 248.26 257.693 248.528C259.935 249.875 262.176 251.213 264.418 252.56C267.678 254.513 270.938 256.474 274.198 258.427C274.987 258.899 275.705 257.671 274.916 257.198L274.924 257.214Z" fill="#707070"/>
<path d="M235.433 255.269C235.433 255.269 253.28 265.175 274.56 255.269C274.56 255.269 288.042 260.498 292.652 281.027L278.46 284.295L280.236 318.974L230.571 318.581L231.637 285.704L219.221 281.46C219.221 281.46 221.904 259.875 235.426 255.269H235.433Z" fill="#8AA57A"/>
<path opacity="0.2" d="M229.734 285.05L231.495 285.657L232.513 273.483L229.734 285.05Z" fill="black"/>
<path opacity="0.2" d="M276.763 270.286L278.468 284.287L281.23 283.657L276.763 270.286Z" fill="black"/>
<path d="M255.032 281.397C263.616 281.397 270.574 278.562 270.574 275.066C270.574 271.569 263.616 268.734 255.032 268.734C246.449 268.734 239.49 271.569 239.49 275.066C239.49 278.562 246.449 281.397 255.032 281.397Z" fill="#905662"/>
<path d="M279.353 235.055C279.376 234.755 279.447 234.464 279.534 234.188H278.074C278.003 234.472 277.956 234.755 277.924 235.055C277.845 235.968 279.274 235.96 279.353 235.055Z" fill="#212421"/>
<path d="M303.111 257.214C296.71 253.371 290.301 249.536 283.899 245.693V240.205C287.877 239.354 290.158 234.614 286.899 231.362C284.61 229.078 281.602 229.519 279.708 231.346H282.589C283.67 231.125 284.846 231.409 285.809 232.44C288.098 234.881 286.575 238.59 283.181 238.89C282.794 238.921 282.47 239.189 282.47 239.598V245.685C276.069 249.528 269.66 253.363 263.258 257.206C262.469 257.678 263.187 258.907 263.977 258.434C267.102 256.56 270.228 254.686 273.354 252.812C275.627 251.45 277.9 250.087 280.174 248.725C280.947 248.26 281.784 247.843 282.518 247.315C282.668 247.205 283.07 247.032 283.268 246.898C283.749 247.292 285.423 248.26 285.88 248.528C288.122 249.875 290.364 251.213 292.605 252.56C295.865 254.513 299.125 256.474 302.385 258.427C303.174 258.899 303.893 257.671 303.103 257.198L303.111 257.214Z" fill="#707070"/>
<path d="M325.291 325.093C325.291 325.093 323.381 294.642 319.948 273.703C318.629 265.655 315.78 260.151 312.773 256.426C308.984 251.725 303.214 249.056 297.168 249.056H290.379L286.433 253.174H279.771L276.282 249.056H272.359C263.811 249.056 255.87 253.607 251.695 261.057C249.469 265.033 247.361 270.27 245.854 277.129C240.589 301.107 240.589 324.707 240.589 324.707L253.179 326.227L259.825 279.491L259.059 335.354L308.723 335.747L306.647 278.074L312.694 326.227L325.283 325.085L325.291 325.093Z" fill="#212421"/>
<path opacity="0.2" d="M258.996 271.278C258.522 277.609 249.477 325.424 249.477 325.424L251.837 326.069L253.179 326.235L259.825 279.499C259.825 279.499 259.469 264.947 258.988 271.278H258.996Z" fill="black"/>
<path opacity="0.2" d="M315.725 325.959C314.477 317.234 311.312 295.146 309.434 283.137C307.058 267.947 306.655 269.679 306.655 269.679V278.082L312.701 326.235L315.725 325.959Z" fill="black"/>
<path d="M276.171 248L283.173 252.536L289.566 248L293.568 248.764L288.951 257.828L283.173 254.45L276.787 257.828L273.251 248.764L276.171 248Z" fill="#212421"/>
<path opacity="0.2" d="M276.171 248L283.173 252.536L289.566 248L293.568 248.764L288.951 257.828L283.173 254.45L276.787 257.828L273.251 248.764L276.171 248Z" fill="white"/>
<path d="M239.768 322.998L253.983 324.802L253.502 327.849L239.768 326.14V322.998Z" fill="#212421"/>
<path opacity="0.2" d="M239.768 322.998L253.983 324.802L253.502 327.849L239.768 326.14V322.998Z" fill="white"/>
<path d="M325.891 323.25L311.62 324.55L311.991 327.613L326.104 326.361L325.891 323.25Z" fill="#212421"/>
<path opacity="0.2" d="M325.891 323.25L311.62 324.55L311.991 327.613L326.104 326.361L325.891 323.25Z" fill="white"/>
<path opacity="0.7" d="M284.096 271.278C284.096 271.916 283.583 272.428 282.943 272.428C282.304 272.428 281.791 271.916 281.791 271.278C281.791 270.64 282.304 270.128 282.943 270.128C283.583 270.128 284.096 270.64 284.096 271.278Z" fill="white"/>
<path opacity="0.7" d="M284.562 288.988C284.562 289.626 284.049 290.138 283.409 290.138C282.77 290.138 282.257 289.626 282.257 288.988C282.257 288.35 282.77 287.838 283.409 287.838C284.049 287.838 284.562 288.35 284.562 288.988Z" fill="white"/>
<path opacity="0.7" d="M285.248 307.344C285.248 307.981 284.735 308.493 284.096 308.493C283.456 308.493 282.943 307.981 282.943 307.344C282.943 306.706 283.456 306.194 284.096 306.194C284.735 306.194 285.248 306.706 285.248 307.344Z" fill="white"/>
<path opacity="0.7" d="M285.248 326.101C285.248 326.739 284.735 327.251 284.096 327.251C283.456 327.251 282.943 326.739 282.943 326.101C282.943 325.463 283.456 324.951 284.096 324.951C284.735 324.951 285.248 325.463 285.248 326.101Z" fill="white"/>
<path d="M337.683 244.158L330.54 248.576L330.492 273.231L344.763 273.255L344.811 248.599L337.683 244.158ZM337.643 246.512C338.433 246.512 339.08 247.158 339.08 247.954C339.08 248.749 338.433 249.387 337.643 249.387C336.846 249.387 336.207 248.741 336.207 247.946C336.207 247.158 336.854 246.512 337.651 246.512H337.643Z" fill="white"/>
<path d="M338.938 231.055C339.017 231.165 339.08 231.299 339.12 231.456V231.48C339.151 231.582 339.151 231.692 339.143 231.803L337.691 246.709L337.067 231.716C337.067 231.622 337.067 231.535 337.091 231.44C337.138 231.251 337.217 231.094 337.328 230.976" stroke="#707070" stroke-width="0.75" stroke-linecap="round" stroke-linejoin="round"/>
<path d="M334.668 263.396C333.816 263.136 332.332 263.104 331.313 263.443C331.748 263.585 332.032 264.002 332.19 264.427C332.347 264.852 332.995 266.774 335.134 266.884C335.552 266.908 336.018 266.986 336.365 266.766C335.868 265.916 335.165 265.16 334.352 264.616C335.244 265.057 336.136 265.608 336.91 266.238C336.855 265.947 337.841 264.364 334.676 263.404L334.668 263.396Z" fill="#8AA57A"/>
<path d="M337.96 266.38C338.157 266.79 338.56 267.034 338.97 267.073C339.373 267.112 339.783 266.963 340.139 266.742C341.591 265.868 342.491 263.915 344.006 263.199C342.08 263.041 339.981 263.498 338.741 264.663C337.96 265.404 338.055 265.868 337.96 266.38Z" fill="#8AA57A"/>
<path d="M337.51 268.506C337.707 267.278 338.236 266.097 339.041 265.136C339.041 264.955 338.915 264.703 338.568 265.16C337.968 265.963 337.155 267.002 337.028 267.404C337.028 267.404 337.178 267.916 337.51 268.506Z" fill="#8AA57A"/>
<path d="M89.7658 218.582H69.0399L50.9348 221.685C48.5628 221.917 46.7299 223.655 47.0285 225.4L55.8944 260.847L50.8436 280.928L77.7731 303.111L98.4658 288.242L89.8736 260.847L92.7017 249.18C93.1247 245.854 93.1081 242.478 92.6603 239.152L89.7824 218.574L89.7658 218.582Z" fill="#212421"/>
<path d="M100.274 293.678L104.371 303.119L124.135 441.826L97.1638 442.107L74.1654 301.77C74.1654 301.77 75.3265 287.655 100.282 293.67L100.274 293.678Z" fill="#CA8159"/>
<path d="M96.6901 439.087L98.7303 452.044C98.7303 454.749 100.936 456.942 103.648 456.942L145.258 457C144.379 452.151 141.293 447.99 136.906 445.731L124.009 439.078H96.6901V439.087Z" fill="#8AA57A"/>
<path d="M95.4636 278.71L50.8354 280.936L48.2975 293.926L78.8182 307.694L102.521 300.67L95.4636 278.71Z" fill="#CA8159"/>
<path d="M89.7655 218.582L114.887 219.658L132.884 193.793L147.688 202.547L124.284 237.298L84.5073 234.965L89.7655 218.582Z" fill="#212421"/>
<path d="M74.6043 298.071L77.2666 308.174L65.7716 447.882L40.5671 442.835L47.3596 300.388C47.3596 300.388 51.5313 286.852 74.6043 298.071Z" fill="#CA8159"/>
<path d="M42.4836 401.324C67.2319 404.054 94.2195 405.27 118.396 401.382C117.367 392.942 110.077 333.774 104.371 303.127C101.252 286.322 95.4635 278.71 95.4635 278.71L69.8361 279.852L50.545 280.845C42.0025 307.628 44.4077 334.105 44.7229 355.535C44.7229 355.535 43.2134 379.968 42.4753 401.324H42.4836Z" fill="#905662"/>
<path d="M56.6148 252.15C56.6148 252.15 64.8587 235.511 57.5935 234.65L56.6148 252.15Z" fill="#212421"/>
<path d="M76.5872 316.581L77.7649 303.127L84.292 303.276L76.5872 316.581Z" fill="#212421"/>
<path d="M55.7036 263.08L57.9678 236.008" stroke="#212421" stroke-width="0.75" stroke-linecap="round" stroke-linejoin="round"/>
<path d="M147.689 202.547C150.484 198.956 152.673 195.605 153.793 193.653C154.88 191.758 139.097 184.75 137.645 186.595C136.318 188.266 134.568 191.063 132.893 193.793L147.697 202.547H147.689Z" fill="#CA8159"/>
<path d="M150.218 177.725C150.218 177.725 150.475 175.88 147.539 174.97C145.474 174.324 144.446 176.153 143.89 177.427C143.558 178.188 143.484 179.132 144.081 179.727C144.579 180.224 145.201 180.604 145.889 180.819C145.441 181.713 144.96 182.474 144.504 183.368C145.4 183.864 146.411 184.245 147.307 184.733C149.397 182.143 149.754 179.843 150.227 177.725H150.218Z" fill="#CA8159"/>
<path d="M150.352 198.981C151.115 198.195 157.709 192.486 159.583 188.059C160.57 185.718 162.03 180.662 160.678 179.893C159.45 179.181 158.447 180.894 158.447 180.894C158.447 180.894 159.832 176.178 158.107 175.21C156.373 174.241 155.138 176.144 155.138 176.144C155.138 176.144 155.793 172.984 153.993 172.14C152.193 171.296 151.157 174.548 151.157 174.548L149.49 180.273C149.299 180.943 149.05 181.589 148.751 182.218L147.557 184.716L143.377 182.698L137.572 190.723L150.369 198.981H150.352Z" fill="#CA8159"/>
<path d="M145.956 177.907C147.748 179.686 144.547 183.93 142.697 185.809C142.697 185.809 146.844 189.913 145.21 193.454C143.576 196.995 134.354 191.443 134.354 191.443C134.354 191.443 135.697 186.578 136.767 184.568C137.837 182.557 144.58 176.533 145.948 177.907" fill="#CA8159"/>
<path d="M156.902 184.584C156.206 186.305 155.327 187.952 154.273 189.491" stroke="#212421" stroke-width="0.75" stroke-linecap="round" stroke-linejoin="round"/>
<path d="M154.355 179.007C153.443 181.87 152.489 184.22 151.146 186.909" stroke="#212421" stroke-width="0.75" stroke-linecap="round" stroke-linejoin="round"/>
<path d="M150.234 178.048C149.637 180.596 148.883 182.466 147.547 184.717" stroke="#212421" stroke-width="0.75" stroke-linecap="round" stroke-linejoin="round"/>
<path d="M154.912 189.946C152.192 187.662 149.206 185.693 146.03 184.096" stroke="#212421" stroke-width="0.75" stroke-linecap="round" stroke-linejoin="round"/>
<path d="M145.217 193.454C146.851 189.913 142.704 185.809 142.704 185.809C144.554 183.93 147.747 179.686 145.964 177.907C145.964 177.907 145.491 177.303 144.305 177.907C143.119 178.511 141.634 179.669 141.634 179.669" stroke="#212421" stroke-width="0.75" stroke-linecap="round" stroke-linejoin="round"/>
<path d="M147.472 179.462C147.962 179.462 148.451 179.239 148.725 178.908" stroke="#212421" stroke-width="0.75" stroke-linecap="round" stroke-linejoin="round"/>
<path d="M148.128 177.642C148.028 178.676 147.481 179.942 146.312 180.364" stroke="#212421" stroke-width="0.75" stroke-linecap="round" stroke-linejoin="round"/>
<path d="M91.9443 234.651L90.891 226.906" stroke="#212421" stroke-width="0.75" stroke-linecap="round" stroke-linejoin="round"/>
<path d="M101.682 235.974L91.4141 230.778L92.0444 235.404L101.682 235.974Z" fill="#212421"/>
<path d="M59.3678 220.237C59.3678 220.237 66.2018 228.842 73.069 227.709C79.9444 226.575 79.339 218.648 79.339 218.648L69.8344 218.582L59.3595 220.237H59.3678Z" fill="#CA8159"/>
<path d="M63.6962 209.655L63.9616 219.981L67.6854 221.429C70.696 222.604 73.2007 221.909 75.5146 219.65L75.4151 216.001L75.2492 209.324L63.6962 209.646V209.655Z" fill="#CA8159"/>
<path d="M62.777 209.655C62.777 209.655 71.618 216.382 75.4248 216.009L75.2589 209.332L62.777 209.655Z" fill="#212421"/>
<path d="M59.4441 201.91C58.7436 194.885 63.1678 188.694 69.3256 188.083C75.4834 187.472 81.0431 192.672 81.7435 199.698C82.4439 206.723 78.0198 212.914 71.862 213.525C65.7042 214.136 60.1445 208.936 59.4441 201.91Z" fill="#CA8159"/>
<path d="M76.2521 198.013C75.3813 199.362 75.5803 201.282 76.6668 202.457C76.8327 202.639 76.8576 202.928 76.7332 203.143C76.3517 203.789 75.6384 204.36 74.95 204.434" stroke="black" stroke-width="0.75" stroke-linecap="round" stroke-linejoin="round"/>
<path d="M74.0039 196.549C73.8629 196.061 69.5668 194.447 67.2114 196.466C66.9958 196.648 66.7387 196.797 66.6392 197.062C66.5396 197.327 66.6557 197.682 66.9294 197.749C69.1355 196.64 71.6237 196.276 74.0371 196.789C74.0371 196.723 74.0371 196.64 74.0039 196.549Z" fill="#212421"/>
<path d="M76.4345 197.376C77.3883 196.665 79.6856 195.746 81.2116 196.4C81.4439 196.499 81.6844 196.623 81.8503 196.855C82.0161 197.079 82.0576 197.434 81.8668 197.534C79.8266 196.888 77.8278 196.988 76.194 197.873C76.1442 197.765 76.2023 197.534 76.4345 197.368V197.376Z" fill="#212421"/>
<path d="M71.1436 199.759C71.2431 200.421 71.0275 201.009 70.6792 201.058C70.3226 201.108 69.9576 200.611 69.8581 199.949C69.7586 199.287 69.9742 198.7 70.3225 198.65C70.6792 198.601 71.0441 199.097 71.1436 199.759Z" fill="#212421"/>
<path d="M79.3135 199.85C79.4131 200.512 79.1974 201.1 78.8491 201.149C78.4925 201.199 78.1276 200.702 78.028 200.04C77.9285 199.379 78.1441 198.791 78.4925 198.741C78.8491 198.692 79.214 199.188 79.3135 199.85Z" fill="#212421"/>
<path d="M61.9534 197.839C61.3645 200.231 60.6679 202.655 60.8338 205.112C61.0079 207.57 62.2603 210.126 64.541 211.07C61.6548 212.41 54.1739 203.822 52.706 197.74C52.706 197.74 52.7723 191.51 54.854 189.814C56.6123 188.382 60.2781 187.728 61.97 189.698C63.6287 191.634 62.4759 195.688 61.9534 197.839Z" fill="#212421"/>
<path d="M59.2676 204.74C59.5662 204.798 59.8067 204.922 60.0057 205.112C60.1633 205.063 60.3043 205.013 60.4453 204.947C60.1633 204.608 59.7901 204.376 59.3091 204.293C59.0188 204.244 58.9939 204.699 59.2759 204.748L59.2676 204.74Z" fill="#CA8159"/>
<path d="M82.8295 189.358C82.788 191.386 81.4776 193.33 79.6116 194.124C77.8118 194.894 75.7467 194.612 73.8143 194.248C71.8902 193.884 69.8831 193.454 67.9921 193.959C66.0929 194.464 64.3761 196.251 64.7161 198.179C64.7161 198.179 58.8276 199.858 54.1998 193.454C52.4249 190.997 56.3727 182.441 64.9484 180.894C69.7753 180.017 82.9954 181.01 82.8295 189.358Z" fill="#212421"/>
<path d="M46.8187 191.303C47.4739 193.363 50.0781 195.829 52.6409 196.176C53.7937 191.626 54.5069 188.399 57.4844 184.94C48.5438 180.638 45.923 188.49 46.8187 191.311V191.303Z" fill="#212421"/>
<path d="M78.5006 198.741C78.5006 198.741 79.4294 198.774 79.7197 198.377C79.7197 198.377 79.388 199.163 78.8987 199.287C78.4093 199.411 78.5006 198.741 78.5006 198.741Z" fill="#212421"/>
<path d="M70.5054 198.634C70.5054 198.634 71.4343 198.667 71.7246 198.27C71.7246 198.27 71.3929 199.056 70.9035 199.18C70.4142 199.304 70.5054 198.634 70.5054 198.634Z" fill="#212421"/>
<path d="M69.146 204.186C69.5607 205.021 71.1614 207.503 74.2715 206.436" stroke="black" stroke-width="0.75" stroke-linecap="round" stroke-linejoin="round"/>
<path d="M77.7607 303.127L74.1613 344.423" stroke="#212421" stroke-width="0.75" stroke-miterlimit="10"/>
<path d="M40.7796 439.111L40 452.102C40 454.807 42.2061 457 44.9181 457H89.5215C88.6424 452.151 85.5571 447.99 81.1698 445.731L66.7637 439.078L40.7796 439.103V439.111Z" fill="#8AA57A"/>
<path d="M57.4572 209.382C57.905 210.234 58.8008 210.739 59.7048 210.201C61.1645 209.34 61.604 206.312 60.4429 204.938C60.1609 204.599 59.7877 204.368 59.3067 204.285C59.0164 204.235 58.9915 204.69 59.2735 204.74C59.5721 204.798 59.8126 204.922 60.0116 205.112C61.1147 206.163 60.7083 208.993 59.5887 209.746C58.4524 210.507 57.7309 209.191 57.565 208.232C57.3991 207.222 57.6314 206.171 58.2036 205.336C58.2202 205.302 58.2368 205.269 58.2451 205.236C58.1041 205.203 57.9631 205.154 57.8221 205.096C57.001 206.32 56.7605 208.066 57.4655 209.398L57.4572 209.382Z" fill="#628DAD"/>
<path d="M58.7334 181.837L49.5357 199.585L49.1293 199.221L57.3732 181.34C57.3732 181.34 58.1694 180.405 58.7334 181.837Z" fill="#212421"/>
<path d="M56.6023 179.702C56.6023 180.877 57.5561 181.829 58.7338 181.829C59.9115 181.829 60.8652 180.877 60.8652 179.702C60.8652 178.527 59.9115 177.576 58.7338 177.576C57.5561 177.576 56.6023 178.527 56.6023 179.702Z" fill="#628DAD"/>
<path d="M55.3415 200.826C55.5571 202.34 56.2289 203.821 57.2988 204.756C57.4564 204.897 57.6306 205.005 57.813 205.079C57.954 205.137 58.0867 205.187 58.236 205.22C58.8166 205.352 59.4552 205.278 60.0026 205.104C59.8118 204.922 59.563 204.789 59.2644 204.731C58.9824 204.682 59.0073 204.235 59.2976 204.276C59.7786 204.367 60.1518 204.599 60.4338 204.93C60.5333 204.889 60.6163 204.839 60.6992 204.789C60.4753 202.746 60.2265 200.503 59.9611 198.046C59.0654 196.921 57.1495 196.35 56.2704 197.094C55.3498 197.872 55.1342 199.37 55.3415 200.81V200.826Z" fill="#CA8159"/>
<path d="M145.625 181.547C145.5 181.796 145.368 182.044 145.227 182.284C145.476 182.151 145.641 181.903 145.625 181.547Z" fill="#212421"/>
<path d="M113.164 213.469C117.518 210.771 121.864 208.066 126.209 205.36C129.203 203.507 132.189 201.645 135.175 199.792C135.789 199.411 138.02 198.087 138.658 197.541C138.932 197.715 139.479 197.938 139.678 198.079C140.682 198.766 141.818 199.312 142.863 199.924C145.957 201.711 149.034 203.499 152.127 205.286C156.374 207.735 160.62 210.201 164.866 212.658C165.936 213.279 166.882 211.599 165.803 210.987C157.103 205.948 148.403 200.917 139.703 195.878C139.703 195.307 139.687 194.745 139.678 194.182C139.645 192.014 139.62 189.846 139.579 187.679C139.579 187.124 139.123 186.777 138.6 186.735C137.58 186.661 136.684 186.355 135.946 185.883C133.342 184.27 132.571 180.703 134.934 178.105C137.398 175.391 140.972 176.351 142.706 178.858C143.319 178.461 143.892 178.155 144.389 177.99C142.067 174.382 137.033 172.984 133.458 176.674C129.817 180.414 131.484 185.502 135.308 187.637C136.029 188.051 136.825 188.349 137.68 188.514C137.704 190.161 137.738 191.799 137.754 193.446C137.771 194.265 137.779 195.084 137.796 195.903C129.262 201.207 120.719 206.51 112.168 211.822C111.123 212.476 112.11 214.114 113.164 213.461V213.469Z" fill="#212421"/>
<path d="M110.28 303.59C110.28 303.59 107.178 346.74 105.403 366.068C115.894 345.689 170.417 382.12 188.497 366.258C188.464 366.258 177.259 331.995 170.599 304.327C164.902 280.638 162.704 259.316 162.704 259.316L178.072 259.043C178.072 259.043 173.768 222.463 171.661 215.372C169.704 208.794 152.843 202.266 152.843 202.266C152.843 202.266 140.775 210.921 122.562 202.729C122.562 202.729 104.283 210.846 103.454 219.484C102.624 228.131 99.0084 260.275 99.0084 260.275L111.723 261.715L110.28 303.59Z" fill="#8AA57A"/>
<path d="M179.184 328.553C179.184 328.595 179.225 328.71 179.267 328.884L179.184 328.553Z" fill="#628DAD"/>
<path opacity="0.7" d="M152.843 202.266C152.843 202.266 154.477 202.837 156.799 203.805C155.464 205.187 150.156 212.228 150.156 212.228L139.175 209.191L129.106 212.228C129.106 212.228 121.119 206.312 118.781 204.624C121.003 203.433 122.563 202.737 122.563 202.737C140.775 210.929 152.843 202.266 152.843 202.266Z" fill="white"/>
<path opacity="0.2" d="M162.803 234.783L167.033 259.092L162.704 259.324L162.803 234.783Z" fill="black"/>
<path d="M182.203 256.461L183.239 261.401L162.878 262.501L162.804 257.561L182.203 256.461Z" fill="#8AA57A"/>
<path opacity="0.2" d="M113.48 220.411C116.657 220.411 119.137 223.125 118.871 226.285C118.141 235.197 113.422 248.865 113.422 248.865L113.48 220.411Z" fill="black"/>
<path d="M112.942 257.503L113.017 262.294L96.844 262.551L97.4079 257.743L112.942 257.503Z" fill="#8AA57A"/>
<path opacity="0.7" d="M182.203 256.461L183.239 261.401L162.878 262.501L162.804 257.561L182.203 256.461Z" fill="white"/>
<path opacity="0.7" d="M112.942 257.503L113.017 262.294L96.844 262.551L97.4079 257.743L112.942 257.503Z" fill="white"/>
<path d="M183.09 359.928C187.527 363.13 190.952 367.565 186.905 371.123C186.847 371.181 186.78 371.231 186.714 371.289C182.094 375.244 169.82 376.278 150.454 372.008C138.578 369.394 130.085 371.388 125.424 373.233C122.529 374.375 119.444 375.012 116.317 374.987C107.783 374.921 104.233 371.62 105.419 366.068C109.243 348.146 167.979 349.023 183.098 359.928H183.09Z" fill="#8AA57A"/>
<path d="M138.975 209.696L146.788 214.528L146.838 241.51L131.221 241.543L131.171 214.561L138.975 209.696ZM139.025 212.278C138.154 212.278 137.458 212.989 137.458 213.858C137.458 214.727 138.163 215.43 139.034 215.43C139.904 215.43 140.609 214.727 140.609 213.85C140.609 212.981 139.904 212.278 139.025 212.278Z" fill="white"/>
<path d="M137.608 195.357C137.516 195.481 137.45 195.63 137.409 195.795V195.82C137.375 195.936 137.367 196.052 137.384 196.176L138.968 212.493L140.195 196.102C140.195 196.002 140.195 195.903 140.17 195.804C140.121 195.597 140.029 195.423 139.913 195.291" stroke="#628DAD" stroke-linecap="round" stroke-linejoin="round"/>
<path d="M142.277 230.754C143.214 230.464 144.84 230.439 145.951 230.803C145.478 230.96 145.172 231.416 144.989 231.887C144.815 232.35 144.11 234.452 141.763 234.576C141.307 234.601 140.801 234.684 140.411 234.444C140.95 233.517 141.721 232.681 142.617 232.086C141.638 232.566 140.668 233.178 139.822 233.865C139.88 233.55 138.802 231.813 142.269 230.762L142.277 230.754Z" fill="#628DAD"/>
<path d="M138.679 234.013C138.463 234.468 138.024 234.733 137.576 234.775C137.128 234.816 136.688 234.651 136.29 234.411C134.706 233.451 133.711 231.316 132.06 230.53C134.167 230.356 136.473 230.861 137.816 232.135C138.67 232.946 138.571 233.451 138.67 234.013H138.679Z" fill="#628DAD"/>
<path d="M139.176 236.347C138.96 234.998 138.38 233.707 137.5 232.665C137.5 232.466 137.641 232.185 138.015 232.689C138.67 233.566 139.557 234.708 139.698 235.147C139.698 235.147 139.532 235.709 139.176 236.355V236.347Z" fill="#628DAD"/>
<path d="M140.394 223.348L140.908 223.034L141.837 224.556C141.837 224.556 141.845 224.565 141.845 224.573L141.912 224.68C141.912 224.68 142.409 225.367 142.177 225.955L143.264 224.126C143.264 224.126 143.471 223.745 143.048 222.943L142.55 222.049L142.907 221.834L141.995 221.735L141.082 221.644L140.742 222.496L140.402 223.348H140.394Z" fill="#628DAD"/>
<path d="M140.195 224.598V226.493L141.365 226.476C141.365 226.476 141.962 226.402 142.178 225.963C142.41 225.376 141.912 224.689 141.912 224.689L141.846 224.581C141.846 224.581 141.846 224.573 141.837 224.565L140.195 224.598Z" fill="#628DAD"/>
<path d="M138.029 224.117L138.046 224.721L136.263 224.763H136.246H136.122C136.122 224.763 135.276 224.854 134.886 224.357L135.931 226.211C135.931 226.211 136.155 226.583 137.067 226.616L138.087 226.633V227.046L138.635 226.31L139.174 225.565L138.602 224.846L138.029 224.126V224.117Z" fill="#628DAD"/>
<path d="M137.05 223.323L135.408 222.38L134.835 223.398C134.835 223.398 134.603 223.952 134.877 224.357C135.267 224.854 136.113 224.763 136.113 224.763H136.237C136.237 224.763 136.245 224.763 136.254 224.763L137.042 223.323H137.05Z" fill="#628DAD"/>
<path d="M138.677 221.693L138.146 221.404L139.009 219.84V219.823L139.067 219.716C139.067 219.716 139.415 218.938 140.037 218.847L137.906 218.822C137.906 218.822 137.474 218.831 136.985 219.6L136.463 220.477L136.098 220.278L136.471 221.114L136.852 221.95L137.765 221.817L138.669 221.685L138.677 221.693Z" fill="#628DAD"/>
<path d="M139.865 221.247L141.507 220.303L140.91 219.302C140.91 219.302 140.545 218.822 140.055 218.864C139.425 218.955 139.085 219.732 139.085 219.732L139.027 219.84C139.027 219.84 139.027 219.848 139.027 219.857L139.881 221.255L139.865 221.247Z" fill="#628DAD"/>
<path opacity="0.2" d="M140.195 224.598V226.493L141.365 226.476C141.365 226.476 141.962 226.402 142.178 225.963C142.41 225.376 141.912 224.689 141.912 224.689L141.846 224.581C141.846 224.581 141.846 224.573 141.837 224.565L140.195 224.598Z" fill="#628DAD"/>
<path opacity="0.2" d="M137.052 223.323L135.41 222.38L134.837 223.398C134.837 223.398 134.605 223.952 134.879 224.358C135.269 224.854 136.115 224.763 136.115 224.763H136.239C136.239 224.763 136.247 224.763 136.256 224.763L137.043 223.323H137.052Z" fill="#628DAD"/>
<path opacity="0.2" d="M139.865 221.247L141.507 220.303L140.91 219.302C140.91 219.302 140.545 218.822 140.055 218.864C139.425 218.955 139.085 219.732 139.085 219.732L139.027 219.84C139.027 219.84 139.027 219.848 139.027 219.857L139.881 221.255L139.865 221.247Z" fill="#628DAD"/>
<path d="M122.473 262.27L114.27 270.841C112.579 272.604 108.838 275.243 106.408 275.458L90.3516 275.5L89.8539 259.688L101.465 254.666C105.454 254.086 111.534 253.64 111.534 253.64C114.76 258.852 102.908 260.739 102.593 260.888C105.969 260.855 112.106 260.722 113.632 259.58C115.365 258.281 117.488 257.636 119.496 257.33C122.274 256.916 124.165 260.036 122.49 262.278L122.473 262.27Z" fill="#CA8159"/>
<path d="M44.4628 223.514C41.9 225.326 37.7615 231.316 43.8988 248.882L49.2565 268.889C50.4674 272.744 54.0088 275.4 58.0561 275.491L90.418 275.549L89.8374 259.688L64.55 260.06L55.5265 227.146C54.0005 222.537 48.4354 220.709 44.4628 223.522V223.514Z" fill="#212421"/>
<path d="M102.884 260.921C106.259 260.888 112.397 260.755 113.923 259.614C115.656 258.314 117.779 257.669 119.786 257.363C121.478 257.106 122.847 258.174 123.27 259.556" stroke="black" stroke-width="0.75" stroke-linecap="round" stroke-linejoin="round"/>
<path d="M89.9046 259.663L101.756 254.699C105.746 254.12 111.825 253.673 111.825 253.673C115.051 258.886 103.199 260.772 102.884 260.921" stroke="black" stroke-width="0.75" stroke-linecap="round" stroke-linejoin="round"/>
<path d="M104.908 267.275C107.495 266.721 110.083 266.175 112.671 265.621C116.428 264.818 119.314 261.79 122.59 259.787" stroke="black" stroke-width="0.75" stroke-linecap="round" stroke-linejoin="round"/>
<path d="M106.45 271.603C106.45 271.603 110.821 271.073 112.911 270.386C115.839 269.427 118.145 266.953 120.4 264.859" stroke="black" stroke-width="0.75" stroke-linecap="round" stroke-linejoin="round"/>
<path d="M89.7129 259.737L64.5582 260.06L57.5915 234.65" stroke="#212421" stroke-width="0.75" stroke-linecap="round" stroke-linejoin="round"/>
<path d="M52.2507 273.547C53.7933 274.705 55.6926 275.392 57.7162 275.433L90.0781 275.491" stroke="black" stroke-width="0.75" stroke-linecap="round" stroke-linejoin="round"/>
<path d="M64.6504 232.629V267.191" stroke="#212421" stroke-width="0.75" stroke-miterlimit="10"/>
<path d="M111.979 231.487L112.105 267.135" stroke="#212421" stroke-width="0.75" stroke-miterlimit="10"/>
<path d="M390 324C390 324 313.118 334.511 258.82 386.811C177.31 465.328 88.6496 464.02 0 399.245V458.703H390V324Z" fill="url(#paint0_linear_2071_32548)"/>
<path d="M390 458.703V375.908C390 375.908 310.432 356.16 244.964 393.597C185.739 427.46 161.448 458.703 124 458.703H390Z" fill="url(#paint1_linear_2071_32548)"/>
<path d="M389 458.703V384.42C389 384.42 266.42 383.881 234.642 458.703H389Z" fill="url(#paint2_linear_2071_32548)"/>
<path d="M307.524 235.055C307.547 234.755 307.618 234.464 307.705 234.188H306.245C306.174 234.472 306.127 234.755 306.095 235.055C306.016 235.968 307.445 235.96 307.524 235.055Z" fill="#212421"/>
<path d="M331.29 257.214C324.889 253.371 318.479 249.536 312.078 245.693V240.205C316.056 239.354 318.337 234.614 315.077 231.362C312.788 229.078 309.781 229.519 307.887 231.346H310.768C311.849 231.125 313.025 231.409 313.988 232.44C316.277 234.881 314.754 238.59 311.36 238.89C310.973 238.921 310.649 239.189 310.649 239.598V245.685C304.248 249.528 297.838 253.363 291.437 257.206C290.648 257.678 291.366 258.907 292.155 258.434C295.281 256.56 298.407 254.686 301.532 252.812C303.806 251.45 306.079 250.087 308.352 248.725C309.126 248.26 309.962 247.843 310.697 247.315C310.847 247.205 311.249 247.032 311.446 246.898C311.928 247.292 313.601 248.26 314.059 248.528C316.301 249.875 318.542 251.213 320.784 252.56C324.044 254.513 327.304 256.474 330.564 258.427C331.353 258.899 332.071 257.671 331.282 257.198L331.29 257.214Z" fill="#707070"/>
<path d="M288.563 257.828L294.081 253.182C294.081 253.182 301.721 259.757 311.359 258.718C320.989 257.679 328.637 253.182 328.637 253.182L333.247 256.592C333.247 256.592 326.633 266.892 334.36 279.452L333.2 318.006H290.182L288.477 278.593C288.477 278.593 297.443 267.616 288.571 257.836L288.563 257.828Z" fill="#CA8159"/>
<path opacity="0.5" d="M334.162 286.082L334.068 285.996L326.498 293.547L318.928 285.996L311.359 293.547L303.789 285.996L296.219 293.547L288.8 286.145L289.108 293.146L296.219 300.249L303.789 292.697L311.359 300.249L318.928 292.697L326.498 300.249L333.957 292.807L334.162 286.082Z" fill="white"/>
<path opacity="0.7" d="M333.958 292.807L326.499 300.249L318.929 292.697L311.359 300.249L303.79 292.697L296.22 300.249L289.108 293.146L289.408 300.146L296.22 306.942L303.79 299.39L311.359 306.942L318.929 299.39L326.499 306.942L333.753 299.713L333.958 292.807Z" fill="white"/>
<path opacity="0.9" d="M333.752 299.713L326.499 306.942L318.929 299.39L311.359 306.942L303.79 299.39L296.22 306.942L289.408 300.146L289.708 307.147L296.22 313.643L303.79 306.092L311.359 313.643L318.929 306.092L326.499 313.643L333.547 306.619L333.752 299.713Z" fill="white"/>
<path d="M386.986 422V429.918" stroke="#4F6797" stroke-width="3" stroke-miterlimit="10"/>
<path d="M390.973 425.959H383" stroke="#4F6797" stroke-width="3" stroke-miterlimit="10"/>
<path d="M367.826 191.539L372.874 201.116" stroke="#25375C" stroke-width="3" stroke-miterlimit="10"/>
<path d="M375.165 193.784L365.521 198.867" stroke="#25375C" stroke-width="3" stroke-miterlimit="10"/>
<path d="M5.44531 333V343.826" stroke="#1F2E4A" stroke-width="3" stroke-miterlimit="10"/>
<path d="M10.9007 338.417H0" stroke="#1F2E4A" stroke-width="3" stroke-miterlimit="10"/>
<g opacity="0.9">
<path d="M46.6 38V59H44.5V41.18L37.15 53.48H36.85L29.5 41.18V59H27.4V38H30.01L37 49.7L43.99 38H46.6ZM63.9941 44H65.9741V59H63.9941V56.06C62.6141 58.26 60.5941 59.36 57.9341 59.36C55.7941 59.36 53.9641 58.6 52.4441 57.08C50.9441 55.56 50.1941 53.7 50.1941 51.5C50.1941 49.3 50.9441 47.44 52.4441 45.92C53.9641 44.4 55.7941 43.64 57.9341 43.64C60.5941 43.64 62.6141 44.74 63.9941 46.94V44ZM53.8841 55.73C55.0241 56.87 56.4241 57.44 58.0841 57.44C59.7441 57.44 61.1441 56.87 62.2841 55.73C63.4241 54.57 63.9941 53.16 63.9941 51.5C63.9941 49.84 63.4241 48.44 62.2841 47.3C61.1441 46.14 59.7441 45.56 58.0841 45.56C56.4241 45.56 55.0241 46.14 53.8841 47.3C52.7441 48.44 52.1741 49.84 52.1741 51.5C52.1741 53.16 52.7441 54.57 53.8841 55.73ZM82.2864 59H79.6464L72.1464 51.77V59H70.1664V38H72.1464V50.63L79.2864 44H81.9864L74.2464 51.2L82.2864 59ZM90.4265 43.64C92.6465 43.64 94.4365 44.43 95.7965 46.01C97.1765 47.57 97.8665 49.42 97.8665 51.56C97.8665 51.78 97.8465 52.09 97.8065 52.49H84.6365C84.8365 54.01 85.4765 55.22 86.5565 56.12C87.6565 57 89.0065 57.44 90.6065 57.44C91.7465 57.44 92.7265 57.21 93.5465 56.75C94.3865 56.27 95.0165 55.65 95.4365 54.89L97.1765 55.91C96.5165 56.97 95.6165 57.81 94.4765 58.43C93.3365 59.05 92.0365 59.36 90.5765 59.36C88.2165 59.36 86.2965 58.62 84.8165 57.14C83.3365 55.66 82.5965 53.78 82.5965 51.5C82.5965 49.26 83.3265 47.39 84.7865 45.89C86.2465 44.39 88.1265 43.64 90.4265 43.64ZM90.4265 45.56C88.8665 45.56 87.5565 46.03 86.4965 46.97C85.4565 47.89 84.8365 49.09 84.6365 50.57H95.8265C95.6265 48.99 95.0165 47.76 93.9965 46.88C92.9765 46 91.7865 45.56 90.4265 45.56ZM110.526 40.4C110.246 40.68 109.906 40.82 109.506 40.82C109.106 40.82 108.766 40.68 108.486 40.4C108.206 40.12 108.066 39.78 108.066 39.38C108.066 38.98 108.206 38.64 108.486 38.36C108.766 38.08 109.106 37.94 109.506 37.94C109.906 37.94 110.246 38.08 110.526 38.36C110.806 38.64 110.946 38.98 110.946 39.38C110.946 39.78 110.806 40.12 110.526 40.4ZM108.516 59V44H110.496V59H108.516ZM122.648 45.92H118.328V55.01C118.328 55.83 118.488 56.42 118.808 56.78C119.128 57.12 119.608 57.3 120.248 57.32C120.888 57.32 121.688 57.3 122.648 57.26V59C120.548 59.32 118.968 59.17 117.908 58.55C116.868 57.93 116.348 56.75 116.348 55.01V45.92H113.198V44H116.348V40.4L118.328 39.8V44H122.648V45.92ZM112.071 85.92H107.751V95.01C107.751 95.83 107.911 96.42 108.231 96.78C108.551 97.12 109.031 97.3 109.671 97.32C110.311 97.32 111.111 97.3 112.071 97.26V99C109.971 99.32 108.391 99.17 107.331 98.55C106.291 97.93 105.771 96.75 105.771 95.01V85.92H102.621V84H105.771V80.4L107.751 79.8V84H112.071V85.92ZM122.391 83.64C124.211 83.64 125.641 84.2 126.681 85.32C127.741 86.42 128.271 87.91 128.271 89.79V99H126.291V89.79C126.291 88.45 125.931 87.41 125.211 86.67C124.511 85.93 123.511 85.56 122.211 85.56C120.771 85.56 119.601 86.02 118.701 86.94C117.801 87.84 117.351 89.24 117.351 91.14V99H115.371V78H117.351V86.34C118.471 84.54 120.151 83.64 122.391 83.64ZM139.03 83.64C141.25 83.64 143.04 84.43 144.4 86.01C145.78 87.57 146.47 89.42 146.47 91.56C146.47 91.78 146.45 92.09 146.41 92.49H133.24C133.44 94.01 134.08 95.22 135.16 96.12C136.26 97 137.61 97.44 139.21 97.44C140.35 97.44 141.33 97.21 142.15 96.75C142.99 96.27 143.62 95.65 144.04 94.89L145.78 95.91C145.12 96.97 144.22 97.81 143.08 98.43C141.94 99.05 140.64 99.36 139.18 99.36C136.82 99.36 134.9 98.62 133.42 97.14C131.94 95.66 131.2 93.78 131.2 91.5C131.2 89.26 131.93 87.39 133.39 85.89C134.85 84.39 136.73 83.64 139.03 83.64ZM139.03 85.56C137.47 85.56 136.16 86.03 135.1 86.97C134.06 87.89 133.44 89.09 133.24 90.57H144.43C144.23 88.99 143.62 87.76 142.6 86.88C141.58 86 140.39 85.56 139.03 85.56ZM164.92 78C166.8 78 168.37 78.63 169.63 79.89C170.89 81.15 171.52 82.72 171.52 84.6C171.52 86.48 170.89 88.05 169.63 89.31C168.37 90.57 166.8 91.2 164.92 91.2H159.52V99H157.42V78H164.92ZM164.92 89.22C166.22 89.22 167.29 88.79 168.13 87.93C168.99 87.05 169.42 85.94 169.42 84.6C169.42 83.26 168.99 82.16 168.13 81.3C167.29 80.42 166.22 79.98 164.92 79.98H159.52V89.22H164.92ZM174.815 99V77.1H176.795V99H174.815ZM193.896 84H195.876V99H193.896V96.06C192.516 98.26 190.496 99.36 187.836 99.36C185.696 99.36 183.866 98.6 182.346 97.08C180.846 95.56 180.096 93.7 180.096 91.5C180.096 89.3 180.846 87.44 182.346 85.92C183.866 84.4 185.696 83.64 187.836 83.64C190.496 83.64 192.516 84.74 193.896 86.94V84ZM183.786 95.73C184.926 96.87 186.326 97.44 187.986 97.44C189.646 97.44 191.046 96.87 192.186 95.73C193.326 94.57 193.896 93.16 193.896 91.5C193.896 89.84 193.326 88.44 192.186 87.3C191.046 86.14 189.646 85.56 187.986 85.56C186.326 85.56 184.926 86.14 183.786 87.3C182.646 88.44 182.076 89.84 182.076 91.5C182.076 93.16 182.646 94.57 183.786 95.73ZM207.089 83.64C208.909 83.64 210.339 84.2 211.379 85.32C212.439 86.42 212.969 87.91 212.969 89.79V99H210.989V89.79C210.989 88.45 210.629 87.41 209.909 86.67C209.209 85.93 208.209 85.56 206.909 85.56C205.469 85.56 204.299 86.02 203.399 86.94C202.499 87.84 202.049 89.24 202.049 91.14V99H200.069V84H202.049V86.34C203.169 84.54 204.849 83.64 207.089 83.64ZM223.727 83.64C225.947 83.64 227.737 84.43 229.097 86.01C230.477 87.57 231.167 89.42 231.167 91.56C231.167 91.78 231.147 92.09 231.107 92.49H217.937C218.137 94.01 218.777 95.22 219.857 96.12C220.957 97 222.307 97.44 223.907 97.44C225.047 97.44 226.027 97.21 226.847 96.75C227.687 96.27 228.317 95.65 228.737 94.89L230.477 95.91C229.817 96.97 228.917 97.81 227.777 98.43C226.637 99.05 225.337 99.36 223.877 99.36C221.517 99.36 219.597 98.62 218.117 97.14C216.637 95.66 215.897 93.78 215.897 91.5C215.897 89.26 216.627 87.39 218.087 85.89C219.547 84.39 221.427 83.64 223.727 83.64ZM223.727 85.56C222.167 85.56 220.857 86.03 219.797 86.97C218.757 87.89 218.137 89.09 217.937 90.57H229.127C228.927 88.99 228.317 87.76 227.297 86.88C226.277 86 225.087 85.56 223.727 85.56ZM241.827 85.92H237.507V95.01C237.507 95.83 237.667 96.42 237.987 96.78C238.307 97.12 238.787 97.3 239.427 97.32C240.067 97.32 240.867 97.3 241.827 97.26V99C239.727 99.32 238.147 99.17 237.087 98.55C236.047 97.93 235.527 96.75 235.527 95.01V85.92H232.377V84H235.527V80.4L237.507 79.8V84H241.827V85.92Z" fill="white"/>
<path d="M140.468 59.42C138.388 59.42 136.638 58.96 135.218 58.04C133.798 57.1 132.798 55.83 132.218 54.23L135.758 52.16C136.578 54.3 138.188 55.37 140.588 55.37C141.748 55.37 142.598 55.16 143.138 54.74C143.678 54.32 143.948 53.79 143.948 53.15C143.948 52.41 143.618 51.84 142.958 51.44C142.298 51.02 141.118 50.57 139.418 50.09C138.478 49.81 137.678 49.53 137.018 49.25C136.378 48.97 135.728 48.6 135.068 48.14C134.428 47.66 133.938 47.06 133.598 46.34C133.258 45.62 133.088 44.78 133.088 43.82C133.088 41.92 133.758 40.41 135.098 39.29C136.458 38.15 138.088 37.58 139.988 37.58C141.688 37.58 143.178 38 144.458 38.84C145.758 39.66 146.768 40.81 147.488 42.29L144.008 44.3C143.168 42.5 141.828 41.6 139.988 41.6C139.128 41.6 138.448 41.8 137.948 42.2C137.468 42.58 137.228 43.08 137.228 43.7C137.228 44.36 137.498 44.9 138.038 45.32C138.598 45.72 139.658 46.16 141.218 46.64C141.858 46.84 142.338 47 142.658 47.12C142.998 47.22 143.448 47.39 144.008 47.63C144.588 47.85 145.028 48.06 145.328 48.26C145.648 48.46 146.008 48.73 146.408 49.07C146.808 49.41 147.108 49.76 147.308 50.12C147.528 50.48 147.708 50.92 147.848 51.44C148.008 51.94 148.088 52.49 148.088 53.09C148.088 55.03 147.378 56.57 145.958 57.71C144.558 58.85 142.728 59.42 140.468 59.42ZM160.508 44H164.378V59H160.508V57.32C159.568 58.72 158.078 59.42 156.038 59.42C154.398 59.42 153.038 58.87 151.958 57.77C150.898 56.67 150.368 55.15 150.368 53.21V44H154.238V52.73C154.238 53.73 154.508 54.5 155.048 55.04C155.588 55.56 156.308 55.82 157.208 55.82C158.208 55.82 159.008 55.51 159.608 54.89C160.208 54.27 160.508 53.34 160.508 52.1V44ZM171.375 48.26C171.375 48.66 171.635 48.99 172.155 49.25C172.695 49.49 173.345 49.71 174.105 49.91C174.865 50.09 175.625 50.33 176.385 50.63C177.145 50.91 177.785 51.39 178.305 52.07C178.845 52.75 179.115 53.6 179.115 54.62C179.115 56.16 178.535 57.35 177.375 58.19C176.235 59.01 174.805 59.42 173.085 59.42C170.005 59.42 167.905 58.23 166.785 55.85L170.145 53.96C170.585 55.26 171.565 55.91 173.085 55.91C174.465 55.91 175.155 55.48 175.155 54.62C175.155 54.22 174.885 53.9 174.345 53.66C173.825 53.4 173.185 53.17 172.425 52.97C171.665 52.77 170.905 52.52 170.145 52.22C169.385 51.92 168.735 51.45 168.195 50.81C167.675 50.15 167.415 49.33 167.415 48.35C167.415 46.87 167.955 45.71 169.035 44.87C170.135 44.01 171.495 43.58 173.115 43.58C174.335 43.58 175.445 43.86 176.445 44.42C177.445 44.96 178.235 45.74 178.815 46.76L175.515 48.56C175.035 47.54 174.235 47.03 173.115 47.03C172.615 47.03 172.195 47.14 171.855 47.36C171.535 47.58 171.375 47.88 171.375 48.26ZM189.745 47.72H186.355V53.96C186.355 54.48 186.485 54.86 186.745 55.1C187.005 55.34 187.385 55.48 187.885 55.52C188.385 55.54 189.005 55.53 189.745 55.49V59C187.085 59.3 185.205 59.05 184.105 58.25C183.025 57.45 182.485 56.02 182.485 53.96V47.72H179.875V44H182.485V40.97L186.355 39.8V44H189.745V47.72ZM203.404 44H207.274V59H203.404V57.23C202.244 58.69 200.614 59.42 198.514 59.42C196.514 59.42 194.794 58.66 193.354 57.14C191.934 55.6 191.224 53.72 191.224 51.5C191.224 49.28 191.934 47.41 193.354 45.89C194.794 44.35 196.514 43.58 198.514 43.58C200.614 43.58 202.244 44.31 203.404 45.77V44ZM196.264 54.56C197.044 55.34 198.034 55.73 199.234 55.73C200.434 55.73 201.424 55.34 202.204 54.56C203.004 53.76 203.404 52.74 203.404 51.5C203.404 50.26 203.004 49.25 202.204 48.47C201.424 47.67 200.434 47.27 199.234 47.27C198.034 47.27 197.044 47.67 196.264 48.47C195.484 49.25 195.094 50.26 195.094 51.5C195.094 52.74 195.484 53.76 196.264 54.56ZM212.704 42.2C212.064 42.2 211.504 41.97 211.024 41.51C210.564 41.03 210.334 40.47 210.334 39.83C210.334 39.19 210.564 38.63 211.024 38.15C211.504 37.67 212.064 37.43 212.704 37.43C213.364 37.43 213.924 37.67 214.384 38.15C214.864 38.63 215.104 39.19 215.104 39.83C215.104 40.47 214.864 41.03 214.384 41.51C213.924 41.97 213.364 42.2 212.704 42.2ZM210.784 59V44H214.654V59H210.784ZM226.536 43.58C228.176 43.58 229.526 44.13 230.586 45.23C231.666 46.33 232.206 47.85 232.206 49.79V59H228.336V50.27C228.336 49.27 228.066 48.51 227.526 47.99C226.986 47.45 226.266 47.18 225.366 47.18C224.366 47.18 223.566 47.49 222.966 48.11C222.366 48.73 222.066 49.66 222.066 50.9V59H218.196V44H222.066V45.68C223.006 44.28 224.496 43.58 226.536 43.58ZM246.91 44H250.78V59H246.91V57.23C245.75 58.69 244.12 59.42 242.02 59.42C240.02 59.42 238.3 58.66 236.86 57.14C235.44 55.6 234.73 53.72 234.73 51.5C234.73 49.28 235.44 47.41 236.86 45.89C238.3 44.35 240.02 43.58 242.02 43.58C244.12 43.58 245.75 44.31 246.91 45.77V44ZM239.77 54.56C240.55 55.34 241.54 55.73 242.74 55.73C243.94 55.73 244.93 55.34 245.71 54.56C246.51 53.76 246.91 52.74 246.91 51.5C246.91 50.26 246.51 49.25 245.71 48.47C244.93 47.67 243.94 47.27 242.74 47.27C241.54 47.27 240.55 47.67 239.77 48.47C238.99 49.25 238.6 50.26 238.6 51.5C238.6 52.74 238.99 53.76 239.77 54.56ZM263.02 43.58C265.04 43.58 266.76 44.35 268.18 45.89C269.62 47.41 270.34 49.28 270.34 51.5C270.34 53.72 269.62 55.6 268.18 57.14C266.76 58.66 265.04 59.42 263.02 59.42C260.92 59.42 259.3 58.69 258.16 57.23V59H254.29V38H258.16V45.77C259.3 44.31 260.92 43.58 263.02 43.58ZM259.33 54.56C260.11 55.34 261.1 55.73 262.3 55.73C263.5 55.73 264.49 55.34 265.27 54.56C266.07 53.76 266.47 52.74 266.47 51.5C266.47 50.26 266.07 49.25 265.27 48.47C264.49 47.67 263.5 47.27 262.3 47.27C261.1 47.27 260.11 47.67 259.33 48.47C258.55 49.25 258.16 50.26 258.16 51.5C258.16 52.74 258.55 53.76 259.33 54.56ZM273.069 59V37.1H276.939V59H273.069ZM283.751 53.09C284.271 54.97 285.681 55.91 287.981 55.91C289.461 55.91 290.581 55.41 291.341 54.41L294.461 56.21C292.981 58.35 290.801 59.42 287.921 59.42C285.441 59.42 283.451 58.67 281.951 57.17C280.451 55.67 279.701 53.78 279.701 51.5C279.701 49.24 280.441 47.36 281.921 45.86C283.401 44.34 285.301 43.58 287.621 43.58C289.821 43.58 291.631 44.34 293.051 45.86C294.491 47.38 295.211 49.26 295.211 51.5C295.211 52 295.161 52.53 295.061 53.09H283.751ZM283.691 50.09H291.341C291.121 49.07 290.661 48.31 289.961 47.81C289.281 47.31 288.501 47.06 287.621 47.06C286.581 47.06 285.721 47.33 285.041 47.87C284.361 48.39 283.911 49.13 283.691 50.09ZM301.811 54.86L299.561 63.2H296.411L297.611 54.86H301.811ZM34.12 99.42C32.04 99.42 30.29 98.96 28.87 98.04C27.45 97.1 26.45 95.83 25.87 94.23L29.41 92.16C30.23 94.3 31.84 95.37 34.24 95.37C35.4 95.37 36.25 95.16 36.79 94.74C37.33 94.32 37.6 93.79 37.6 93.15C37.6 92.41 37.27 91.84 36.61 91.44C35.95 91.02 34.77 90.57 33.07 90.09C32.13 89.81 31.33 89.53 30.67 89.25C30.03 88.97 29.38 88.6 28.72 88.14C28.08 87.66 27.59 87.06 27.25 86.34C26.91 85.62 26.74 84.78 26.74 83.82C26.74 81.92 27.41 80.41 28.75 79.29C30.11 78.15 31.74 77.58 33.64 77.58C35.34 77.58 36.83 78 38.11 78.84C39.41 79.66 40.42 80.81 41.14 82.29L37.66 84.3C36.82 82.5 35.48 81.6 33.64 81.6C32.78 81.6 32.1 81.8 31.6 82.2C31.12 82.58 30.88 83.08 30.88 83.7C30.88 84.36 31.15 84.9 31.69 85.32C32.25 85.72 33.31 86.16 34.87 86.64C35.51 86.84 35.99 87 36.31 87.12C36.65 87.22 37.1 87.39 37.66 87.63C38.24 87.85 38.68 88.06 38.98 88.26C39.3 88.46 39.66 88.73 40.06 89.07C40.46 89.41 40.76 89.76 40.96 90.12C41.18 90.48 41.36 90.92 41.5 91.44C41.66 91.94 41.74 92.49 41.74 93.09C41.74 95.03 41.03 96.57 39.61 97.71C38.21 98.85 36.38 99.42 34.12 99.42ZM56.0704 84H59.9404V99H56.0704V97.23C54.9104 98.69 53.2804 99.42 51.1804 99.42C49.1804 99.42 47.4604 98.66 46.0204 97.14C44.6004 95.6 43.8904 93.72 43.8904 91.5C43.8904 89.28 44.6004 87.41 46.0204 85.89C47.4604 84.35 49.1804 83.58 51.1804 83.58C53.2804 83.58 54.9104 84.31 56.0704 85.77V84ZM48.9304 94.56C49.7104 95.34 50.7004 95.73 51.9004 95.73C53.1004 95.73 54.0904 95.34 54.8704 94.56C55.6704 93.76 56.0704 92.74 56.0704 91.5C56.0704 90.26 55.6704 89.25 54.8704 88.47C54.0904 87.67 53.1004 87.27 51.9004 87.27C50.7004 87.27 49.7104 87.67 48.9304 88.47C48.1504 89.25 47.7604 90.26 47.7604 91.5C47.7604 92.74 48.1504 93.76 48.9304 94.56ZM73.3197 84H77.5797L71.8797 99H67.4697L61.7697 84H66.0297L69.6597 94.5L73.3197 84ZM82.1298 93.09C82.6498 94.97 84.0598 95.91 86.3598 95.91C87.8398 95.91 88.9598 95.41 89.7198 94.41L92.8398 96.21C91.3598 98.35 89.1798 99.42 86.2998 99.42C83.8198 99.42 81.8298 98.67 80.3298 97.17C78.8298 95.67 78.0798 93.78 78.0798 91.5C78.0798 89.24 78.8198 87.36 80.2998 85.86C81.7798 84.34 83.6798 83.58 85.9998 83.58C88.1998 83.58 90.0098 84.34 91.4298 85.86C92.8698 87.38 93.5898 89.26 93.5898 91.5C93.5898 92 93.5398 92.53 93.4398 93.09H82.1298ZM82.0698 90.09H89.7198C89.4998 89.07 89.0398 88.31 88.3398 87.81C87.6598 87.31 86.8798 87.06 85.9998 87.06C84.9598 87.06 84.0998 87.33 83.4198 87.87C82.7398 88.39 82.2898 89.13 82.0698 90.09Z" fill="#6397FF"/>
</g>
<defs>
<linearGradient id="paint0_linear_2071_32548" x1="414.5" y1="313.43" x2="84.2592" y2="561.115" gradientUnits="userSpaceOnUse">
<stop stop-color="#0B162C"/>
<stop offset="1" stop-color="#1C2D4E"/>
</linearGradient>
<linearGradient id="paint1_linear_2071_32548" x1="406.71" y1="363.798" x2="188.538" y2="534.635" gradientUnits="userSpaceOnUse">
<stop stop-color="#0B162C"/>
<stop offset="1" stop-color="#203A6E"/>
</linearGradient>
<linearGradient id="paint2_linear_2071_32548" x1="311.821" y1="384.42" x2="328.275" y2="476.745" gradientUnits="userSpaceOnUse">
<stop stop-color="#1F3A70"/>
<stop offset="1" stop-color="#04040C" stop-opacity="0.56"/>
</linearGradient>
</defs>
</svg>
