<svg width="393" height="452" viewBox="0 0 393 452" fill="none" xmlns="http://www.w3.org/2000/svg">
<g opacity="0.9">
<path d="M37.176 14.199C38.832 15.153 39.66 16.593 39.66 18.519C39.66 20.121 39.093 21.435 37.959 22.461C36.825 23.487 35.43 24 33.774 24H25.755V5.1H33.207C34.827 5.1 36.186 5.604 37.284 6.612C38.4 7.602 38.958 8.871 38.958 10.419C38.958 11.985 38.364 13.245 37.176 14.199ZM33.207 8.583H29.481V12.741H33.207C33.783 12.741 34.26 12.543 34.638 12.147C35.034 11.751 35.232 11.256 35.232 10.662C35.232 10.068 35.043 9.573 34.665 9.177C34.287 8.781 33.801 8.583 33.207 8.583ZM33.774 20.517C34.404 20.517 34.926 20.31 35.34 19.896C35.754 19.464 35.961 18.924 35.961 18.276C35.961 17.646 35.754 17.124 35.34 16.71C34.926 16.278 34.404 16.062 33.774 16.062H29.481V20.517H33.774ZM53.6536 22.326C52.2676 23.694 50.5756 24.378 48.5776 24.378C46.5796 24.378 44.8876 23.694 43.5016 22.326C42.1336 20.94 41.4496 19.248 41.4496 17.25C41.4496 15.252 42.1336 13.569 43.5016 12.201C44.8876 10.815 46.5796 10.122 48.5776 10.122C50.5756 10.122 52.2676 10.815 53.6536 12.201C55.0396 13.569 55.7326 15.252 55.7326 17.25C55.7326 19.248 55.0396 20.94 53.6536 22.326ZM45.9586 19.923C46.6606 20.625 47.5336 20.976 48.5776 20.976C49.6216 20.976 50.4946 20.625 51.1966 19.923C51.8986 19.221 52.2496 18.33 52.2496 17.25C52.2496 16.17 51.8986 15.279 51.1966 14.577C50.4946 13.875 49.6216 13.524 48.5776 13.524C47.5336 13.524 46.6606 13.875 45.9586 14.577C45.2746 15.279 44.9326 16.17 44.9326 17.25C44.9326 18.33 45.2746 19.221 45.9586 19.923ZM58.1828 24V4.29H61.6658V24H58.1828ZM75.0867 5.1H78.5697V24H75.0867V22.407C74.0607 23.721 72.6027 24.378 70.7127 24.378C68.8947 24.378 67.3377 23.694 66.0417 22.326C64.7637 20.94 64.1247 19.248 64.1247 17.25C64.1247 15.252 64.7637 13.569 66.0417 12.201C67.3377 10.815 68.8947 10.122 70.7127 10.122C72.6027 10.122 74.0607 10.779 75.0867 12.093V5.1ZM68.6607 20.004C69.3807 20.706 70.2807 21.057 71.3607 21.057C72.4407 21.057 73.3317 20.706 74.0337 20.004C74.7357 19.284 75.0867 18.366 75.0867 17.25C75.0867 16.134 74.7357 15.225 74.0337 14.523C73.3317 13.803 72.4407 13.443 71.3607 13.443C70.2807 13.443 69.3807 13.803 68.6607 14.523C67.9587 15.225 67.6077 16.134 67.6077 17.25C67.6077 18.366 67.9587 19.284 68.6607 20.004ZM40.524 78.122C42.072 78.122 43.305 78.626 44.223 79.634C45.159 80.642 45.627 81.992 45.627 83.684V92H42.144V83.927C42.144 83.117 41.946 82.487 41.55 82.037C41.154 81.587 40.596 81.362 39.876 81.362C39.084 81.362 38.463 81.623 38.013 82.145C37.581 82.667 37.365 83.423 37.365 84.413V92H33.882V83.927C33.882 83.117 33.684 82.487 33.288 82.037C32.892 81.587 32.334 81.362 31.614 81.362C30.84 81.362 30.219 81.623 29.751 82.145C29.301 82.667 29.076 83.423 29.076 84.413V92H25.593V78.5H29.076V79.931C29.886 78.725 31.137 78.122 32.829 78.122C34.485 78.122 35.709 78.77 36.501 80.066C37.401 78.77 38.742 78.122 40.524 78.122ZM50.3132 76.88C49.7372 76.88 49.2332 76.673 48.8012 76.259C48.3872 75.827 48.1802 75.323 48.1802 74.747C48.1802 74.171 48.3872 73.667 48.8012 73.235C49.2332 72.803 49.7372 72.587 50.3132 72.587C50.9072 72.587 51.4112 72.803 51.8252 73.235C52.2572 73.667 52.4732 74.171 52.4732 74.747C52.4732 75.323 52.2572 75.827 51.8252 76.259C51.4112 76.673 50.9072 76.88 50.3132 76.88ZM48.5852 92V78.5H52.0682V92H48.5852ZM58.3636 82.334C58.3636 82.694 58.5976 82.991 59.0656 83.225C59.5516 83.441 60.1366 83.639 60.8206 83.819C61.5046 83.981 62.1886 84.197 62.8726 84.467C63.5566 84.719 64.1326 85.151 64.6006 85.763C65.0866 86.375 65.3296 87.14 65.3296 88.058C65.3296 89.444 64.8076 90.515 63.7636 91.271C62.7376 92.009 61.4506 92.378 59.9026 92.378C57.1306 92.378 55.2406 91.307 54.2326 89.165L57.2566 87.464C57.6526 88.634 58.5346 89.219 59.9026 89.219C61.1446 89.219 61.7656 88.832 61.7656 88.058C61.7656 87.698 61.5226 87.41 61.0366 87.194C60.5686 86.96 59.9926 86.753 59.3086 86.573C58.6246 86.393 57.9406 86.168 57.2566 85.898C56.5726 85.628 55.9876 85.205 55.5016 84.629C55.0336 84.035 54.7996 83.297 54.7996 82.415C54.7996 81.083 55.2856 80.039 56.2576 79.283C57.2476 78.509 58.4716 78.122 59.9296 78.122C61.0276 78.122 62.0266 78.374 62.9266 78.878C63.8266 79.364 64.5376 80.066 65.0596 80.984L62.0896 82.604C61.6576 81.686 60.9376 81.227 59.9296 81.227C59.4796 81.227 59.1016 81.326 58.7956 81.524C58.5076 81.722 58.3636 81.992 58.3636 82.334ZM70.0706 82.334C70.0706 82.694 70.3046 82.991 70.7726 83.225C71.2586 83.441 71.8436 83.639 72.5276 83.819C73.2116 83.981 73.8956 84.197 74.5796 84.467C75.2636 84.719 75.8396 85.151 76.3076 85.763C76.7936 86.375 77.0366 87.14 77.0366 88.058C77.0366 89.444 76.5146 90.515 75.4706 91.271C74.4446 92.009 73.1576 92.378 71.6096 92.378C68.8376 92.378 66.9476 91.307 65.9396 89.165L68.9636 87.464C69.3596 88.634 70.2416 89.219 71.6096 89.219C72.8516 89.219 73.4726 88.832 73.4726 88.058C73.4726 87.698 73.2296 87.41 72.7436 87.194C72.2756 86.96 71.6996 86.753 71.0156 86.573C70.3316 86.393 69.6476 86.168 68.9636 85.898C68.2796 85.628 67.6946 85.205 67.2086 84.629C66.7406 84.035 66.5066 83.297 66.5066 82.415C66.5066 81.083 66.9926 80.039 67.9646 79.283C68.9546 78.509 70.1786 78.122 71.6366 78.122C72.7346 78.122 73.7336 78.374 74.6336 78.878C75.5336 79.364 76.2446 80.066 76.7666 80.984L73.7966 82.604C73.3646 81.686 72.6446 81.227 71.6366 81.227C71.1866 81.227 70.8086 81.326 70.5026 81.524C70.2146 81.722 70.0706 81.992 70.0706 82.334ZM81.0046 76.88C80.4286 76.88 79.9246 76.673 79.4926 76.259C79.0786 75.827 78.8716 75.323 78.8716 74.747C78.8716 74.171 79.0786 73.667 79.4926 73.235C79.9246 72.803 80.4286 72.587 81.0046 72.587C81.5986 72.587 82.1026 72.803 82.5166 73.235C82.9486 73.667 83.1646 74.171 83.1646 74.747C83.1646 75.323 82.9486 75.827 82.5166 76.259C82.1026 76.673 81.5986 76.88 81.0046 76.88ZM79.2766 92V78.5H82.7596V92H79.2766ZM97.4495 90.326C96.0635 91.694 94.3715 92.378 92.3735 92.378C90.3755 92.378 88.6835 91.694 87.2975 90.326C85.9295 88.94 85.2455 87.248 85.2455 85.25C85.2455 83.252 85.9295 81.569 87.2975 80.201C88.6835 78.815 90.3755 78.122 92.3735 78.122C94.3715 78.122 96.0635 78.815 97.4495 80.201C98.8355 81.569 99.5285 83.252 99.5285 85.25C99.5285 87.248 98.8355 88.94 97.4495 90.326ZM89.7545 87.923C90.4565 88.625 91.3295 88.976 92.3735 88.976C93.4175 88.976 94.2905 88.625 94.9925 87.923C95.6945 87.221 96.0455 86.33 96.0455 85.25C96.0455 84.17 95.6945 83.279 94.9925 82.577C94.2905 81.875 93.4175 81.524 92.3735 81.524C91.3295 81.524 90.4565 81.875 89.7545 82.577C89.0705 83.279 88.7285 84.17 88.7285 85.25C88.7285 86.33 89.0705 87.221 89.7545 87.923ZM109.485 78.122C110.961 78.122 112.176 78.617 113.13 79.607C114.102 80.597 114.588 81.965 114.588 83.711V92H111.105V84.143C111.105 83.243 110.862 82.559 110.376 82.091C109.89 81.605 109.242 81.362 108.432 81.362C107.532 81.362 106.812 81.641 106.272 82.199C105.732 82.757 105.462 83.594 105.462 84.71V92H101.979V78.5H105.462V80.012C106.308 78.752 107.649 78.122 109.485 78.122ZM120.775 82.334C120.775 82.694 121.009 82.991 121.477 83.225C121.963 83.441 122.548 83.639 123.232 83.819C123.916 83.981 124.6 84.197 125.284 84.467C125.968 84.719 126.544 85.151 127.012 85.763C127.498 86.375 127.741 87.14 127.741 88.058C127.741 89.444 127.219 90.515 126.175 91.271C125.149 92.009 123.862 92.378 122.314 92.378C119.542 92.378 117.652 91.307 116.644 89.165L119.668 87.464C120.064 88.634 120.946 89.219 122.314 89.219C123.556 89.219 124.177 88.832 124.177 88.058C124.177 87.698 123.934 87.41 123.448 87.194C122.98 86.96 122.404 86.753 121.72 86.573C121.036 86.393 120.352 86.168 119.668 85.898C118.984 85.628 118.399 85.205 117.913 84.629C117.445 84.035 117.211 83.297 117.211 82.415C117.211 81.083 117.697 80.039 118.669 79.283C119.659 78.509 120.883 78.122 122.341 78.122C123.439 78.122 124.438 78.374 125.338 78.878C126.238 79.364 126.949 80.066 127.471 80.984L124.501 82.604C124.069 81.686 123.349 81.227 122.341 81.227C121.891 81.227 121.513 81.326 121.207 81.524C120.919 81.722 120.775 81.992 120.775 82.334Z" fill="#6397FF"/>
<path d="M94.1481 24L87.1821 5.1H89.2341L95.1201 21.489L101.006 5.1H103.058L96.0921 24H94.1481ZM106.511 7.26C106.259 7.512 105.953 7.638 105.593 7.638C105.233 7.638 104.927 7.512 104.675 7.26C104.423 7.008 104.297 6.702 104.297 6.342C104.297 5.982 104.423 5.676 104.675 5.424C104.927 5.172 105.233 5.046 105.593 5.046C105.953 5.046 106.259 5.172 106.511 5.424C106.763 5.676 106.889 5.982 106.889 6.342C106.889 6.702 106.763 7.008 106.511 7.26ZM104.702 24V10.5H106.484V24H104.702ZM111.669 14.037C111.669 14.649 111.939 15.135 112.479 15.495C113.019 15.855 113.676 16.134 114.45 16.332C115.224 16.53 115.998 16.755 116.772 17.007C117.546 17.241 118.203 17.646 118.743 18.222C119.283 18.78 119.553 19.518 119.553 20.436C119.553 21.588 119.094 22.524 118.176 23.244C117.276 23.964 116.106 24.324 114.666 24.324C113.37 24.324 112.263 24.036 111.345 23.46C110.445 22.884 109.815 22.137 109.455 21.219L110.967 20.328C111.219 21.03 111.669 21.588 112.317 22.002C112.983 22.398 113.766 22.596 114.666 22.596C115.548 22.596 116.286 22.425 116.88 22.083C117.474 21.723 117.771 21.174 117.771 20.436C117.771 19.824 117.501 19.338 116.961 18.978C116.421 18.618 115.764 18.339 114.99 18.141C114.216 17.943 113.442 17.727 112.668 17.493C111.894 17.241 111.237 16.836 110.697 16.278C110.157 15.702 109.887 14.955 109.887 14.037C109.887 12.939 110.319 12.021 111.183 11.283C112.065 10.545 113.172 10.176 114.504 10.176C115.602 10.176 116.565 10.428 117.393 10.932C118.221 11.418 118.833 12.084 119.229 12.93L117.744 13.794C117.222 12.534 116.142 11.904 114.504 11.904C113.73 11.904 113.064 12.093 112.506 12.471C111.948 12.831 111.669 13.353 111.669 14.037ZM124.203 7.26C123.951 7.512 123.645 7.638 123.285 7.638C122.925 7.638 122.619 7.512 122.367 7.26C122.115 7.008 121.989 6.702 121.989 6.342C121.989 5.982 122.115 5.676 122.367 5.424C122.619 5.172 122.925 5.046 123.285 5.046C123.645 5.046 123.951 5.172 124.203 5.424C124.455 5.676 124.581 5.982 124.581 6.342C124.581 6.702 124.455 7.008 124.203 7.26ZM122.394 24V10.5H124.176V24H122.394ZM139.27 22.299C137.902 23.649 136.228 24.324 134.248 24.324C132.268 24.324 130.585 23.649 129.199 22.299C127.831 20.931 127.147 19.248 127.147 17.25C127.147 15.252 127.831 13.578 129.199 12.228C130.585 10.86 132.268 10.176 134.248 10.176C136.228 10.176 137.902 10.86 139.27 12.228C140.656 13.578 141.349 15.252 141.349 17.25C141.349 19.248 140.656 20.931 139.27 22.299ZM130.468 21.057C131.494 22.083 132.754 22.596 134.248 22.596C135.742 22.596 137.002 22.083 138.028 21.057C139.054 20.013 139.567 18.744 139.567 17.25C139.567 15.756 139.054 14.496 138.028 13.47C137.002 12.426 135.742 11.904 134.248 11.904C132.754 11.904 131.494 12.426 130.468 13.47C129.442 14.496 128.929 15.756 128.929 17.25C128.929 18.744 129.442 20.013 130.468 21.057ZM150.649 10.176C152.287 10.176 153.574 10.68 154.51 11.688C155.464 12.678 155.941 14.019 155.941 15.711V24H154.159V15.711C154.159 14.505 153.835 13.569 153.187 12.903C152.557 12.237 151.657 11.904 150.487 11.904C149.191 11.904 148.138 12.318 147.328 13.146C146.518 13.956 146.113 15.216 146.113 16.926V24H144.331V10.5H146.113V12.606C147.121 10.986 148.633 10.176 150.649 10.176ZM160.791 14.037C160.791 14.649 161.061 15.135 161.601 15.495C162.141 15.855 162.798 16.134 163.572 16.332C164.346 16.53 165.12 16.755 165.894 17.007C166.668 17.241 167.325 17.646 167.865 18.222C168.405 18.78 168.675 19.518 168.675 20.436C168.675 21.588 168.216 22.524 167.298 23.244C166.398 23.964 165.228 24.324 163.788 24.324C162.492 24.324 161.385 24.036 160.467 23.46C159.567 22.884 158.937 22.137 158.577 21.219L160.089 20.328C160.341 21.03 160.791 21.588 161.439 22.002C162.105 22.398 162.888 22.596 163.788 22.596C164.67 22.596 165.408 22.425 166.002 22.083C166.596 21.723 166.893 21.174 166.893 20.436C166.893 19.824 166.623 19.338 166.083 18.978C165.543 18.618 164.886 18.339 164.112 18.141C163.338 17.943 162.564 17.727 161.79 17.493C161.016 17.241 160.359 16.836 159.819 16.278C159.279 15.702 159.009 14.955 159.009 14.037C159.009 12.939 159.441 12.021 160.305 11.283C161.187 10.545 162.294 10.176 163.626 10.176C164.724 10.176 165.687 10.428 166.515 10.932C167.343 11.418 167.955 12.084 168.351 12.93L166.866 13.794C166.344 12.534 165.264 11.904 163.626 11.904C162.852 11.904 162.186 12.093 161.628 12.471C161.07 12.831 160.791 13.353 160.791 14.037ZM174.354 21.705L172.734 27.78H171.114L172.194 21.705H174.354ZM30.291 58L24.81 39.1H26.808L31.479 55.435L36.393 39.1H38.607L43.521 55.435L48.192 39.1H50.19L44.709 58H42.441L37.5 41.584L32.559 58H30.291ZM62.5946 56.299C61.2266 57.649 59.5526 58.324 57.5726 58.324C55.5926 58.324 53.9096 57.649 52.5236 56.299C51.1556 54.931 50.4716 53.248 50.4716 51.25C50.4716 49.252 51.1556 47.578 52.5236 46.228C53.9096 44.86 55.5926 44.176 57.5726 44.176C59.5526 44.176 61.2266 44.86 62.5946 46.228C63.9806 47.578 64.6736 49.252 64.6736 51.25C64.6736 53.248 63.9806 54.931 62.5946 56.299ZM53.7926 55.057C54.8186 56.083 56.0786 56.596 57.5726 56.596C59.0666 56.596 60.3266 56.083 61.3526 55.057C62.3786 54.013 62.8916 52.744 62.8916 51.25C62.8916 49.756 62.3786 48.496 61.3526 47.47C60.3266 46.426 59.0666 45.904 57.5726 45.904C56.0786 45.904 54.8186 46.426 53.7926 47.47C52.7666 48.496 52.2536 49.756 52.2536 51.25C52.2536 52.744 52.7666 54.013 53.7926 55.057ZM82.0466 44.176C83.5586 44.176 84.7736 44.662 85.6916 45.634C86.6276 46.606 87.0956 47.92 87.0956 49.576V58H85.3136V49.576C85.3136 48.406 85.0076 47.506 84.3956 46.876C83.8016 46.228 83.0096 45.904 82.0196 45.904C80.9036 45.904 79.9946 46.282 79.2926 47.038C78.6086 47.776 78.2666 48.937 78.2666 50.521V58H76.4846V49.576C76.4846 48.388 76.1966 47.479 75.6206 46.849C75.0626 46.219 74.2976 45.904 73.3256 45.904C72.2456 45.904 71.3276 46.282 70.5716 47.038C69.8156 47.794 69.4376 48.955 69.4376 50.521V58H67.6556V44.5H69.4376V46.471C70.4096 44.941 71.7866 44.176 73.5686 44.176C75.5126 44.176 76.8806 44.995 77.6726 46.633C78.6446 44.995 80.1026 44.176 82.0466 44.176ZM96.7793 44.176C98.7773 44.176 100.388 44.887 101.612 46.309C102.854 47.713 103.475 49.378 103.475 51.304C103.475 51.502 103.457 51.781 103.421 52.141H91.5683C91.7483 53.509 92.3243 54.598 93.2963 55.408C94.2863 56.2 95.5013 56.596 96.9413 56.596C97.9673 56.596 98.8493 56.389 99.5873 55.975C100.343 55.543 100.91 54.985 101.288 54.301L102.854 55.219C102.26 56.173 101.45 56.929 100.424 57.487C99.3983 58.045 98.2283 58.324 96.9143 58.324C94.7903 58.324 93.0623 57.658 91.7303 56.326C90.3983 54.994 89.7323 53.302 89.7323 51.25C89.7323 49.234 90.3893 47.551 91.7033 46.201C93.0173 44.851 94.7093 44.176 96.7793 44.176ZM96.7793 45.904C95.3753 45.904 94.1963 46.327 93.2423 47.173C92.3063 48.001 91.7483 49.081 91.5683 50.413H101.639C101.459 48.991 100.91 47.884 99.9923 47.092C99.0743 46.3 98.0033 45.904 96.7793 45.904ZM112.628 44.176C114.266 44.176 115.553 44.68 116.489 45.688C117.443 46.678 117.92 48.019 117.92 49.711V58H116.138V49.711C116.138 48.505 115.814 47.569 115.166 46.903C114.536 46.237 113.636 45.904 112.466 45.904C111.17 45.904 110.117 46.318 109.307 47.146C108.497 47.956 108.092 49.216 108.092 50.926V58H106.31V44.5H108.092V46.606C109.1 44.986 110.612 44.176 112.628 44.176ZM121.636 50.521V48.793H131.356V50.521H121.636ZM142.629 44.176C144.555 44.176 146.193 44.86 147.543 46.228C148.911 47.596 149.595 49.27 149.595 51.25C149.595 53.23 148.911 54.904 147.543 56.272C146.193 57.64 144.555 58.324 142.629 58.324C140.235 58.324 138.417 57.334 137.175 55.354V63.4H135.393V44.5H137.175V47.146C138.417 45.166 140.235 44.176 142.629 44.176ZM138.714 55.057C139.74 56.083 141 56.596 142.494 56.596C143.988 56.596 145.248 56.083 146.274 55.057C147.3 54.013 147.813 52.744 147.813 51.25C147.813 49.756 147.3 48.496 146.274 47.47C145.248 46.426 143.988 45.904 142.494 45.904C141 45.904 139.74 46.426 138.714 47.47C137.688 48.496 137.175 49.756 137.175 51.25C137.175 52.744 137.688 54.013 138.714 55.057ZM163.871 56.299C162.503 57.649 160.829 58.324 158.849 58.324C156.869 58.324 155.186 57.649 153.8 56.299C152.432 54.931 151.748 53.248 151.748 51.25C151.748 49.252 152.432 47.578 153.8 46.228C155.186 44.86 156.869 44.176 158.849 44.176C160.829 44.176 162.503 44.86 163.871 46.228C165.257 47.578 165.95 49.252 165.95 51.25C165.95 53.248 165.257 54.931 163.871 56.299ZM155.069 55.057C156.095 56.083 157.355 56.596 158.849 56.596C160.343 56.596 161.603 56.083 162.629 55.057C163.655 54.013 164.168 52.744 164.168 51.25C164.168 49.756 163.655 48.496 162.629 47.47C161.603 46.426 160.343 45.904 158.849 45.904C157.355 45.904 156.095 46.426 155.069 47.47C154.043 48.496 153.53 49.756 153.53 51.25C153.53 52.744 154.043 54.013 155.069 55.057ZM184.659 44.5H186.495L182.337 58H180.393L176.91 47.119L173.427 58H171.483L167.325 44.5H169.161L172.482 55.705L176.019 44.5H177.801L181.338 55.705L184.659 44.5ZM194.892 44.176C196.89 44.176 198.501 44.887 199.725 46.309C200.967 47.713 201.588 49.378 201.588 51.304C201.588 51.502 201.57 51.781 201.534 52.141H189.681C189.861 53.509 190.437 54.598 191.409 55.408C192.399 56.2 193.614 56.596 195.054 56.596C196.08 56.596 196.962 56.389 197.7 55.975C198.456 55.543 199.023 54.985 199.401 54.301L200.967 55.219C200.373 56.173 199.563 56.929 198.537 57.487C197.511 58.045 196.341 58.324 195.027 58.324C192.903 58.324 191.175 57.658 189.843 56.326C188.511 54.994 187.845 53.302 187.845 51.25C187.845 49.234 188.502 47.551 189.816 46.201C191.13 44.851 192.822 44.176 194.892 44.176ZM194.892 45.904C193.488 45.904 192.309 46.327 191.355 47.173C190.419 48.001 189.861 49.081 189.681 50.413H199.752C199.572 48.991 199.023 47.884 198.105 47.092C197.187 46.3 196.116 45.904 194.892 45.904ZM206.204 46.741C207.032 45.103 208.454 44.284 210.47 44.284V46.012C209.246 46.012 208.229 46.372 207.419 47.092C206.609 47.812 206.204 48.946 206.204 50.494V58H204.422V44.5H206.204V46.741ZM218.332 44.176C220.33 44.176 221.941 44.887 223.165 46.309C224.407 47.713 225.028 49.378 225.028 51.304C225.028 51.502 225.01 51.781 224.974 52.141H213.121C213.301 53.509 213.877 54.598 214.849 55.408C215.839 56.2 217.054 56.596 218.494 56.596C219.52 56.596 220.402 56.389 221.14 55.975C221.896 55.543 222.463 54.985 222.841 54.301L224.407 55.219C223.813 56.173 223.003 56.929 221.977 57.487C220.951 58.045 219.781 58.324 218.467 58.324C216.343 58.324 214.615 57.658 213.283 56.326C211.951 54.994 211.285 53.302 211.285 51.25C211.285 49.234 211.942 47.551 213.256 46.201C214.57 44.851 216.262 44.176 218.332 44.176ZM218.332 45.904C216.928 45.904 215.749 46.327 214.795 47.173C213.859 48.001 213.301 49.081 213.121 50.413H223.192C223.012 48.991 222.463 47.884 221.545 47.092C220.627 46.3 219.556 45.904 218.332 45.904ZM239.473 39.1H241.255V58H239.473V55.354C238.231 57.334 236.413 58.324 234.019 58.324C232.093 58.324 230.446 57.64 229.078 56.272C227.728 54.904 227.053 53.23 227.053 51.25C227.053 49.27 227.728 47.596 229.078 46.228C230.446 44.86 232.093 44.176 234.019 44.176C236.413 44.176 238.231 45.166 239.473 47.146V39.1ZM230.374 55.057C231.4 56.083 232.66 56.596 234.154 56.596C235.648 56.596 236.908 56.083 237.934 55.057C238.96 54.013 239.473 52.744 239.473 51.25C239.473 49.756 238.96 48.496 237.934 47.47C236.908 46.426 235.648 45.904 234.154 45.904C232.66 45.904 231.4 46.426 230.374 47.47C229.348 48.496 228.835 49.756 228.835 51.25C228.835 52.744 229.348 54.013 230.374 55.057Z" fill="white"/>
</g>
<g clip-path="url(#clip0_2071_32804)">
<path d="M168.588 378.336C172.499 373.18 172.844 366.153 169.452 360.642L148.661 326.845C146.775 323.771 143.325 328.021 142.217 329.653C140.458 332.25 139.7 335.503 139.965 338.614C140.293 342.472 142.053 346.086 144.459 349.074C146.981 352.217 149.091 355.91 151.396 359.259L136.154 384.165" fill="#FF9AC5"/>
<path d="M136.499 384.377L135.82 383.964L150.924 359.28C150.166 358.168 149.419 357.007 148.693 355.884C147.262 353.658 145.778 351.358 144.151 349.329C141.464 345.99 139.885 342.297 139.572 338.651C139.292 335.381 140.139 332.022 141.888 329.431C142.355 328.742 144.808 325.292 147.034 325.361C147.829 325.377 148.486 325.806 148.995 326.638L169.786 360.436C173.289 366.132 172.939 373.249 168.9 378.574L168.265 378.092C172.107 373.032 172.435 366.259 169.107 360.849L148.317 327.051C147.951 326.458 147.527 326.166 147.013 326.156H146.981C145.466 326.156 143.484 328.487 142.54 329.876C140.887 332.313 140.092 335.487 140.357 338.582C140.654 342.069 142.175 345.609 144.761 348.825C146.414 350.887 147.909 353.202 149.35 355.444C150.119 356.636 150.914 357.871 151.714 359.037L151.862 359.249L136.488 384.372L136.499 384.377Z" fill="black"/>
<path d="M180.56 325.011C180.867 323.14 179.426 321.434 177.529 321.418C170.846 321.37 165.514 325.297 162.557 330.967C157.772 323.188 153.717 316.596 153.717 316.596C151.523 313.035 147.527 317.958 146.245 319.855C144.205 322.865 143.325 326.638 143.632 330.252C144.014 334.73 146.054 338.916 148.842 342.387C150.585 344.554 152.154 346.955 153.707 349.355C151.804 351.957 149.642 354.368 147.247 356.53L141.274 361.919C136.859 365.904 130.728 367.377 124.988 365.835C122.185 365.083 121.045 361.718 122.815 359.418C125.089 356.466 127.278 353.451 129.594 350.542C131.735 347.85 133.987 345.153 135.28 341.926C137.967 335.233 135.153 327.724 130.563 322.605C129.504 321.423 127.654 321.413 126.578 322.579L99.7621 351.687C90.6839 361.829 85.2995 366.476 82.4854 376.974C81.4943 380.673 81.028 384.493 80.9856 388.325L80.3867 438.147H147.485L147.766 414.603L176.813 376.322C181.35 370.345 181.747 362.195 177.815 355.799C177.815 355.799 176.919 354.341 175.478 351.994C176.633 348.311 177.481 344.512 177.99 340.643L180.544 325.006L180.56 325.011Z" fill="#FF9AC5"/>
<path d="M147.893 438.549H80L80.6042 388.325C80.6519 384.297 81.1606 380.445 82.1198 376.873C84.5577 367.785 88.7921 363.154 95.8087 355.476C96.9588 354.214 98.1883 352.874 99.4867 351.422L126.303 322.314C126.886 321.678 127.712 321.318 128.576 321.318C128.582 321.318 128.592 321.318 128.597 321.318C129.467 321.323 130.299 321.699 130.876 322.346C135.121 327.078 138.608 334.745 135.667 342.079C134.443 345.137 132.376 347.728 130.373 350.229L129.922 350.796C128.523 352.55 127.151 354.379 125.826 356.143C124.935 357.325 124.05 358.501 123.149 359.672C122.397 360.647 122.185 361.925 122.577 363.09C122.969 364.256 123.918 365.141 125.105 365.459C130.744 366.969 136.69 365.539 141.02 361.628L146.987 356.239C149.271 354.177 151.37 351.862 153.23 349.344C151.709 346.992 150.204 344.713 148.54 342.636C145.434 338.773 143.601 334.502 143.246 330.289C142.922 326.511 143.897 322.626 145.922 319.638C146.462 318.843 149.266 314.884 151.836 314.943C152.732 314.964 153.479 315.451 154.062 316.395L162.541 330.178C165.785 324.423 171.296 321.021 177.423 321.021C177.46 321.021 177.497 321.021 177.534 321.021C178.557 321.026 179.516 321.482 180.179 322.261C180.836 323.04 181.122 324.068 180.958 325.075L178.403 340.712C177.905 344.491 177.073 348.274 175.934 351.946L178.181 355.597C182.23 362.179 181.827 370.414 177.158 376.566L148.19 414.746L147.904 438.549H147.893ZM80.8055 437.755H147.109L147.39 414.476L147.469 414.37L176.517 376.084C180.989 370.191 181.376 362.311 177.497 356.011L175.064 352.052L175.117 351.877C176.273 348.195 177.11 344.395 177.614 340.59L180.173 324.942C180.3 324.163 180.083 323.374 179.574 322.77C179.066 322.165 178.324 321.821 177.534 321.81C177.497 321.81 177.46 321.81 177.423 321.81C171.296 321.81 166.013 325.207 162.918 331.147L162.594 331.767L153.389 316.797C152.954 316.093 152.44 315.738 151.826 315.727C151.815 315.727 151.799 315.727 151.789 315.727C150.008 315.727 147.681 318.451 146.584 320.072C144.661 322.913 143.733 326.606 144.041 330.209C144.385 334.263 146.16 338.386 149.165 342.127C150.909 344.3 152.472 346.679 154.051 349.133L154.2 349.36L154.041 349.583C152.107 352.227 149.918 354.665 147.528 356.822L141.56 362.211C137.029 366.302 130.797 367.796 124.904 366.217C123.457 365.83 122.307 364.749 121.83 363.334C121.348 361.914 121.613 360.361 122.524 359.174C123.425 358.009 124.31 356.832 125.195 355.65C126.525 353.881 127.903 352.052 129.308 350.288L129.758 349.721C131.719 347.262 133.754 344.718 134.936 341.772C137.739 334.783 134.374 327.422 130.293 322.87C129.864 322.388 129.244 322.112 128.603 322.107H128.587C127.946 322.107 127.331 322.377 126.902 322.849L100.086 351.957C98.7871 353.409 97.5576 354.75 96.4023 356.016C89.4704 363.604 85.2837 368.183 82.8989 377.08C81.9609 380.583 81.4574 384.372 81.4097 388.335L80.8161 437.755H80.8055Z" fill="black"/>
<path d="M114.279 441.798C132.624 441.798 147.496 440.075 147.496 437.951C147.496 435.826 132.624 434.104 114.279 434.104C95.9327 434.104 81.0605 435.826 81.0605 437.951C81.0605 440.075 95.9327 441.798 114.279 441.798Z" fill="#FB3A37"/>
<path d="M114.279 442.322C105.386 442.322 97.0231 441.92 90.7271 441.194C80.5254 440.012 80.5254 438.565 80.5254 437.951C80.5254 437.336 80.5254 435.884 90.7271 434.708C97.0231 433.976 105.386 433.579 114.279 433.579C123.171 433.579 131.534 433.982 137.83 434.708C148.032 435.889 148.032 437.336 148.032 437.951C148.032 438.565 148.032 440.017 137.83 441.194C131.534 441.925 123.171 442.322 114.279 442.322ZM114.279 434.633C93.9546 434.633 82.0464 436.605 81.5853 437.967C82.0464 439.297 93.9546 441.263 114.279 441.263C134.603 441.263 146.41 439.307 146.967 437.951C146.415 436.589 134.518 434.633 114.279 434.633Z" fill="black"/>
<g style="mix-blend-mode:hard-light" opacity="0.27">
<path d="M114.279 442.322C105.386 442.322 97.0231 441.92 90.7271 441.194C80.5254 440.012 80.5254 438.565 80.5254 437.951C80.5254 437.336 80.5254 435.884 90.7271 434.708C97.0231 433.976 105.386 433.579 114.279 433.579C123.171 433.579 131.534 433.982 137.83 434.708C148.032 435.889 148.032 437.336 148.032 437.951C148.032 438.565 148.032 440.017 137.83 441.194C131.534 441.925 123.171 442.322 114.279 442.322ZM114.279 434.633C93.9546 434.633 82.0464 436.605 81.5853 437.967C82.0464 439.297 93.9546 441.263 114.279 441.263C134.603 441.263 146.41 439.307 146.967 437.951C146.415 436.589 134.518 434.633 114.279 434.633Z" fill="black"/>
</g>
<path d="M114.279 439.641C122.348 439.641 128.89 438.884 128.89 437.951C128.89 437.017 122.348 436.26 114.279 436.26C106.21 436.26 99.668 437.017 99.668 437.951C99.668 438.884 106.21 439.641 114.279 439.641Z" fill="white"/>
<path d="M114.278 440.038C112.741 440.038 99.2695 439.98 99.2695 437.951C99.2695 435.921 112.741 435.863 114.278 435.863C115.815 435.863 129.287 435.921 129.287 437.951C129.287 439.98 115.815 440.038 114.278 440.038ZM100.144 437.951C101.029 438.523 106.133 439.244 114.278 439.244C122.424 439.244 127.527 438.518 128.412 437.951C127.527 437.378 122.424 436.658 114.278 436.658C106.133 436.658 101.029 437.384 100.144 437.951Z" fill="black"/>
<path d="M80.4043 438.152L81.0032 388.33C81.0508 384.499 81.5119 380.678 82.5029 376.979C85.317 366.476 90.7014 361.829 99.7797 351.692L126.596 322.584C127.672 321.418 129.521 321.429 130.581 322.611C135.17 327.724 137.979 335.238 135.298 341.931C134.005 345.158 131.752 347.855 129.611 350.547C127.29 353.462 125.107 356.477 122.833 359.423C121.058 361.723 122.197 365.088 125.001 365.841C130.74 367.383 136.872 365.904 141.286 361.925C141.286 361.925 147.254 356.535 147.259 356.535C150.762 353.372 153.788 349.678 156.194 345.619C158.669 341.444 159.973 336.823 161.881 332.393C164.652 325.96 170.307 321.371 177.536 321.424C179.433 321.434 180.874 323.14 180.567 325.016L178.013 340.654C175.903 356.668 168.108 371.389 156.051 382.135L151.17 386.486" fill="#FF9AC5"/>
<path d="M80.8008 438.157L80.0059 438.147L80.6047 388.325C80.6524 384.292 81.1612 380.44 82.1204 376.873C84.5582 367.785 88.7926 363.154 95.8093 355.476C96.9593 354.214 98.1888 352.874 99.4872 351.422L126.303 322.314C126.886 321.678 127.713 321.318 128.577 321.318C128.582 321.318 128.593 321.318 128.598 321.318C129.467 321.323 130.299 321.699 130.877 322.346C135.122 327.078 138.604 334.745 135.668 342.079C134.438 345.137 132.371 347.728 130.373 350.235L129.923 350.796C128.524 352.55 127.151 354.379 125.826 356.143C124.936 357.325 124.051 358.501 123.15 359.672C122.397 360.647 122.185 361.925 122.578 363.09C122.97 364.256 123.918 365.141 125.106 365.464C130.739 366.975 136.691 365.544 141.02 361.633L146.988 356.244C150.475 353.096 153.458 349.456 155.849 345.423C157.476 342.684 158.615 339.674 159.717 336.764C160.284 335.275 160.867 333.739 161.514 332.239C164.545 325.212 170.481 321.026 177.418 321.026C177.455 321.026 177.498 321.026 177.535 321.026C178.557 321.031 179.517 321.487 180.179 322.266C180.836 323.045 181.122 324.073 180.958 325.08L178.404 340.718C176.284 356.806 168.44 371.627 156.31 382.432L151.429 386.783L150.899 386.189L155.78 381.839C167.762 371.161 175.521 356.514 177.614 340.601L180.174 324.953C180.301 324.174 180.084 323.384 179.575 322.78C179.066 322.176 178.324 321.832 177.535 321.821C177.498 321.821 177.46 321.821 177.423 321.821C170.815 321.821 165.149 325.827 162.251 332.552C161.615 334.035 161.032 335.562 160.47 337.045C159.357 339.986 158.202 343.028 156.543 345.826C154.11 349.927 151.079 353.631 147.528 356.832L141.561 362.221C137.03 366.312 130.803 367.807 124.904 366.227C123.457 365.841 122.307 364.76 121.83 363.345C121.348 361.925 121.613 360.372 122.525 359.185C123.426 358.019 124.311 356.843 125.196 355.661C126.526 353.891 127.904 352.063 129.308 350.298L129.759 349.737C131.725 347.278 133.755 344.729 134.936 341.783C137.74 334.793 134.375 327.433 130.294 322.881C129.865 322.399 129.245 322.123 128.603 322.118H128.587C127.946 322.118 127.331 322.388 126.902 322.86L100.086 351.968C98.7877 353.419 97.5582 354.76 96.4029 356.027C89.471 363.615 85.2843 368.193 82.8994 377.091C81.9614 380.593 81.458 384.377 81.4103 388.346L80.8114 438.168L80.8008 438.157Z" fill="black"/>
<path d="M126.563 322.43L117.903 332.016C117.903 332.016 114.887 337.655 121.056 334.544C125.206 332.451 127.289 329.584 128.417 327.454C129.159 326.055 128.974 324.179 128.258 322.663C127.946 322.006 127.055 321.884 126.568 322.425L126.563 322.43Z" fill="white"/>
<path d="M118.215 335.879C117.754 335.879 117.399 335.747 117.145 335.487C116.191 334.512 117.32 332.265 117.553 331.826L117.606 331.746L126.265 322.16C126.589 321.805 127.066 321.63 127.537 321.704C128.009 321.773 128.406 322.07 128.608 322.494C129.445 324.264 129.503 326.235 128.761 327.639C127.103 330.771 124.569 333.209 121.231 334.894C119.927 335.551 118.936 335.874 118.21 335.874L118.215 335.879ZM118.231 332.244C117.781 333.108 117.314 334.528 117.712 334.931C117.844 335.063 118.459 335.408 120.876 334.189C124.066 332.578 126.483 330.252 128.062 327.268C128.693 326.081 128.629 324.38 127.892 322.833C127.802 322.648 127.633 322.52 127.421 322.489C127.203 322.457 126.997 322.531 126.854 322.69L118.226 332.239L118.231 332.244Z" fill="black"/>
<path d="M175.059 335.127C176.098 339.727 178.308 338.418 178.308 338.418L178.637 336.802L180.566 325.006C180.762 323.792 180.232 322.658 179.315 322.001L178.308 321.821C178.308 321.821 174.026 330.527 175.059 335.127Z" fill="white"/>
<path d="M177.593 338.99C177.36 338.99 177.1 338.948 176.824 338.831C175.839 338.407 175.112 337.188 174.667 335.217C173.613 330.533 177.768 322.012 177.948 321.651L178.08 321.381L179.469 321.625L179.543 321.678C180.624 322.457 181.165 323.76 180.953 325.069L179.024 336.865L178.658 338.672L178.504 338.762C178.504 338.762 178.112 338.99 177.587 338.99H177.593ZM175.446 335.042C175.929 337.172 176.633 337.882 177.142 338.1C177.481 338.248 177.789 338.195 177.958 338.137L178.245 336.722L180.168 324.942C180.327 323.956 179.94 322.981 179.151 322.372L178.536 322.261C177.836 323.75 174.551 331.068 175.446 335.032V335.042Z" fill="black"/>
<path d="M97.4672 362.698C93.0527 368.336 89.7139 374.807 87.7266 381.685C87.5676 382.305 87.1542 383.937 86.9846 384.536C86.762 385.505 86.5977 386.475 86.3593 387.445C86.0572 388.786 85.9247 390.137 85.5855 391.483C85.3947 392.325 84.1493 392.288 84.0115 391.435C82.5117 382.983 84.7694 373.911 90.0637 367.155C91.8497 364.897 93.9059 362.884 96.4974 361.437C96.8843 361.22 97.3718 361.357 97.5891 361.744C97.7693 362.068 97.6951 362.438 97.4672 362.698Z" fill="white"/>
<path d="M84.8018 396.644C85.4194 396.644 85.92 396.144 85.92 395.526C85.92 394.909 85.4194 394.408 84.8018 394.408C84.1842 394.408 83.6836 394.909 83.6836 395.526C83.6836 396.144 84.1842 396.644 84.8018 396.644Z" fill="white"/>
<path d="M84.8012 396.909C84.038 396.909 83.418 396.289 83.418 395.526C83.418 394.763 84.038 394.143 84.8012 394.143C85.5643 394.143 86.1844 394.763 86.1844 395.526C86.1844 396.289 85.5643 396.909 84.8012 396.909ZM84.8012 394.668C84.3295 394.668 83.9479 395.049 83.9479 395.521C83.9479 395.992 84.3295 396.374 84.8012 396.374C85.2728 396.374 85.6544 395.992 85.6544 395.521C85.6544 395.049 85.2728 394.668 84.8012 394.668Z" fill="white"/>
<path d="M147.354 295.119C148.329 294.647 149.31 294.319 150.274 294.112C151.239 293.905 152.187 293.831 153.104 293.868C153.02 292.416 153.247 290.964 153.746 289.618C154.249 288.278 155.023 287.048 156.051 286.041C157.222 284.897 158.579 284.181 160.01 283.879C161.441 283.577 162.946 283.683 164.435 284.171C164.398 283.259 164.504 282.337 164.742 281.463C164.981 280.589 165.352 279.751 165.86 279.004C166.979 277.351 168.505 276.434 170.132 276.254C171.759 276.074 173.487 276.63 175.061 277.95C176.629 279.269 177.748 281.113 178.235 283.063C178.717 285.013 178.553 287.085 177.514 288.808C176.958 289.73 176.205 290.45 175.331 290.954C174.456 291.462 173.465 291.754 172.443 291.817C173.174 293.529 173.497 295.31 173.322 296.979C173.147 298.648 172.474 300.211 171.224 301.467C170.068 302.622 168.563 303.375 166.905 303.724C165.24 304.074 163.428 304.021 161.674 303.581C161.377 305.002 160.656 306.385 159.543 307.609C158.43 308.833 156.915 309.893 155.06 310.677C152.081 311.938 148.801 312.256 146.061 311.768C143.311 311.276 141.122 309.967 140.184 307.868C139.241 305.77 139.696 303.258 141.048 300.916C142.404 298.579 144.636 296.433 147.37 295.113L147.354 295.119Z" fill="#5DC461"/>
<path d="M148.59 312.526C147.689 312.526 146.799 312.452 145.945 312.298C142.866 311.747 140.641 310.253 139.676 308.091C138.717 305.955 139.029 303.316 140.566 300.656C142.029 298.129 144.419 295.94 147.122 294.642C148.118 294.165 149.141 293.81 150.164 293.593C150.964 293.423 151.764 293.333 152.559 293.328C152.554 292.008 152.787 290.673 153.254 289.433C153.789 287.997 154.632 286.693 155.686 285.665C156.905 284.473 158.325 283.699 159.905 283.365C161.198 283.09 162.544 283.127 163.911 283.471C163.938 282.745 164.044 282.03 164.24 281.33C164.499 280.382 164.897 279.502 165.427 278.718C166.593 276.996 168.241 275.941 170.075 275.735C171.876 275.538 173.768 276.18 175.401 277.552C177.038 278.93 178.225 280.843 178.745 282.947C179.296 285.167 179.015 287.35 177.96 289.088C177.367 290.069 176.572 290.853 175.591 291.42C174.86 291.844 174.039 292.135 173.18 292.273C173.768 293.895 173.996 295.527 173.837 297.042C173.647 298.902 172.867 300.566 171.585 301.849C170.398 303.041 168.813 303.867 166.996 304.249C165.422 304.583 163.72 304.572 162.046 304.222C161.669 305.563 160.938 306.851 159.915 307.974C158.728 309.278 157.112 310.385 155.246 311.175C153.148 312.06 150.826 312.526 148.585 312.526H148.59ZM147.578 295.601C145.066 296.809 142.845 298.844 141.483 301.191C140.121 303.544 139.824 305.844 140.641 307.662C141.457 309.495 143.407 310.772 146.131 311.26C148.903 311.758 152.072 311.371 154.833 310.205C156.555 309.474 158.044 308.456 159.131 307.264C160.159 306.135 160.853 304.832 161.134 303.486C161.166 303.343 161.251 303.221 161.373 303.147C161.495 303.073 161.643 303.046 161.781 303.083C163.466 303.507 165.194 303.555 166.773 303.221C168.384 302.882 169.788 302.151 170.827 301.107C171.935 299.999 172.608 298.558 172.777 296.942C172.936 295.4 172.65 293.704 171.94 292.04C171.871 291.881 171.887 291.701 171.977 291.552C172.067 291.404 172.221 291.314 172.396 291.303C173.344 291.24 174.267 290.969 175.056 290.508C175.883 290.032 176.551 289.369 177.049 288.548C177.955 287.048 178.194 285.151 177.711 283.206C177.245 281.32 176.174 279.603 174.712 278.368C173.281 277.171 171.712 276.625 170.181 276.794C168.66 276.964 167.276 277.859 166.291 279.317C165.824 280.006 165.475 280.779 165.247 281.617C165.019 282.443 164.923 283.302 164.96 284.165C164.966 284.34 164.892 284.505 164.748 284.611C164.611 284.717 164.425 284.748 164.266 284.69C162.841 284.224 161.447 284.134 160.117 284.414C158.739 284.706 157.493 285.384 156.417 286.439C155.474 287.361 154.722 288.527 154.239 289.82C153.762 291.102 153.55 292.496 153.63 293.852C153.64 294.001 153.582 294.149 153.476 294.255C153.37 294.361 153.217 294.419 153.079 294.414C152.188 294.371 151.282 294.451 150.381 294.647C149.443 294.848 148.5 295.172 147.578 295.611V295.601Z" fill="black"/>
<g style="mix-blend-mode:soft-light">
<path d="M148.59 312.526C147.689 312.526 146.799 312.452 145.945 312.298C142.866 311.747 140.641 310.253 139.676 308.091C138.717 305.955 139.029 303.316 140.566 300.656C142.029 298.129 144.419 295.94 147.122 294.642C148.118 294.165 149.141 293.81 150.164 293.593C150.964 293.423 151.764 293.333 152.559 293.328C152.554 292.008 152.787 290.673 153.254 289.433C153.789 287.997 154.632 286.693 155.686 285.665C156.905 284.473 158.325 283.699 159.905 283.365C161.198 283.09 162.544 283.127 163.911 283.471C163.938 282.745 164.044 282.03 164.24 281.33C164.499 280.382 164.897 279.502 165.427 278.718C166.593 276.996 168.241 275.941 170.075 275.735C171.876 275.538 173.768 276.18 175.401 277.552C177.038 278.93 178.225 280.843 178.745 282.947C179.296 285.167 179.015 287.35 177.96 289.088C177.367 290.069 176.572 290.853 175.591 291.42C174.86 291.844 174.039 292.135 173.18 292.273C173.768 293.895 173.996 295.527 173.837 297.042C173.647 298.902 172.867 300.566 171.585 301.849C170.398 303.041 168.813 303.867 166.996 304.249C165.422 304.583 163.72 304.572 162.046 304.222C161.669 305.563 160.938 306.851 159.915 307.974C158.728 309.278 157.112 310.385 155.246 311.175C153.148 312.06 150.826 312.526 148.585 312.526H148.59ZM147.578 295.601C145.066 296.809 142.845 298.844 141.483 301.191C140.121 303.544 139.824 305.844 140.641 307.662C141.457 309.495 143.407 310.772 146.131 311.26C148.903 311.758 152.072 311.371 154.833 310.205C156.555 309.474 158.044 308.456 159.131 307.264C160.159 306.135 160.853 304.832 161.134 303.486C161.166 303.343 161.251 303.221 161.373 303.147C161.495 303.073 161.643 303.046 161.781 303.083C163.466 303.507 165.194 303.555 166.773 303.221C168.384 302.882 169.788 302.151 170.827 301.107C171.935 299.999 172.608 298.558 172.777 296.942C172.936 295.4 172.65 293.704 171.94 292.04C171.871 291.881 171.887 291.701 171.977 291.552C172.067 291.404 172.221 291.314 172.396 291.303C173.344 291.24 174.267 290.969 175.056 290.508C175.883 290.032 176.551 289.369 177.049 288.548C177.955 287.048 178.194 285.151 177.711 283.206C177.245 281.32 176.174 279.603 174.712 278.368C173.281 277.171 171.712 276.625 170.181 276.794C168.66 276.964 167.276 277.859 166.291 279.317C165.824 280.006 165.475 280.779 165.247 281.617C165.019 282.443 164.923 283.302 164.96 284.165C164.966 284.34 164.892 284.505 164.748 284.611C164.611 284.717 164.425 284.748 164.266 284.69C162.841 284.224 161.447 284.134 160.117 284.414C158.739 284.706 157.493 285.384 156.417 286.439C155.474 287.361 154.722 288.527 154.239 289.82C153.762 291.102 153.55 292.496 153.63 293.852C153.64 294.001 153.582 294.149 153.476 294.255C153.37 294.361 153.217 294.419 153.079 294.414C152.188 294.371 151.282 294.451 150.381 294.647C149.443 294.848 148.5 295.172 147.578 295.611V295.601Z" fill="black"/>
</g>
<path d="M140.699 307.789C140.635 307.789 140.571 307.778 140.508 307.752C140.238 307.646 140.1 307.338 140.206 307.068C140.317 306.782 140.381 306.755 142.082 306.098C157.827 299.983 167.266 292.893 170.133 285.029C170.233 284.754 170.541 284.611 170.811 284.711C171.087 284.812 171.23 285.114 171.129 285.389C168.156 293.555 158.511 300.852 142.469 307.084C141.833 307.333 141.223 307.566 141.054 307.656C140.958 307.741 140.831 307.789 140.704 307.789H140.699Z" fill="black"/>
<path d="M159.571 291.287C159.39 292.427 158.924 293.28 158.537 293.19C158.15 293.1 157.997 292.103 158.193 290.959C158.389 289.814 158.839 288.966 159.215 289.056C159.586 289.146 159.751 290.143 159.576 291.282L159.571 291.287Z" fill="black"/>
<path d="M158.591 293.465C158.548 293.465 158.511 293.46 158.474 293.455C157.828 293.306 157.737 292.04 157.923 290.922C158.055 290.143 158.363 289.199 158.829 288.892C159.009 288.776 159.163 288.781 159.264 288.802C159.894 288.956 159.995 290.217 159.82 291.33C159.672 292.289 159.317 293.084 158.925 293.354C158.797 293.439 158.675 293.465 158.58 293.465H158.591ZM159.142 289.316C159.031 289.343 158.644 289.878 158.448 291.006C158.251 292.162 158.458 292.882 158.591 292.93C158.713 292.919 159.126 292.39 159.301 291.245C159.486 290.058 159.258 289.374 159.137 289.316H159.142Z" fill="black"/>
<path d="M152.062 306.66C150.801 306.978 149.677 306.93 149.576 306.549C149.47 306.167 150.414 305.584 151.659 305.266C152.91 304.948 154.002 305.012 154.118 305.399C154.235 305.786 153.323 306.342 152.057 306.66H152.062Z" fill="black"/>
<path d="M150.525 307.137C149.931 307.137 149.422 307.01 149.316 306.618C149.29 306.522 149.279 306.369 149.391 306.183C149.645 305.743 150.514 305.282 151.595 305.012C152.793 304.71 154.176 304.678 154.372 305.325C154.404 305.425 154.415 305.579 154.314 305.765C154.022 306.284 152.989 306.702 152.125 306.92C151.675 307.031 151.065 307.137 150.525 307.137ZM153.121 305.33C152.766 305.33 152.3 305.378 151.728 305.526C150.44 305.855 149.852 306.347 149.836 306.49C149.915 306.586 150.684 306.734 151.998 306.406C153.275 306.082 153.853 305.606 153.869 305.468C153.832 305.409 153.572 305.33 153.121 305.33Z" fill="black"/>
<path d="M132.935 300.974C132.256 300.502 131.562 300.105 130.868 299.787C130.174 299.469 129.48 299.225 128.796 299.066C129.024 298.07 129.013 297.016 128.785 295.972C128.557 294.928 128.102 293.889 127.439 292.93C126.681 291.833 125.743 290.969 124.72 290.355C123.698 289.745 122.585 289.39 121.461 289.337C121.567 288.675 121.572 287.97 121.472 287.249C121.371 286.534 121.164 285.803 120.857 285.093C120.173 283.524 119.124 282.342 117.963 281.717C116.803 281.097 115.526 281.039 114.312 281.717C113.104 282.395 112.182 283.672 111.678 285.161C111.18 286.651 111.122 288.336 111.699 289.867C112.012 290.688 112.473 291.377 113.04 291.934C113.607 292.485 114.286 292.898 115.006 293.158C114.323 294.334 113.909 295.659 113.856 296.984C113.798 298.309 114.1 299.628 114.842 300.799C115.526 301.885 116.501 302.717 117.645 303.295C118.785 303.867 120.094 304.185 121.408 304.212C121.445 305.309 121.784 306.453 122.426 307.55C123.067 308.642 124.016 309.68 125.25 310.549C127.232 311.954 129.58 312.658 131.684 312.643C133.788 312.632 135.632 311.895 136.65 310.507C137.673 309.119 137.683 307.375 136.968 305.674C136.252 303.968 134.832 302.299 132.93 300.969L132.935 300.974Z" fill="#5DC461"/>
<path d="M131.62 313.178C129.346 313.178 126.919 312.383 124.942 310.984C123.697 310.104 122.669 309.007 121.969 307.82C121.386 306.83 121.026 305.77 120.909 304.726C119.669 304.636 118.466 304.312 117.401 303.772C116.134 303.136 115.096 302.203 114.391 301.085C113.628 299.877 113.257 298.452 113.32 296.963C113.373 295.76 113.691 294.552 114.258 293.423C113.67 293.142 113.14 292.771 112.669 292.315C112.022 291.69 111.529 290.932 111.201 290.058C110.612 288.505 110.602 286.709 111.174 284.997C111.741 283.307 112.764 281.977 114.052 281.261C115.366 280.525 116.845 280.525 118.212 281.261C119.51 281.961 120.623 283.249 121.339 284.891C121.667 285.638 121.885 286.412 121.996 287.186C122.075 287.758 122.097 288.32 122.054 288.866C123.061 288.998 124.068 289.353 124.995 289.91C126.108 290.572 127.105 291.515 127.878 292.639C128.578 293.651 129.055 294.737 129.304 295.866C129.516 296.83 129.553 297.773 129.41 298.69C129.972 298.849 130.534 299.061 131.09 299.315C131.827 299.655 132.547 300.068 133.242 300.55C135.208 301.923 136.708 303.671 137.465 305.484C138.297 307.471 138.165 309.373 137.084 310.836C135.997 312.314 134.031 313.173 131.694 313.183H131.625L131.62 313.178ZM116.113 281.765C115.589 281.765 115.069 281.903 114.566 282.183C113.522 282.766 112.653 283.911 112.176 285.331C111.683 286.81 111.688 288.357 112.192 289.682C112.467 290.408 112.875 291.038 113.405 291.552C113.914 292.045 114.513 292.421 115.181 292.66C115.329 292.713 115.446 292.829 115.499 292.978C115.552 293.126 115.536 293.29 115.456 293.428C114.799 294.552 114.428 295.792 114.375 297.01C114.322 298.282 114.635 299.496 115.281 300.524C115.885 301.483 116.781 302.278 117.873 302.829C118.938 303.364 120.162 303.661 121.408 303.687C121.688 303.692 121.916 303.92 121.927 304.201C121.964 305.224 122.293 306.294 122.876 307.285C123.501 308.345 124.423 309.331 125.547 310.12C127.343 311.392 129.548 312.118 131.609 312.118H131.673C133.671 312.107 135.33 311.408 136.215 310.2C137.063 309.045 137.153 307.513 136.474 305.881C135.791 304.254 134.423 302.664 132.622 301.409C131.98 300.963 131.313 300.577 130.64 300.269C129.982 299.967 129.315 299.734 128.663 299.58C128.377 299.511 128.202 299.231 128.265 298.944C128.477 298.028 128.472 297.069 128.255 296.083C128.037 295.087 127.608 294.128 126.993 293.227C126.304 292.231 125.419 291.393 124.439 290.805C123.474 290.227 122.457 289.91 121.423 289.862C121.275 289.857 121.132 289.782 121.037 289.666C120.941 289.549 120.904 289.396 120.925 289.247C121.026 288.632 121.026 287.986 120.931 287.318C120.835 286.64 120.639 285.962 120.353 285.299C119.733 283.874 118.79 282.766 117.698 282.183C117.168 281.903 116.633 281.76 116.103 281.76L116.113 281.765Z" fill="black"/>
<g style="mix-blend-mode:soft-light">
<path d="M131.62 313.178C129.346 313.178 126.919 312.383 124.942 310.984C123.697 310.104 122.669 309.007 121.969 307.82C121.386 306.83 121.026 305.77 120.909 304.726C119.669 304.636 118.466 304.312 117.401 303.772C116.134 303.136 115.096 302.203 114.391 301.085C113.628 299.877 113.257 298.452 113.32 296.963C113.373 295.76 113.691 294.552 114.258 293.423C113.67 293.142 113.14 292.771 112.669 292.315C112.022 291.69 111.529 290.932 111.201 290.058C110.612 288.505 110.602 286.709 111.174 284.997C111.741 283.307 112.764 281.977 114.052 281.261C115.366 280.525 116.845 280.525 118.212 281.261C119.51 281.961 120.623 283.249 121.339 284.891C121.667 285.638 121.885 286.412 121.996 287.186C122.075 287.758 122.097 288.32 122.054 288.866C123.061 288.998 124.068 289.353 124.995 289.91C126.108 290.572 127.105 291.515 127.878 292.639C128.578 293.651 129.055 294.737 129.304 295.866C129.516 296.83 129.553 297.773 129.41 298.69C129.972 298.849 130.534 299.061 131.09 299.315C131.827 299.655 132.547 300.068 133.242 300.55C135.208 301.923 136.708 303.671 137.465 305.484C138.297 307.471 138.165 309.373 137.084 310.836C135.997 312.314 134.031 313.173 131.694 313.183H131.625L131.62 313.178ZM116.113 281.765C115.589 281.765 115.069 281.903 114.566 282.183C113.522 282.766 112.653 283.911 112.176 285.331C111.683 286.81 111.688 288.357 112.192 289.682C112.467 290.408 112.875 291.038 113.405 291.552C113.914 292.045 114.513 292.421 115.181 292.66C115.329 292.713 115.446 292.829 115.499 292.978C115.552 293.126 115.536 293.29 115.456 293.428C114.799 294.552 114.428 295.792 114.375 297.01C114.322 298.282 114.635 299.496 115.281 300.524C115.885 301.483 116.781 302.278 117.873 302.829C118.938 303.364 120.162 303.661 121.408 303.687C121.688 303.692 121.916 303.92 121.927 304.201C121.964 305.224 122.293 306.294 122.876 307.285C123.501 308.345 124.423 309.331 125.547 310.12C127.343 311.392 129.548 312.118 131.609 312.118H131.673C133.671 312.107 135.33 311.408 136.215 310.2C137.063 309.045 137.153 307.513 136.474 305.881C135.791 304.254 134.423 302.664 132.622 301.409C131.98 300.963 131.313 300.577 130.64 300.269C129.982 299.967 129.315 299.734 128.663 299.58C128.377 299.511 128.202 299.231 128.265 298.944C128.477 298.028 128.472 297.069 128.255 296.083C128.037 295.087 127.608 294.128 126.993 293.227C126.304 292.231 125.419 291.393 124.439 290.805C123.474 290.227 122.457 289.91 121.423 289.862C121.275 289.857 121.132 289.782 121.037 289.666C120.941 289.549 120.904 289.396 120.925 289.247C121.026 288.632 121.026 287.986 120.931 287.318C120.835 286.64 120.639 285.962 120.353 285.299C119.733 283.874 118.79 282.766 117.698 282.183C117.168 281.903 116.633 281.76 116.103 281.76L116.113 281.765Z" fill="black"/>
</g>
<path d="M136.31 310.592C136.263 310.592 136.215 310.592 136.157 310.576C135.129 310.364 118.763 301.456 116.384 288.563C116.331 288.277 116.522 288.002 116.808 287.949C117.099 287.896 117.375 288.087 117.428 288.373C119.633 300.317 134.943 309.055 136.321 309.521C136.432 309.521 136.538 309.548 136.634 309.611C136.877 309.776 136.941 310.104 136.777 310.348C136.734 310.412 136.586 310.592 136.305 310.592H136.31ZM135.945 309.702C135.945 309.702 135.918 309.733 135.902 309.755C135.918 309.733 135.929 309.717 135.945 309.702Z" fill="black"/>
<path d="M124.323 295.776C124.333 296.639 124.582 297.36 124.874 297.387C125.165 297.413 125.388 296.74 125.361 295.876C125.34 295.018 125.091 294.297 124.81 294.265C124.529 294.234 124.312 294.912 124.323 295.77V295.776Z" fill="black"/>
<path d="M124.894 297.652C124.894 297.652 124.868 297.652 124.852 297.652C124.242 297.593 124.067 296.449 124.057 295.781C124.052 295.177 124.158 294.43 124.475 294.138C124.613 294.016 124.746 294 124.841 294.011C125.424 294.069 125.615 295.214 125.631 295.876C125.647 296.47 125.551 297.217 125.228 297.519C125.106 297.63 124.984 297.657 124.894 297.657V297.652ZM124.587 295.77C124.597 296.528 124.783 296.979 124.889 297.095C124.984 296.973 125.117 296.549 125.101 295.882C125.08 295.145 124.905 294.695 124.799 294.562C124.709 294.7 124.581 295.119 124.587 295.77Z" fill="black"/>
<path d="M127.973 308.207C128.852 308.642 129.684 308.78 129.817 308.531C129.944 308.276 129.329 307.73 128.455 307.301C127.58 306.867 126.775 306.713 126.637 306.967C126.499 307.216 127.093 307.778 127.973 308.213V308.207Z" fill="black"/>
<path d="M129.467 308.917C128.975 308.917 128.296 308.663 127.856 308.446C127.236 308.138 126.521 307.656 126.378 307.206C126.325 307.036 126.362 306.914 126.404 306.835C126.749 306.199 128.27 306.909 128.572 307.057C129.202 307.37 129.928 307.858 130.072 308.287C130.125 308.446 130.093 308.573 130.05 308.647C129.95 308.843 129.738 308.917 129.467 308.917ZM126.913 307.105C127.019 307.275 127.401 307.63 128.09 307.969C128.8 308.319 129.319 308.398 129.531 308.387C129.414 308.218 129.022 307.873 128.339 307.534C127.634 307.185 127.109 307.089 126.913 307.105Z" fill="black"/>
<path d="M145.135 292.146C147.562 277.907 138.028 265.735 129.252 255.593L126.899 257.479C134.504 266.737 142.925 275.57 142.363 288.293C141.261 298.452 138.781 310.529 129.459 316.342C103.793 289.253 87.9255 323.469 108.976 328.498C115.96 328.847 122.898 323.469 128.807 320.109L128.764 320.422C142.639 337.225 137.949 356.339 129.3 366.164C129.13 366.354 134.43 365.565 134.562 365.385C142.443 354.924 144.849 334.056 131.266 318.716C139.862 313.777 143.905 301.266 145.14 292.151L145.135 292.146ZM123.83 319.802C90.9834 342.63 96.8447 287.43 126.973 317.915C125.971 318.546 124.922 319.161 123.83 319.802Z" fill="#5DC461"/>
<path d="M129.251 366.704C129.06 366.678 128.864 366.529 128.795 366.349C128.732 366.169 128.769 365.952 128.901 365.809C136.485 357.198 142.601 338.163 128.483 320.904C127.529 321.46 126.559 322.059 125.536 322.685C120.48 325.79 114.746 329.303 108.953 329.022C108.922 329.022 108.89 329.017 108.858 329.006C103.023 327.613 99.2393 323.728 98.7464 318.62C98.2641 313.612 101.11 308.668 105.668 306.586C108.853 305.134 117.518 303.147 129.542 315.653C138.425 309.84 140.783 297.97 141.838 288.23C142.336 276.853 135.611 268.777 128.493 260.224C127.825 259.419 127.158 258.618 126.49 257.808C126.4 257.696 126.357 257.559 126.373 257.416C126.389 257.272 126.458 257.145 126.569 257.055L128.922 255.169C129.145 254.989 129.468 255.02 129.654 255.238C138.668 265.661 148.086 277.971 145.659 292.22C145.017 296.936 142.166 312.542 132.076 318.832C139.686 327.697 141.403 337.305 141.493 343.86C141.599 351.978 139.167 360.139 134.985 365.692C134.577 366.238 129.373 366.704 129.256 366.704H129.251ZM129.32 320.258C135.589 327.931 138.589 336.801 138.006 345.937C137.545 353.133 134.826 360.207 130.502 365.554C131.774 365.39 133.708 365.083 134.227 364.94C141.323 355.396 144.948 334.952 130.867 319.06C130.761 318.943 130.714 318.779 130.74 318.625C130.767 318.466 130.862 318.329 131 318.249C139.045 313.628 143.311 301.695 144.615 292.072C144.615 292.066 144.615 292.061 144.615 292.056C146.936 278.426 138.329 266.927 129.187 256.324L127.65 257.553C128.202 258.221 128.753 258.883 129.304 259.546C136.241 267.876 143.412 276.487 142.892 288.309C141.795 298.452 139.304 310.82 129.739 316.781C129.527 316.914 129.246 316.882 129.076 316.697C120.825 307.99 112.451 304.652 106.108 307.545C101.953 309.437 99.3612 313.946 99.801 318.509C100.257 323.204 103.627 326.643 109.054 327.957C114.486 328.211 120.067 324.788 124.979 321.773C126.22 321.01 127.391 320.289 128.551 319.632C128.726 319.532 128.944 319.542 129.113 319.653C129.283 319.765 129.368 319.966 129.341 320.167L129.33 320.247L129.32 320.258ZM109.817 326.002C105.784 326.002 103.707 323.993 102.922 322.997C100.05 319.335 100.713 313.321 104.337 310.126C106.304 308.393 113.776 303.809 127.343 317.539C127.454 317.656 127.513 317.815 127.491 317.974C127.476 318.133 127.386 318.276 127.248 318.36C126.235 319.002 125.154 319.632 124.105 320.247C117.772 324.645 113.13 326.002 109.812 326.002H109.817ZM110.427 309.039C107.597 309.039 105.832 310.226 105.042 310.921C101.815 313.761 101.216 319.097 103.76 322.345C107.178 326.707 114.566 325.588 123.527 319.362C123.538 319.357 123.549 319.346 123.564 319.341C124.418 318.843 125.292 318.329 126.129 317.815C119.134 310.883 113.956 309.039 110.432 309.039H110.427Z" fill="black"/>
<path d="M103.241 400.205C109.95 406.649 121.524 388.743 131.048 388.717C135.568 387.901 140.974 388.579 144.026 391.753C144.344 392.113 143.936 392.601 143.427 392.49C129.622 391.075 123.665 405.26 110.347 406.098C106.245 406.437 101.953 404.201 102.212 400.417C102.249 399.956 102.949 399.834 103.241 400.2V400.205Z" fill="#FB3A37"/>
<path d="M109.504 406.67C107.056 406.67 104.713 405.822 103.24 404.37C102.116 403.263 101.581 401.885 101.682 400.385C101.719 399.967 102 399.638 102.413 399.511C102.858 399.378 103.341 399.511 103.627 399.839C107.045 403.088 112.127 399.23 117.507 395.144C121.99 391.742 126.627 388.218 130.999 388.181C135.276 387.424 141.032 387.863 144.413 391.382C144.704 391.711 144.752 392.145 144.545 392.5C144.312 392.898 143.835 393.099 143.353 393.014C136.214 392.293 131.28 395.823 126.065 399.564C121.492 402.839 116.765 406.23 110.384 406.628C110.092 406.654 109.801 406.665 109.509 406.665L109.504 406.67ZM102.737 400.523C102.673 401.678 103.102 402.749 103.982 403.612C105.397 405.006 107.877 405.774 110.299 405.573C116.383 405.191 120.988 401.89 125.44 398.705C130.597 395.012 135.928 391.197 143.48 391.965H143.491C140.374 388.881 134.916 388.558 131.137 389.236C131.105 389.236 131.074 389.246 131.047 389.246C127.019 389.257 122.509 392.68 118.148 395.992C112.387 400.364 106.944 404.497 102.869 400.587C102.853 400.571 102.837 400.555 102.821 400.534C102.811 400.523 102.763 400.512 102.731 400.518L102.737 400.523Z" fill="black"/>
<g style="mix-blend-mode:hard-light" opacity="0.27">
<path d="M109.504 406.67C107.056 406.67 104.713 405.822 103.24 404.37C102.116 403.263 101.581 401.885 101.682 400.385C101.719 399.967 102 399.638 102.413 399.511C102.858 399.378 103.341 399.511 103.627 399.839C107.045 403.088 112.127 399.23 117.507 395.144C121.99 391.742 126.627 388.218 130.999 388.181C135.276 387.424 141.032 387.863 144.413 391.382C144.704 391.711 144.752 392.145 144.545 392.5C144.312 392.898 143.835 393.099 143.353 393.014C136.214 392.293 131.28 395.823 126.065 399.564C121.492 402.839 116.765 406.23 110.384 406.628C110.092 406.654 109.801 406.665 109.509 406.665L109.504 406.67ZM102.737 400.523C102.673 401.678 103.102 402.749 103.982 403.612C105.397 405.006 107.877 405.774 110.299 405.573C116.383 405.191 120.988 401.89 125.44 398.705C130.597 395.012 135.928 391.197 143.48 391.965H143.491C140.374 388.881 134.916 388.558 131.137 389.236C131.105 389.236 131.074 389.246 131.047 389.246C127.019 389.257 122.509 392.68 118.148 395.992C112.387 400.364 106.944 404.497 102.869 400.587C102.853 400.571 102.837 400.555 102.821 400.534C102.811 400.523 102.763 400.512 102.731 400.518L102.737 400.523Z" fill="black"/>
</g>
<g opacity="0.34">
<path d="M108.355 401.355C108.355 401.355 123.194 400.083 132.659 388.494C132.659 388.494 126.263 389.061 120.666 393.449C115.07 397.836 112.378 399.829 108.355 401.355Z" fill="black"/>
<path d="M108.355 401.885C108.112 401.885 107.894 401.715 107.841 401.471C107.783 401.212 107.921 400.952 108.17 400.857C112.033 399.389 114.577 397.545 120.343 393.025C125.998 388.595 132.352 387.985 132.617 387.964C132.829 387.943 133.03 388.054 133.131 388.245C133.232 388.436 133.211 388.663 133.073 388.828C123.571 400.454 108.552 401.869 108.403 401.879C108.387 401.879 108.371 401.879 108.355 401.879V401.885ZM131.324 389.241C129.172 389.665 124.864 390.831 120.99 393.867C117.28 396.771 114.8 398.684 112.267 400.11C117.036 398.965 125.161 396.103 131.319 389.246L131.324 389.241Z" fill="black"/>
</g>
<path d="M124.158 391.106C131.647 404.396 134.572 424.771 154.801 421.761L155.288 425.354C133.496 428.444 128.653 408.402 120.666 393.448L124.158 391.106Z" fill="#5DC461"/>
<path d="M150.947 426.208C135.711 426.208 129.765 413.617 123.993 401.408C122.774 398.832 121.518 396.167 120.199 393.698C120.072 393.459 120.146 393.162 120.368 393.009L123.861 390.667C123.983 390.587 124.136 390.555 124.279 390.592C124.423 390.624 124.544 390.719 124.619 390.847C126.262 393.761 127.708 397.068 129.107 400.268C134.116 411.704 139.299 423.532 154.72 421.242C154.864 421.221 155.001 421.258 155.118 421.343C155.229 421.428 155.303 421.555 155.325 421.698L155.812 425.291C155.849 425.577 155.648 425.847 155.362 425.884C153.809 426.107 152.336 426.208 150.942 426.208H150.947ZM121.359 393.623C122.61 395.992 123.797 398.514 124.953 400.957C131.026 413.808 137.301 427.092 154.694 424.904L154.349 422.36C138.541 424.432 133.252 412.366 128.143 400.692C126.834 397.704 125.482 394.614 123.977 391.869L121.359 393.623Z" fill="black"/>
<path d="M156.157 423.548C156.39 426.065 153.857 426.277 153.671 423.754C153.438 421.237 155.971 421.025 156.157 423.548Z" fill="#5DC461"/>
<path d="M154.996 426.07C154.773 426.07 154.551 426.022 154.344 425.921C153.66 425.598 153.22 424.819 153.146 423.791C153.051 422.774 153.353 421.937 153.973 421.502C154.423 421.184 154.99 421.136 155.489 421.375C156.172 421.698 156.607 422.472 156.686 423.5C156.782 424.522 156.48 425.36 155.86 425.794C155.6 425.974 155.298 426.07 154.996 426.07ZM154.837 422.286C154.747 422.286 154.662 422.313 154.582 422.371C154.286 422.578 154.143 423.076 154.201 423.701C154.249 424.337 154.471 424.803 154.794 424.962C154.948 425.036 155.107 425.021 155.25 424.925C155.547 424.719 155.69 424.22 155.626 423.595C155.626 423.595 155.626 423.59 155.626 423.585C155.579 422.959 155.356 422.488 155.033 422.334C154.969 422.302 154.9 422.286 154.831 422.286H154.837Z" fill="black"/>
<path d="M154.996 426.07C154.773 426.07 154.551 426.022 154.344 425.921C153.66 425.598 153.22 424.819 153.146 423.791C153.051 422.774 153.353 421.937 153.973 421.502C154.423 421.184 154.99 421.136 155.489 421.375C156.172 421.698 156.607 422.472 156.686 423.5C156.782 424.522 156.48 425.36 155.86 425.794C155.6 425.974 155.298 426.07 154.996 426.07ZM154.837 422.286C154.747 422.286 154.662 422.313 154.582 422.371C154.286 422.578 154.143 423.076 154.201 423.701C154.249 424.337 154.471 424.803 154.794 424.962C154.948 425.036 155.107 425.021 155.25 424.925C155.547 424.719 155.69 424.22 155.626 423.595C155.626 423.595 155.626 423.59 155.626 423.585C155.579 422.959 155.356 422.488 155.033 422.334C154.969 422.302 154.9 422.286 154.831 422.286H154.837Z" fill="black"/>
<path d="M114.788 420.087C114.465 424.533 105.795 423.404 112.26 414.714C112.26 414.714 114.788 418.693 114.788 420.087Z" fill="#FB3A37"/>
<path d="M112.144 423.166C111.217 423.166 110.374 422.747 109.86 421.995C109.203 421.03 108.588 418.762 111.831 414.401L112.293 413.781L112.706 414.433C112.971 414.852 115.319 418.582 115.319 420.092V420.13C115.191 421.857 114.026 422.774 112.971 423.06C112.69 423.134 112.414 423.171 112.144 423.171V423.166ZM112.229 415.673C110.528 418.158 109.971 420.267 110.74 421.396C111.143 421.99 111.916 422.244 112.701 422.032C113.602 421.788 114.185 421.057 114.259 420.071C114.243 419.276 113.135 417.183 112.229 415.673Z" fill="black"/>
<path d="M112.097 421.396C112.426 421.369 112.791 421.29 113.067 421.11C113.348 420.94 113.528 420.643 113.666 420.299C113.74 420.098 114.058 420.188 114.021 420.394C113.979 421.089 113.406 421.703 112.712 421.793C112.489 421.804 111.864 421.894 111.906 421.539C111.928 421.449 112.007 421.396 112.097 421.396Z" fill="white"/>
<path d="M113.999 419.499C113.999 419.78 113.559 419.78 113.565 419.499C113.565 419.218 114.004 419.218 113.999 419.499Z" fill="white"/>
<path d="M113.781 419.843C113.718 419.843 113.649 419.827 113.596 419.796C113.49 419.732 113.432 419.626 113.432 419.499C113.432 419.377 113.49 419.266 113.596 419.207C113.707 419.139 113.856 419.139 113.972 419.207C114.078 419.271 114.136 419.377 114.136 419.504C114.136 419.631 114.078 419.737 113.972 419.801C113.914 419.833 113.85 419.849 113.787 419.849L113.781 419.843ZM113.781 419.419C113.781 419.419 113.744 419.419 113.728 419.435C113.713 419.446 113.697 419.456 113.697 419.499C113.697 419.541 113.713 419.557 113.728 419.568C113.76 419.589 113.808 419.589 113.834 419.568C113.85 419.557 113.866 419.547 113.866 419.504C113.866 419.462 113.85 419.446 113.834 419.435C113.819 419.425 113.797 419.419 113.781 419.419Z" fill="white"/>
<path d="M124.941 410.485C124.539 413.336 119.679 412.165 123.436 407.285C123.436 407.285 124.941 409.653 124.941 410.485Z" fill="#FB3A37"/>
<path d="M123.383 412.547C122.747 412.547 122.159 412.234 121.815 411.688C121.407 411.036 121.014 409.563 123.012 406.961L123.473 406.363L123.882 407.004C124.252 407.592 125.471 409.574 125.471 410.485V410.559C125.323 411.566 124.682 412.313 123.797 412.504C123.659 412.536 123.521 412.547 123.383 412.547ZM123.399 408.249C122.472 409.669 122.414 410.65 122.71 411.121C122.928 411.466 123.299 411.524 123.574 411.466C124.009 411.37 124.321 410.994 124.411 410.453C124.385 410.093 123.924 409.15 123.399 408.249Z" fill="black"/>
<path d="M123.346 411.19C123.722 411.111 124.008 410.983 124.188 410.607C124.236 410.501 124.358 410.453 124.459 410.512C124.724 410.734 124.39 411.301 124.141 411.444C123.929 411.619 123.113 411.757 123.171 411.322C123.197 411.243 123.266 411.201 123.346 411.19Z" fill="white"/>
<path d="M124.471 410.136C124.471 410.305 124.206 410.305 124.211 410.136C124.211 409.966 124.476 409.966 124.471 410.136Z" fill="white"/>
<path d="M124.338 410.395C124.291 410.395 124.243 410.385 124.2 410.358C124.121 410.31 124.073 410.231 124.079 410.136C124.079 410.046 124.121 409.961 124.2 409.918C124.285 409.871 124.397 409.871 124.481 409.918C124.561 409.966 124.603 410.046 124.603 410.141C124.603 410.236 124.561 410.316 124.481 410.363C124.439 410.39 124.391 410.401 124.344 410.401L124.338 410.395Z" fill="white"/>
<g opacity="0.34">
<path d="M135.848 263.234L134.576 266.975L138.471 272.937L137.873 266.546L135.848 263.234Z" fill="black"/>
<path d="M138.472 273.466C138.297 273.466 138.128 273.382 138.027 273.228L134.132 267.267C134.042 267.129 134.021 266.959 134.074 266.805L135.351 263.07C135.414 262.874 135.589 262.736 135.796 262.715C136.003 262.693 136.199 262.789 136.305 262.964L138.329 266.27C138.372 266.339 138.398 266.419 138.403 266.498L139.002 272.889C139.023 273.133 138.88 273.36 138.647 273.44C138.589 273.461 138.531 273.472 138.472 273.472V273.466ZM135.16 266.901L137.746 270.854L137.359 266.715L135.987 264.474L135.16 266.901Z" fill="black"/>
</g>
<path d="M172.082 242.064C171.515 239.086 164.054 236.823 149.623 239.107C162.76 232.08 167.498 225.626 166.126 222.918C164.753 220.21 157.275 221.249 145.971 229.203C152.961 218.663 153.396 212.055 150.624 210.752C147.853 209.453 141.88 213.459 136.061 224.153C136.792 212.299 133.337 206.952 129.951 207.784C126.564 208.611 123.257 215.616 124.285 228.451C117.83 217.285 111.137 213.671 107.968 215.198C104.804 216.729 105.17 223.401 112.849 232.801C101.831 227.576 94.5014 227.884 92.7578 230.533C91.0143 233.183 94.8565 238.174 106.171 242.318C93.0228 242.907 86.7004 246.605 87.2674 249.583C87.8345 252.561 95.2963 254.824 109.722 252.54C96.5841 259.567 91.8463 266.021 93.2189 268.729C94.5915 271.437 102.069 270.398 113.373 262.444C106.383 272.984 105.949 279.592 108.72 280.896C111.492 282.199 117.465 278.188 123.284 267.494C122.552 279.348 126.008 284.695 129.394 283.863C132.78 283.031 136.087 276.031 135.059 263.197C141.514 274.362 148.208 277.976 151.377 276.45C154.541 274.918 154.175 268.247 146.496 258.846C157.514 264.071 164.843 263.764 166.587 261.114C168.33 258.465 164.488 253.473 153.173 249.329C166.322 248.741 172.644 245.042 172.077 242.064H172.082Z" fill="white"/>
<path d="M128.715 284.483C127.883 284.483 127.077 284.171 126.341 283.551C123.882 281.495 122.551 276.386 122.673 269.662C117.093 279.115 111.412 282.745 108.502 281.378C107.697 280.997 107.114 280.255 106.828 279.221C105.943 276.063 107.654 270.716 111.555 264.331C103.224 269.789 97.4843 271.108 94.7921 270.435C93.8223 270.197 93.1227 269.688 92.7571 268.968C91.3315 266.148 95.2532 260.213 106.965 253.468C93.9071 255.105 87.3409 252.752 86.7526 249.679C86.5989 248.868 86.8533 248.02 87.484 247.22C89.6356 244.496 95.6295 242.567 103.738 241.932C97.2458 239.25 93.0274 236.087 92.0416 233.093C91.6918 232.033 91.7925 231.042 92.3225 230.231C94.0873 227.55 100.664 226.893 111.104 231.418C106.981 225.907 104.983 220.788 105.72 217.466C106.006 216.162 106.706 215.214 107.739 214.71C111.12 213.078 117.517 216.597 123.622 226.31C123.081 214.424 126.367 208.118 129.828 207.27C130.941 207 132.038 207.286 133.013 208.102C135.472 210.158 136.802 215.267 136.68 221.991C142.261 212.543 147.942 208.908 150.851 210.275C151.657 210.656 152.24 211.398 152.526 212.432C153.411 215.59 151.699 220.937 147.804 227.322C156.135 221.864 161.875 220.55 164.567 221.217C165.537 221.456 166.236 221.965 166.602 222.685C168.033 225.504 164.106 231.439 152.394 238.185C165.452 236.548 172.018 238.901 172.606 241.974C172.76 242.785 172.506 243.633 171.875 244.433C169.718 247.157 163.729 249.085 155.621 249.721C162.113 252.403 166.332 255.566 167.317 258.56C167.667 259.62 167.566 260.611 167.036 261.422C165.272 264.103 158.695 264.76 148.255 260.235C152.378 265.746 154.376 270.865 153.639 274.187C153.353 275.491 152.653 276.439 151.62 276.943C148.244 278.575 141.842 275.056 135.737 265.343C136.277 277.239 132.997 283.545 129.531 284.393C129.261 284.457 128.991 284.494 128.72 284.494L128.715 284.483ZM123.288 266.97C123.336 266.97 123.384 266.975 123.437 266.991C123.675 267.06 123.834 267.282 123.818 267.532C123.357 274.993 124.549 280.679 127.019 282.74C127.735 283.339 128.498 283.545 129.271 283.355C132.541 282.554 135.498 275.231 134.539 263.245C134.518 262.996 134.672 262.768 134.91 262.699C135.149 262.625 135.403 262.725 135.525 262.937C141.566 273.392 148.08 277.457 151.153 275.978C151.895 275.618 152.383 274.94 152.6 273.949C153.342 270.605 150.91 265.083 146.092 259.185C145.933 258.995 145.933 258.719 146.087 258.523C146.241 258.327 146.506 258.263 146.734 258.369C157.147 263.308 164.509 263.319 166.151 260.828C166.506 260.288 166.559 259.636 166.31 258.883C165.33 255.911 160.354 252.53 152.998 249.833C152.759 249.748 152.616 249.504 152.659 249.255C152.701 249.006 152.908 248.815 153.157 248.805C163.782 248.333 169.368 245.895 171.048 243.77C171.488 243.214 171.663 242.673 171.568 242.17C171.138 239.918 164.826 237.242 149.712 239.637C149.458 239.674 149.209 239.526 149.129 239.282C149.044 239.038 149.156 238.768 149.383 238.646C162.473 231.646 166.787 225.377 165.664 223.162C165.441 222.722 164.985 222.415 164.318 222.245C161.631 221.578 155.483 223.168 146.288 229.638C146.082 229.786 145.796 229.76 145.615 229.585C145.435 229.405 145.403 229.124 145.541 228.912C152.399 218.573 151.848 213.899 151.514 212.718C151.307 211.981 150.936 211.483 150.412 211.239C148.196 210.201 142.425 213.597 136.537 224.413C136.421 224.63 136.166 224.736 135.928 224.667C135.689 224.598 135.53 224.376 135.546 224.127C136.007 216.666 134.815 210.98 132.345 208.918C131.63 208.319 130.872 208.113 130.088 208.304C126.818 209.104 123.86 216.427 124.82 228.414C124.841 228.663 124.687 228.891 124.449 228.959C124.216 229.034 123.956 228.933 123.834 228.721C117.792 218.266 111.269 214.201 108.205 215.68C107.463 216.04 106.976 216.719 106.759 217.709C106.017 221.053 108.449 226.575 113.267 232.473C113.426 232.663 113.426 232.939 113.272 233.135C113.118 233.331 112.853 233.395 112.625 233.289C102.212 228.35 94.8504 228.339 93.2075 230.83C92.8525 231.371 92.7995 232.022 93.0486 232.775C94.029 235.748 99.0053 239.128 106.361 241.826C106.6 241.91 106.743 242.154 106.7 242.403C106.663 242.652 106.451 242.838 106.202 242.854C95.5765 243.325 89.9907 245.763 88.3107 247.888C87.8708 248.444 87.6959 248.985 87.7913 249.488C88.2206 251.74 94.5324 254.416 109.647 252.021C109.896 251.979 110.15 252.132 110.23 252.376C110.315 252.62 110.203 252.89 109.976 253.012C96.8855 260.012 92.5769 266.281 93.6951 268.496C93.9177 268.936 94.3735 269.243 95.0412 269.413C97.7281 270.08 103.876 268.491 113.07 262.02C113.277 261.872 113.563 261.893 113.744 262.073C113.924 262.254 113.956 262.534 113.818 262.746C106.96 273.085 107.511 277.759 107.845 278.94C108.052 279.677 108.423 280.175 108.947 280.419C111.168 281.463 116.934 278.061 122.822 267.245C122.917 267.071 123.097 266.97 123.288 266.97Z" fill="black"/>
<g opacity="0.12">
<path d="M93.6532 265.47C92.9537 266.821 92.8265 267.939 93.2293 268.729C94.3952 271.034 99.9969 270.621 108.614 265.539C109.6 263.372 111.879 263.843 113.675 261.141C104.104 267.876 96.356 266.731 93.6585 265.475L93.6532 265.47Z" fill="black"/>
<path d="M96.3451 270.61C95.6985 270.61 95.1209 270.536 94.6068 270.388C93.7324 270.133 93.0911 269.64 92.752 268.973C92.2644 268.008 92.4128 266.71 93.1812 265.232C93.3137 264.977 93.6158 264.877 93.8755 264.993C96.8698 266.392 104.342 267.06 113.362 260.706C113.569 260.558 113.855 260.579 114.035 260.759C114.215 260.939 114.247 261.22 114.109 261.432C113.124 262.921 111.968 263.536 111.041 264.034C110.182 264.495 109.499 264.855 109.091 265.762C109.048 265.862 108.969 265.942 108.879 266C103.796 268.999 99.3712 270.615 96.3451 270.615V270.61ZM93.9126 266.159C93.4886 267.129 93.4144 267.929 93.7006 268.496C93.9073 268.904 94.3153 269.201 94.9089 269.376C97.4739 270.123 102.434 268.554 108.206 265.168C108.28 265.02 108.359 264.887 108.444 264.76C101.936 267.685 96.6419 267.219 93.9126 266.159Z" fill="black"/>
</g>
<g opacity="0.12">
<path d="M144.205 256.223C145.869 258.258 148.858 258.566 149.876 260.32C159.007 263.976 165.033 263.483 166.591 261.114C167.29 260.055 167.089 258.619 165.875 257.008C163.983 259.541 155.053 261.363 144.21 256.218L144.205 256.223Z" fill="black"/>
<path d="M161.243 263.504C158.339 263.504 154.455 262.725 149.674 260.812C149.563 260.77 149.473 260.69 149.415 260.584C148.98 259.832 148.069 259.371 147.009 258.83C145.922 258.279 144.687 257.649 143.792 256.557C143.633 256.366 143.633 256.091 143.786 255.895C143.94 255.699 144.205 255.635 144.433 255.741C154.969 260.738 163.713 259.016 165.446 256.69C165.547 256.557 165.7 256.478 165.87 256.478C166.04 256.467 166.193 256.557 166.294 256.69C167.619 258.444 167.879 260.118 167.031 261.406C166.193 262.678 164.238 263.504 161.243 263.504ZM150.231 259.89C158.837 263.303 164.746 262.948 166.146 260.823C166.654 260.049 166.532 259.005 165.806 257.845C163.522 259.832 157.03 261.173 148.805 258.597C149.378 258.952 149.881 259.355 150.236 259.89H150.231Z" fill="black"/>
</g>
<g opacity="0.12">
<path d="M150.756 272.221C147.592 273.752 140.893 270.139 134.438 258.968C135.466 271.808 132.154 278.808 128.773 279.634C126.6 280.164 124.395 278.151 123.293 273.498C123.855 281.139 126.653 284.531 129.398 283.858C132.785 283.031 136.092 276.026 135.063 263.191C141.518 274.357 148.212 277.971 151.381 276.444C153.209 275.559 153.856 272.958 152.595 269.105C152.457 270.647 151.8 271.712 150.756 272.216V272.221Z" fill="black"/>
<path d="M128.715 284.478C127.978 284.478 127.257 284.229 126.59 283.747C124.496 282.226 123.134 278.601 122.763 273.541C122.742 273.265 122.938 273.021 123.208 272.979C123.479 272.937 123.744 273.111 123.807 273.382C124.449 276.089 125.519 278.018 126.812 278.808C127.406 279.168 128.026 279.274 128.646 279.121C131.916 278.32 134.873 270.997 133.914 259.01C133.892 258.761 134.046 258.534 134.285 258.465C134.518 258.39 134.778 258.491 134.899 258.703C140.941 269.158 147.454 273.223 150.528 271.744C151.418 271.315 151.954 270.388 152.07 269.063C152.091 268.814 152.287 268.612 152.537 268.586C152.786 268.559 153.024 268.708 153.098 268.946C154.381 272.873 153.824 275.856 151.609 276.927C148.233 278.559 141.831 275.04 135.726 265.327C136.267 277.223 132.986 283.529 129.52 284.377C129.25 284.441 128.985 284.478 128.715 284.478ZM124.512 277.955C125.116 280.318 126.044 282.04 127.21 282.888C127.867 283.365 128.561 283.524 129.266 283.349C131.826 282.724 134.195 278.103 134.64 270.372C133.633 276.312 131.306 279.56 128.89 280.154C127.994 280.376 127.082 280.223 126.25 279.714C125.609 279.322 125.021 278.728 124.507 277.96L124.512 277.955ZM135.148 262.672C135.302 262.699 135.435 262.789 135.519 262.927C141.561 273.382 148.074 277.446 151.148 275.968C152.489 275.321 152.982 273.541 152.563 271.14C152.192 271.834 151.657 272.364 150.978 272.693C147.608 274.325 141.201 270.812 135.095 261.093C135.122 261.628 135.138 262.153 135.143 262.667L135.148 262.672Z" fill="black"/>
</g>
<g opacity="0.12">
<path d="M124.047 262.979C118.228 273.673 110.872 277.971 108.1 276.672C107.767 276.519 107.486 276.28 107.252 275.978C106.876 278.622 107.47 280.313 108.726 280.901C111.391 282.152 117.02 278.485 122.632 268.676C122.542 267.054 123.925 264.967 124.047 262.979Z" fill="black"/>
<path d="M109.838 281.659C109.34 281.659 108.894 281.563 108.502 281.378C107.607 280.959 106.192 279.688 106.727 275.899C106.759 275.687 106.912 275.517 107.119 275.459C107.326 275.406 107.543 275.48 107.676 275.65C107.861 275.888 108.078 276.068 108.333 276.19C110.532 277.224 117.713 273.509 123.585 262.725C123.702 262.508 123.956 262.402 124.194 262.471C124.433 262.54 124.592 262.762 124.576 263.011C124.512 264.045 124.147 265.062 123.792 266.048C123.447 267.012 123.119 267.918 123.161 268.65C123.166 268.75 123.145 268.856 123.092 268.941C117.941 277.949 112.938 281.659 109.838 281.659ZM107.681 277.049C107.601 278.787 108.047 279.995 108.953 280.419C111.369 281.558 116.786 277.775 122.096 268.544C122.096 267.945 122.244 267.319 122.451 266.673C116.817 275.226 110.495 278.384 107.877 277.149C107.808 277.118 107.744 277.086 107.681 277.049Z" fill="black"/>
</g>
<path d="M141.09 239.934C142.033 243.118 141.445 246.425 139.738 249.202C138.032 251.979 135.202 254.215 131.651 255.264C128.106 256.313 124.513 255.974 121.566 254.575C118.625 253.176 116.335 250.717 115.392 247.533C114.449 244.348 115.037 241.041 116.743 238.265C118.45 235.488 121.28 233.252 124.831 232.202C128.376 231.153 131.969 231.492 134.916 232.891C137.857 234.29 140.146 236.749 141.09 239.934Z" fill="#FFD401"/>
<path d="M127.449 256.409C125.324 256.409 123.241 255.953 121.344 255.052C118.138 253.526 115.843 250.908 114.889 247.681C113.935 244.454 114.433 241.01 116.299 237.984C118.148 234.979 121.127 232.743 124.683 231.688C128.239 230.639 131.954 230.894 135.144 232.409C138.35 233.935 140.645 236.553 141.599 239.78C142.553 243.007 142.055 246.452 140.189 249.472C138.34 252.477 135.361 254.713 131.805 255.767C130.364 256.191 128.896 256.403 127.449 256.403V256.409ZM129.039 232.112C127.693 232.112 126.326 232.308 124.985 232.706C121.678 233.686 118.911 235.753 117.2 238.54C115.499 241.306 115.037 244.443 115.907 247.379C116.776 250.315 118.869 252.699 121.8 254.093C124.752 255.497 128.196 255.73 131.503 254.755C134.81 253.775 137.571 251.708 139.288 248.921C140.99 246.155 141.451 243.018 140.582 240.082C139.712 237.146 137.619 234.762 134.688 233.368C132.934 232.536 131.005 232.112 129.039 232.112Z" fill="black"/>
<path d="M131.247 236.585C131.481 237.189 131.179 237.867 130.574 238.106C129.97 238.339 129.292 238.037 129.053 237.433C128.82 236.829 129.122 236.15 129.726 235.912C130.331 235.679 131.009 235.981 131.247 236.585Z" fill="black"/>
<path d="M130.155 238.445C129.578 238.445 129.032 238.095 128.809 237.523C128.672 237.163 128.682 236.776 128.836 236.421C128.99 236.071 129.276 235.801 129.631 235.663C130.373 235.377 131.205 235.748 131.491 236.484C131.777 237.226 131.406 238.058 130.67 238.344C130.5 238.408 130.325 238.44 130.15 238.44L130.155 238.445ZM130.155 236.097C130.044 236.097 129.938 236.119 129.827 236.161C129.599 236.251 129.419 236.421 129.323 236.643C129.228 236.866 129.217 237.115 129.308 237.337C129.488 237.804 130.018 238.037 130.484 237.857C130.95 237.677 131.184 237.147 131.003 236.68C130.866 236.32 130.521 236.097 130.155 236.097Z" fill="black"/>
<path d="M123.273 239.669C123.506 240.273 123.204 240.951 122.6 241.19C121.996 241.423 121.317 241.121 121.079 240.517C120.846 239.913 121.148 239.234 121.752 238.996C122.356 238.763 123.034 239.065 123.273 239.669Z" fill="black"/>
<path d="M122.175 241.534C121.598 241.534 121.052 241.185 120.829 240.612C120.543 239.87 120.914 239.038 121.651 238.752C122.393 238.466 123.225 238.837 123.511 239.574C123.649 239.934 123.638 240.321 123.484 240.676C123.331 241.026 123.044 241.296 122.689 241.434C122.52 241.497 122.345 241.529 122.17 241.529L122.175 241.534ZM122.175 239.187C122.064 239.187 121.953 239.208 121.847 239.25C121.38 239.431 121.147 239.96 121.327 240.427C121.507 240.893 122.037 241.126 122.504 240.946C122.732 240.856 122.912 240.686 123.007 240.464C123.103 240.241 123.113 239.992 123.023 239.77C122.885 239.409 122.541 239.187 122.175 239.187Z" fill="black"/>
<path d="M127.904 239.139C128.185 239.865 127.824 240.681 127.098 240.962C126.372 241.243 125.556 240.882 125.275 240.156C124.994 239.43 125.355 238.614 126.081 238.333C126.807 238.053 127.623 238.413 127.904 239.139Z" fill="#FDA493"/>
<path d="M126.589 241.322C125.916 241.322 125.28 240.914 125.025 240.252C124.691 239.393 125.121 238.418 125.985 238.084C126.848 237.751 127.818 238.18 128.152 239.044C128.311 239.462 128.301 239.918 128.12 240.326C127.94 240.734 127.612 241.052 127.193 241.211C126.997 241.285 126.79 241.322 126.589 241.322ZM126.589 238.503C126.451 238.503 126.313 238.53 126.175 238.583C125.587 238.81 125.29 239.473 125.518 240.066C125.746 240.655 126.414 240.946 126.997 240.723C127.283 240.612 127.506 240.4 127.633 240.119C127.755 239.838 127.765 239.526 127.654 239.245C127.479 238.789 127.045 238.514 126.583 238.514L126.589 238.503Z" fill="black"/>
<path d="M128.852 245.901C127.225 246.531 125.476 246.351 124.257 245.858C123.351 245.492 122.916 244.459 123.282 243.553C123.648 242.652 124.67 242.212 125.571 242.573C126.276 242.838 128.009 243.23 128.942 241.153C129.345 240.262 130.389 239.865 131.279 240.262C132.169 240.665 132.567 241.709 132.169 242.599C131.369 244.38 130.15 245.392 128.857 245.895L128.852 245.901Z" fill="white"/>
<path d="M126.615 246.574C125.772 246.574 124.924 246.42 124.156 246.107C123.117 245.689 122.614 244.496 123.032 243.458C123.451 242.424 124.627 241.921 125.666 242.329C126.45 242.626 127.887 242.854 128.697 241.047C129.159 240.024 130.362 239.563 131.39 240.024C132.413 240.485 132.868 241.688 132.413 242.711C131.665 244.369 130.468 245.561 128.952 246.144C128.221 246.425 127.42 246.568 126.62 246.568L126.615 246.574ZM124.924 242.716C124.325 242.716 123.764 243.071 123.525 243.654C123.212 244.422 123.589 245.302 124.357 245.614C125.422 246.044 127.134 246.282 128.756 245.657C130.16 245.116 131.225 244.051 131.925 242.499C132.264 241.741 131.925 240.851 131.172 240.511C130.415 240.172 129.524 240.511 129.185 241.264C128.13 243.611 126.079 243.05 125.481 242.822C125.3 242.748 125.115 242.716 124.929 242.716H124.924Z" fill="black"/>
<path d="M122.016 243.792C122.483 245.005 121.884 246.367 120.67 246.839C119.457 247.31 118.095 246.706 117.623 245.493C117.157 244.279 117.756 242.917 118.969 242.446C120.183 241.974 121.545 242.578 122.016 243.792Z" fill="#FDA493"/>
<path d="M119.816 247.263C119.456 247.263 119.095 247.188 118.756 247.035C118.115 246.754 117.627 246.235 117.373 245.583C117.119 244.931 117.14 244.221 117.421 243.58C117.702 242.939 118.221 242.451 118.873 242.197C119.525 241.942 120.235 241.958 120.876 242.244C121.517 242.525 122.005 243.044 122.259 243.696C122.514 244.348 122.492 245.058 122.212 245.699C121.931 246.341 121.411 246.828 120.759 247.082C120.452 247.199 120.134 247.263 119.816 247.263ZM119.816 242.552C119.562 242.552 119.307 242.599 119.064 242.695C118.544 242.896 118.131 243.288 117.908 243.797C117.68 244.306 117.67 244.873 117.871 245.397C118.073 245.917 118.465 246.33 118.974 246.552C119.482 246.78 120.055 246.791 120.574 246.59C121.093 246.388 121.507 245.996 121.729 245.487C121.957 244.979 121.968 244.412 121.766 243.887C121.565 243.368 121.173 242.954 120.664 242.732C120.394 242.61 120.108 242.552 119.821 242.552H119.816Z" fill="black"/>
<path d="M118.221 245.397C118.094 245.397 117.978 245.302 117.962 245.169C117.856 244.481 117.972 243.924 118.306 243.511C118.783 242.917 119.525 242.864 119.557 242.859C119.689 242.854 119.827 242.96 119.838 243.108C119.848 243.251 119.737 243.378 119.594 243.389C119.594 243.389 119.043 243.437 118.714 243.845C118.481 244.136 118.402 244.555 118.481 245.09C118.502 245.233 118.402 245.371 118.259 245.392C118.243 245.392 118.232 245.392 118.216 245.392L118.221 245.397Z" fill="white"/>
<path d="M132.201 238.964C132.424 240.247 133.648 241.1 134.925 240.877C136.208 240.655 137.061 239.431 136.838 238.154C136.616 236.871 135.392 236.018 134.114 236.241C132.832 236.463 131.979 237.687 132.201 238.964Z" fill="#FDA493"/>
<path d="M134.517 241.179C133.982 241.179 133.463 241.015 133.018 240.702C132.445 240.3 132.064 239.701 131.942 239.012C131.693 237.592 132.647 236.23 134.072 235.981C135.498 235.732 136.855 236.686 137.104 238.111C137.353 239.537 136.399 240.893 134.973 241.142C134.82 241.169 134.666 241.185 134.517 241.185V241.179ZM132.467 238.922C132.562 239.473 132.869 239.95 133.325 240.273C133.781 240.591 134.332 240.718 134.888 240.623C136.023 240.422 136.786 239.341 136.584 238.207C136.383 237.073 135.302 236.309 134.168 236.511C133.034 236.712 132.27 237.793 132.472 238.927L132.467 238.922Z" fill="black"/>
<path d="M136.145 238.424C136.039 238.424 135.943 238.36 135.901 238.26C135.694 237.762 135.413 237.444 135.058 237.311C134.565 237.126 134.078 237.369 134.073 237.375C133.945 237.438 133.781 237.391 133.717 237.258C133.654 237.131 133.702 236.972 133.829 236.903C133.855 236.887 134.518 236.548 135.238 236.813C135.737 236.993 136.124 237.412 136.389 238.058C136.447 238.196 136.378 238.35 136.245 238.403C136.214 238.419 136.177 238.424 136.145 238.424Z" fill="white"/>
<path d="M126.667 242.98L126.137 242.99L126.198 246.312L126.728 246.302L126.667 242.98Z" fill="black"/>
<path d="M129.053 241.421L128.654 241.771L130.844 244.27L131.243 243.92L129.053 241.421Z" fill="black"/>
</g>
<rect x="80.834" y="429.802" width="65.9421" height="19.1983" fill="#FF9FC7"/>
<path d="M309.785 354.088L370.735 361.348L365.279 426.682L285.383 423.639L309.785 354.088Z" fill="#5E1B16"/>
<path d="M340.13 201.762C340.13 201.762 304.653 190.259 289.278 226.036C289.278 226.036 276.758 247.03 274.602 257.502C272.447 267.974 276.797 311.019 276.438 335.068C276.078 359.117 361.71 348.8 361.71 348.8C361.71 348.8 366.17 216.997 340.13 201.762Z" fill="#9D9769"/>
<path d="M304.805 141.939C314.557 141.138 321.812 132.601 321.008 122.873C320.205 113.145 311.648 105.908 301.895 106.71C292.142 107.511 284.888 116.047 285.691 125.776C286.495 135.504 295.052 142.741 304.805 141.939Z" fill="#DF8F40"/>
<path d="M287.324 156.039C286.997 156.801 286.409 157.362 285.906 157.89C285.331 158.489 284.854 159.03 284.978 159.78C285.213 161.181 286.383 163.045 286.383 163.045C286.383 163.045 283.802 163.983 284.037 167.02C284.266 170.07 286.154 169.36 286.154 169.36C286.154 169.36 286.141 169.386 286.128 169.445C285.88 170.233 283.998 176.522 286.853 178.477C289.911 180.589 304.898 180.817 304.898 180.817C304.898 180.817 309.027 187.406 304.898 207.009C303.285 214.673 336.311 207.009 336.311 207.009L333.501 117.934C333.501 117.934 313.575 112.792 303.722 117.699C293.89 122.613 292.714 132.421 292.485 135.699C292.237 138.964 293.661 142.014 289.199 144.582C284.749 147.156 280.758 148.323 282.868 150.421C284.985 152.533 288.023 154.41 287.33 156.039H287.324Z" fill="#FFAC9C"/>
<path d="M304.936 144.107C304.936 144.107 299.023 144.107 295.691 140.477C295.691 140.477 294.633 141.839 296.907 143.65L297.364 147.43L301.003 144.863C301.003 144.863 304.492 144.713 304.943 144.107H304.936Z" fill="#90343D"/>
<path d="M284.037 167.02C284.265 170.07 286.153 169.36 286.153 169.36C286.153 169.36 286.14 169.386 286.127 169.445C290.243 169.217 294.719 163.364 294.719 163.364C290.655 163.162 286.591 158.685 285.905 157.896C285.33 158.496 284.853 159.037 284.977 159.786C285.213 161.188 286.382 163.051 286.382 163.051C286.382 163.051 283.801 163.99 284.037 167.027V167.02Z" fill="#EF6C5B"/>
<path d="M312.992 113.15C312.992 113.15 302.525 126.804 312.992 136.175C323.458 145.547 326.339 151.262 326.875 162.778C326.875 162.778 363.717 158.131 354.328 133.23C344.933 108.328 323.19 108.061 312.992 113.15Z" fill="#DF8F40"/>
<path d="M337.329 156.802C337.329 156.802 315.854 203.321 332.299 223.849C347.437 242.749 370.663 234.433 374.962 225.237C379.26 216.042 368.872 199.299 367.239 187.041C365.599 174.782 358.635 140.046 354.95 134.526C351.265 129.006 337.336 156.795 337.336 156.795L337.329 156.802Z" fill="#DF8F40"/>
<path d="M326.444 155.048C326.444 155.048 328.3 146.459 335.728 147.808C343.156 149.157 342.314 163.129 333.03 165.828C323.746 168.519 325.601 155.889 326.444 155.048Z" fill="#FDA493"/>
<path d="M306.981 139.297C306.981 139.297 301.99 132.949 296.338 134.963C296.338 134.963 295.874 133.151 296.985 132.343C298.096 131.535 304.76 131.737 306.988 139.297H306.981Z" fill="#DF8F40"/>
<path d="M337.656 154.11C337.656 154.11 331.861 151.321 328.457 158.301C328.457 158.301 329.202 148.707 337.656 154.11Z" fill="#90343D"/>
<path d="M330.266 154.846C330.266 154.846 335.571 158.372 330.553 161.5C330.553 161.5 336.485 160.19 332.147 154.221L330.266 154.846Z" fill="#90343D"/>
<path d="M296.109 310.924C296.109 310.924 263.828 295.804 247.384 331.133C247.384 331.133 233.99 351.871 231.684 362.213C229.378 372.556 236.675 377.919 236.29 401.668C235.905 425.416 314.632 419.29 314.632 419.29C314.632 419.29 323.961 325.972 296.109 310.924Z" fill="#FDC08B"/>
<path d="M256.551 224.09C256.551 234.531 271.336 245.792 281.796 245.792C292.256 245.792 300.742 237.333 300.742 226.893C300.742 216.452 294.666 206.735 284.2 206.735C273.734 206.735 256.551 213.656 256.551 224.097V224.09Z" fill="#5E1B16"/>
<path d="M245.365 258.051C245.064 258.885 244.385 259.465 243.849 260.032C243.235 260.671 242.725 261.257 242.856 262.052C243.104 263.551 244.359 265.545 244.359 265.545C244.359 265.545 241.602 266.549 241.85 269.794C242.098 273.053 244.11 272.297 244.11 272.297C244.11 272.297 244.097 272.323 244.084 272.382C243.823 273.222 245.293 280.17 248.344 282.262C251.611 284.517 264.155 284.543 264.155 284.543C264.155 284.543 270.486 299.662 264.037 312.221C263.22 313.817 253.12 324.948 255.498 325.541C258.157 326.206 267.101 319.428 278.28 316.483C287.525 314.052 298.683 313.941 298.683 313.941C298.683 313.941 294.019 293.126 293.823 287.052C293.261 269.312 294.737 217.299 294.737 217.299C294.737 217.299 273.426 211.799 262.894 217.052C252.375 222.305 249.651 230.594 249.402 234.1C249.141 237.594 252.068 244.977 247.299 247.728C242.542 250.478 242 250.726 242.085 253.222C242.176 255.841 245.704 257.106 245.365 258.051Z" fill="#DB7855"/>
<path d="M272.812 212.19C272.812 212.19 261.62 226.795 272.812 236.811C284.004 246.835 293.059 263.043 293.823 279.055C293.823 279.055 327.058 260.286 317.01 233.657C306.962 207.028 283.716 206.742 272.805 212.183L272.812 212.19Z" fill="#5E1B16"/>
<path d="M287.205 256.988C287.205 256.988 289.191 247.806 297.136 249.246C305.08 250.686 304.179 265.637 294.248 268.517C284.317 271.398 286.303 257.894 287.205 256.995V256.988Z" fill="#B85E3E"/>
<path d="M299.188 255.992C299.188 255.992 292.988 253.007 289.355 260.469C289.355 260.469 290.153 250.211 299.188 255.992Z" fill="#5E1B16"/>
<path d="M291.289 256.773C291.289 256.773 296.96 260.547 291.596 263.89C291.596 263.89 297.94 262.489 293.301 256.102L291.289 256.773Z" fill="#5E1B16"/>
<path d="M317.961 243.444C330.235 241.479 338.587 229.961 336.617 217.718C334.646 205.475 323.1 197.144 310.826 199.109C298.553 201.074 290.201 212.592 292.171 224.835C294.141 237.078 305.688 245.409 317.961 243.444Z" fill="#5E1B16"/>
<path d="M303.683 208.84C303.683 212.086 301.043 214.719 297.79 214.719C294.536 214.719 291.896 212.086 291.896 208.84C291.896 205.595 294.536 202.962 297.79 202.962C301.043 202.962 303.683 205.595 303.683 208.84Z" fill="#5E1B16"/>
<path d="M306.962 203.64C306.962 206.351 304.76 208.554 302.036 208.554C299.311 208.554 297.109 206.358 297.109 203.64C297.109 200.922 299.311 198.726 302.036 198.726C304.76 198.726 306.962 200.922 306.962 203.64Z" fill="#5E1B16"/>
<path d="M314.3 207.967C317.818 207.967 320.67 205.122 320.67 201.613C320.67 198.104 317.818 195.259 314.3 195.259C310.782 195.259 307.93 198.104 307.93 201.613C307.93 205.122 310.782 207.967 314.3 207.967Z" fill="#5E1B16"/>
<path d="M311.404 200.264C311.404 202.388 309.673 204.115 307.543 204.115C305.413 204.115 303.682 202.388 303.682 200.264C303.682 198.139 305.413 196.412 307.543 196.412C309.673 196.412 311.404 198.139 311.404 200.264Z" fill="#5E1B16"/>
<path d="M322.7 207.967C326.273 207.967 329.169 205.079 329.169 201.515C329.169 197.952 326.273 195.063 322.7 195.063C319.128 195.063 316.232 197.952 316.232 201.515C316.232 205.079 319.128 207.967 322.7 207.967Z" fill="#5E1B16"/>
<path d="M331.487 220.493C335.539 220.493 338.824 217.216 338.824 213.174C338.824 209.132 335.539 205.855 331.487 205.855C327.435 205.855 324.15 209.132 324.15 213.174C324.15 217.216 327.435 220.493 331.487 220.493Z" fill="#5E1B16"/>
<path d="M323.766 206.429C323.766 209.622 326.359 212.21 329.561 212.21C332.762 212.21 335.356 209.622 335.356 206.429C335.356 203.236 332.762 200.648 329.561 200.648C326.359 200.648 323.766 203.236 323.766 206.429Z" fill="#5E1B16"/>
<path d="M339.303 228.858C342.283 225.885 342.283 221.066 339.303 218.093C336.323 215.12 331.491 215.12 328.511 218.093C325.531 221.066 325.531 225.885 328.511 228.858C331.491 231.831 336.323 231.831 339.303 228.858Z" fill="#5E1B16"/>
<path d="M321.25 232.726C321.25 228.418 324.752 224.925 329.07 224.925C333.389 224.925 336.891 228.418 336.891 232.726C336.891 237.034 333.389 240.527 329.07 240.527C324.752 240.527 321.25 237.034 321.25 232.726Z" fill="#5E1B16"/>
<path d="M321.544 246.118C325.012 246.118 327.823 243.314 327.823 239.855C327.823 236.396 325.012 233.592 321.544 233.592C318.077 233.592 315.266 236.396 315.266 239.855C315.266 243.314 318.077 246.118 321.544 246.118Z" fill="#5E1B16"/>
<path d="M293.555 269.091C293.555 271.007 292 272.558 290.079 272.558C288.158 272.558 286.604 271.007 286.604 269.091C286.604 267.175 288.158 265.624 290.079 265.624C292 265.624 293.555 267.175 293.555 269.091Z" fill="#FFE0C7"/>
<g clip-path="url(#clip1_2071_32804)">
<path d="M263.245 246.091C263.245 246.091 257.096 246.091 253.633 242.311C253.633 242.311 252.528 243.728 254.891 245.621L255.361 249.56L259.141 246.879C259.141 246.879 262.769 246.72 263.239 246.091H263.245Z" fill="#5E1B16"/>
<path d="M241.513 269.978C241.755 273.154 243.712 272.417 243.712 272.417C243.712 272.417 243.699 272.443 243.686 272.5C247.968 272.259 252.618 266.16 252.618 266.16C248.394 265.95 244.163 261.281 243.457 260.461C242.86 261.084 242.365 261.656 242.492 262.431C242.733 263.892 243.953 265.836 243.953 265.836C243.953 265.836 241.272 266.814 241.513 269.978Z" fill="#9C2B10"/>
<path d="M265.368 241.079C265.368 241.079 260.184 234.459 254.301 236.562C254.301 236.562 253.818 234.675 254.975 233.83C256.131 232.992 263.062 233.201 265.374 241.079H265.368Z" fill="#5E1B16"/>
</g>
<path d="M214.223 338.628C215.739 338.628 215.739 336.275 214.223 336.275C212.707 336.275 212.707 338.628 214.223 338.628Z" fill="#FCF4E1" fill-opacity="0.4"/>
<path d="M224.938 383.481C226.454 383.481 226.454 381.128 224.938 381.128C223.422 381.128 223.422 383.481 224.938 383.481Z" fill="#FCF4E1"/>
<path d="M370 293C368.667 293 368.667 291 370 291C371.333 291 371.333 293 370 293Z" fill="#FCF4E1" fill-opacity="0.8"/>
<path d="M206.194 319.877C207.71 319.877 207.71 317.524 206.194 317.524C204.678 317.524 204.678 319.877 206.194 319.877Z" fill="#FCF4E1" fill-opacity="0.4"/>
<path d="M385 267C383.667 267 383.667 265 385 265C386.333 265 386.333 267 385 267Z" fill="#FCF4E1" fill-opacity="0.4"/>
<path d="M379 312C377.667 312 377.667 310 379 310C380.333 310 380.333 312 379 312Z" fill="#FCF4E1" fill-opacity="0.4"/>
<path d="M194.137 274.353C195.653 274.353 195.653 272 194.137 272C192.621 272 192.621 274.353 194.137 274.353Z" fill="#FCF4E1"/>
<path d="M198.155 370.438C199.253 370.438 199.253 368.733 198.155 368.733C197.058 368.733 197.058 370.438 198.155 370.438Z" fill="#FCF4E1"/>
<path d="M80.2229 174.628C81.7389 174.628 81.7389 172.275 80.2229 172.275C78.7069 172.275 78.7069 174.628 80.2229 174.628Z" fill="#FCF4E1" fill-opacity="0.4"/>
<path d="M90.9378 219.481C92.4538 219.481 92.4538 217.128 90.9378 217.128C89.4218 217.128 89.4218 219.481 90.9378 219.481Z" fill="#FCF4E1" fill-opacity="0.4"/>
<path d="M72.1936 155.877C73.7096 155.877 73.7096 153.524 72.1936 153.524C70.6776 153.524 70.6776 155.877 72.1936 155.877Z" fill="#FCF4E1" fill-opacity="0.4"/>
<path d="M60.137 110.353C61.653 110.353 61.653 108 60.137 108C58.621 108 58.621 110.353 60.137 110.353Z" fill="#FCF4E1" fill-opacity="0.4"/>
<path d="M64.1552 206.438C65.2527 206.438 65.2527 204.733 64.1552 204.733C63.0577 204.733 63.0577 206.438 64.1552 206.438Z" fill="#FCF4E1" fill-opacity="0.4"/>
<path d="M81.137 319.353C82.653 319.353 82.653 317 81.137 317C79.621 317 79.621 319.353 81.137 319.353Z" fill="#FCF4E1" fill-opacity="0.4"/>
<path d="M237.194 227.877C238.71 227.877 238.71 225.524 237.194 225.524C235.678 225.524 235.678 227.877 237.194 227.877Z" fill="#FCF4E1" fill-opacity="0.4"/>
<path d="M204.137 244.353C205.653 244.353 205.653 242 204.137 242C202.621 242 202.621 244.353 204.137 244.353Z" fill="#FCF4E1" fill-opacity="0.4"/>
<path d="M229.155 278.438C230.253 278.438 230.253 276.733 229.155 276.733C228.058 276.733 228.058 278.438 229.155 278.438Z" fill="#FCF4E1" fill-opacity="0.4"/>
<path d="M188.223 151.628C189.739 151.628 189.739 149.275 188.223 149.275C186.707 149.275 186.707 151.628 188.223 151.628Z" fill="#FCF4E1" fill-opacity="0.4"/>
<path d="M198.938 196.481C200.454 196.481 200.454 194.128 198.938 194.128C197.422 194.128 197.422 196.481 198.938 196.481Z" fill="#FCF4E1" fill-opacity="0.4"/>
<path d="M239.5 180C240.167 180 240.167 179 239.5 179C238.833 179 238.833 180 239.5 180Z" fill="#FCF4E1" fill-opacity="0.4"/>
<path d="M180.194 132.877C181.71 132.877 181.71 130.524 180.194 130.524C178.678 130.524 178.678 132.877 180.194 132.877Z" fill="#FCF4E1" fill-opacity="0.4"/>
<path d="M130.137 142.353C131.653 142.353 131.653 140 130.137 140C128.621 140 128.621 142.353 130.137 142.353Z" fill="#FCF4E1" fill-opacity="0.4"/>
<path d="M172.155 183.438C173.253 183.438 173.253 181.733 172.155 181.733C171.058 181.733 171.058 183.438 172.155 183.438Z" fill="#FCF4E1" fill-opacity="0.4"/>
<path d="M120 190.5C117.685 191.212 116 193.406 116 196C116 193.406 114.315 191.212 112 190.5C114.315 189.788 116 187.594 116 185C116 187.594 117.685 189.788 120 190.5Z" fill="#FCF4E1"/>
<path d="M392.044 134.787C388.27 135.924 385.522 139.43 385.522 143.575C385.522 139.43 382.774 135.924 379 134.787C382.774 133.651 385.522 130.145 385.522 126C385.522 130.145 388.27 133.651 392.044 134.787Z" fill="#FCF4E1"/>
<path d="M348.274 419.698C351.298 419.698 351.306 415 348.274 415C345.242 415 345.242 419.698 348.274 419.698Z" fill="#FCF4E1"/>
<path d="M47.274 395.698C50.2981 395.698 50.306 391 47.274 391C44.242 391 44.242 395.698 47.274 395.698Z" fill="#FCF4E1"/>
<path d="M390 317C390 317 313.118 327.511 258.82 379.811C177.31 458.328 88.6496 457.02 0 392.245V451.703H390V317Z" fill="url(#paint0_linear_2071_32804)"/>
<path d="M389 451.703V377.42C389 377.42 266.42 376.881 234.642 451.703H389Z" fill="url(#paint1_linear_2071_32804)"/>
<g clip-path="url(#clip2_2071_32804)">
<path d="M39.3813 328.15C31.0113 327.23 25.8513 334.42 25.4013 342.13C24.9013 350.8 31.8013 356.67 39.3813 356.11C47.0813 355.54 53.3613 349.85 53.3613 342.13C53.3613 334.41 47.0513 329 39.3813 328.15Z" fill="#11120D" stroke="white" stroke-width="0.75" stroke-linecap="round" stroke-linejoin="round"/>
<path d="M39.3813 341.34C31.0113 340.42 25.8513 347.61 25.4013 355.32C24.9013 363.99 31.8013 369.86 39.3813 369.3C47.0813 368.73 53.3613 363.04 53.3613 355.32C53.3613 347.6 47.0513 342.19 39.3813 341.34Z" fill="#11120D" stroke="white" stroke-width="0.75" stroke-linecap="round" stroke-linejoin="round"/>
<path d="M47.2812 356.14C42.1212 356.26 39.4512 361.44 39.4512 361.44C37.2312 356.96 32.6512 355.9 32.6512 355.9C36.8013 355.71 39.7612 350.84 39.7612 350.84C41.3712 354.77 47.2812 356.14 47.2812 356.14Z" fill="white" stroke="white" stroke-width="0.75" stroke-linecap="round" stroke-linejoin="round"/>
<path d="M39.3813 325.31C31.0113 326.23 25.8513 319.04 25.4013 311.33C24.9013 302.66 31.8013 296.79 39.3813 297.35C47.0813 297.92 53.3613 303.61 53.3613 311.33C53.3613 319.05 47.0513 324.46 39.3813 325.31Z" fill="#11120D" stroke="white" stroke-width="0.75" stroke-linecap="round" stroke-linejoin="round"/>
<path d="M39.3813 312.12C31.0113 313.04 25.8513 305.85 25.4013 298.14C24.9013 289.47 31.8013 283.6 39.3813 284.16C47.0813 284.73 53.3613 290.42 53.3613 298.14C53.3613 305.86 47.0513 311.27 39.3813 312.12Z" fill="#11120D" stroke="white" stroke-width="0.75" stroke-linecap="round" stroke-linejoin="round"/>
<path d="M47.2812 297.32C42.1212 297.2 39.4513 292.02 39.4513 292.02C37.2312 296.5 32.6512 297.56 32.6512 297.56C36.8013 297.75 39.7612 302.62 39.7612 302.62C41.3712 298.69 47.2812 297.32 47.2812 297.32Z" fill="white" stroke="white" stroke-width="0.75" stroke-linecap="round" stroke-linejoin="round"/>
<path d="M39.3613 267.92L39.3613 167.84" stroke="white" stroke-width="0.75" stroke-linecap="round" stroke-linejoin="round"/>
<path d="M39.3707 163.09C36.7607 163.38 35.1607 161.14 35.0207 158.74C34.8607 156.04 37.0107 154.22 39.3707 154.39C41.7707 154.57 43.7207 156.34 43.7207 158.74C43.7207 161.14 41.7607 162.83 39.3707 163.09Z" fill="white" stroke="white" stroke-width="0.75" stroke-linecap="round" stroke-linejoin="round"/>
</g>
<defs>
<linearGradient id="paint0_linear_2071_32804" x1="414.5" y1="306.43" x2="84.2592" y2="554.115" gradientUnits="userSpaceOnUse">
<stop stop-color="#0B162C"/>
<stop offset="1" stop-color="#1C2D4E"/>
</linearGradient>
<linearGradient id="paint1_linear_2071_32804" x1="311.821" y1="377.42" x2="328.275" y2="469.745" gradientUnits="userSpaceOnUse">
<stop stop-color="#1F3A70"/>
<stop offset="1" stop-color="#04040C" stop-opacity="0.56"/>
</linearGradient>
<clipPath id="clip0_2071_32804">
<rect width="101" height="235.153" fill="white" transform="translate(80 207.169)"/>
</clipPath>
<clipPath id="clip1_2071_32804">
<rect width="23.8676" height="39" fill="white" transform="translate(241.5 233.5)"/>
</clipPath>
<clipPath id="clip2_2071_32804">
<rect width="215.71" height="28.73" fill="white" transform="translate(53.7305 154) rotate(90)"/>
</clipPath>
</defs>
</svg>
